<svg width="10" height="10" viewBox="0 0 10 10" fill="none" xmlns="http://www.w3.org/2000/svg">
<g id="ep:arrow-right-bold">
<path id="Vector" d="M3.30813 1.0225C3.19096 1.1397 3.12514 1.29865 3.12514 1.46437C3.12514 1.6301 3.19096 1.78904 3.30813 1.90625L6.40188 5L3.30813 8.09375C3.19428 8.21163 3.13128 8.3695 3.13271 8.53338C3.13413 8.69725 3.19986 8.85401 3.31574 8.96989C3.43162 9.08577 3.58838 9.1515 3.75225 9.15292C3.91613 9.15434 4.074 9.09135 4.19188 8.9775L7.7275 5.44187C7.84467 5.32467 7.9105 5.16573 7.9105 5C7.9105 4.83427 7.84467 4.67533 7.7275 4.55812L4.19188 1.0225C4.07467 0.90533 3.91573 0.839508 3.75 0.839508C3.58428 0.839508 3.42533 0.90533 3.30813 1.0225Z" fill="#7C7C85"/>
</g>
</svg>
