<svg width="24" height="25" viewBox="0 0 24 25" fill="none" xmlns="http://www.w3.org/2000/svg">
<g id="carbon:delivery-parcel">
<path id="Vector" d="M22.1115 6.96799L14.6115 2.84299C14.5008 2.78207 14.3764 2.75012 14.25 2.75012C14.1236 2.75012 13.9993 2.78207 13.8885 2.84299L6.38851 6.96799C6.27092 7.03274 6.17286 7.12785 6.10457 7.24342C6.03627 7.35898 6.00024 7.49076 6.00024 7.62499C6.00024 7.75923 6.03627 7.89101 6.10457 8.00657C6.17286 8.12213 6.27092 8.21725 6.38851 8.28199L13.5 12.1932V20.2325L11.223 18.98L10.5 20.2932L13.8885 22.157C13.9993 22.2179 14.1236 22.2499 14.25 22.2499C14.3764 22.2499 14.5008 22.2179 14.6115 22.157L22.1115 18.032C22.2291 17.9673 22.3273 17.8722 22.3956 17.7566C22.4639 17.641 22.5 17.5093 22.5 17.375V7.62499C22.5 7.49073 22.4639 7.35894 22.3956 7.24338C22.3273 7.12781 22.2291 7.03271 22.1115 6.96799ZM14.25 4.35649L20.1938 7.62499L14.25 10.8935L8.30626 7.62499L14.25 4.35649ZM21 16.9317L15 20.2317V12.1925L21 8.89249V16.9317Z" fill="#202020"/>
<path id="Vector_2" d="M7.5 12.5H1.5V11H7.5V12.5ZM9 18.5H3V17H9V18.5ZM10.5 15.5H4.5V14H10.5V15.5Z" fill="#202020"/>
</g>
</svg>
