<svg width="48" height="34" viewBox="0 0 48 34" fill="none" xmlns="http://www.w3.org/2000/svg">
<path fill-rule="evenodd" clip-rule="evenodd" d="M4.16602 33.3334C3.23776 33.3334 2.34752 32.9647 1.69114 32.3083C1.03476 31.6519 0.666016 30.7617 0.666016 29.8334V4.16675C0.666016 3.23849 1.03476 2.34825 1.69114 1.69187C2.34752 1.0355 3.23776 0.666748 4.16602 0.666748H43.8327C44.7609 0.666748 45.6512 1.0355 46.3076 1.69187C46.9639 2.34825 47.3327 3.23849 47.3327 4.16675V29.8334C47.3327 30.7617 46.9639 31.6519 46.3076 32.3083C45.6512 32.9647 44.7609 33.3334 43.8327 33.3334H4.16602ZM2.99935 4.16675C2.99935 3.85733 3.12227 3.56058 3.34106 3.34179C3.55985 3.123 3.8566 3.00008 4.16602 3.00008H43.8327C44.1421 3.00008 44.4389 3.123 44.6576 3.34179C44.8764 3.56058 44.9994 3.85733 44.9994 4.16675V7.66675H2.99935V4.16675ZM4.16602 31.0001C3.8566 31.0001 3.55985 30.8772 3.34106 30.6584C3.12227 30.4396 2.99935 30.1428 2.99935 29.8334V17.0001H44.9994V29.8334C44.9994 30.1428 44.8764 30.4396 44.6576 30.6584C44.4389 30.8772 44.1421 31.0001 43.8327 31.0001H4.16602Z" fill="#202020"/>
</svg>
