<svg width="153" height="18" viewBox="0 0 153 18" fill="none" xmlns="http://www.w3.org/2000/svg">
<g id="Layer_1" clip-path="url(#clip0_1_35)">
<path id="Vector" d="M8.93434 13.0286C9.03355 12.878 9.13773 12.7322 9.25679 12.601C9.37585 12.4698 9.50483 12.3483 9.64869 12.2462C9.79255 12.1442 9.94633 12.0616 10.11 12.0032C10.2737 11.9449 10.4573 11.9158 10.6508 11.9158C10.8889 11.9158 11.1171 11.9595 11.3304 12.0421C11.5437 12.1247 11.7273 12.2462 11.881 12.3969C12.0348 12.5475 12.1588 12.7322 12.2481 12.9411C12.3374 13.155 12.3821 13.3931 12.3821 13.6555C12.3821 13.8353 12.3523 14.0054 12.2878 14.1658C12.2233 14.3261 12.1588 14.4768 12.0795 14.6226C11.8413 15.0891 11.5437 15.507 11.1865 15.8812C10.8294 16.2554 10.4226 16.5713 9.96122 16.8337C9.49987 17.0961 8.98395 17.3002 8.41842 17.4411C7.85289 17.5821 7.23776 17.655 6.58293 17.655C5.52629 17.655 4.58871 17.5092 3.77018 17.2176C2.95661 16.926 2.26707 16.5081 1.71146 15.9638C1.15586 15.4195 0.729229 14.7635 0.441505 13.986C0.15378 13.2133 0.00991821 12.3434 0.00991821 11.3812C0.00991821 10.419 0.15378 9.5054 0.441505 8.6987C0.729229 7.89201 1.15586 7.20194 1.72138 6.62365C2.28691 6.04535 2.98142 5.59827 3.80491 5.28239C4.62839 4.96652 5.58086 4.80615 6.65239 4.80615C7.21791 4.80615 7.75864 4.85475 8.2696 4.9568C8.78055 5.05885 9.26175 5.2095 9.70822 5.41846C10.1547 5.62743 10.5615 5.88499 10.9335 6.19114C11.3006 6.4973 11.6231 6.86177 11.891 7.28455C11.9802 7.43034 12.0596 7.58585 12.1192 7.75594C12.1787 7.92602 12.2084 8.09611 12.2084 8.27592C12.2084 8.5189 12.1638 8.74244 12.0795 8.94654C11.9951 9.1555 11.8711 9.33531 11.7173 9.48596C11.5635 9.63661 11.375 9.75324 11.1617 9.84071C10.9434 9.92332 10.7053 9.96706 10.4424 9.96706C10.0952 9.96706 9.76279 9.88445 9.45522 9.71436C9.14765 9.54427 8.88969 9.30615 8.69126 9C8.60197 8.85907 8.48291 8.72786 8.34897 8.60151C8.21007 8.47516 8.05628 8.36339 7.88266 8.2662C7.70903 8.169 7.52052 8.09125 7.32209 8.03293C7.12366 7.97462 6.91035 7.95032 6.69703 7.95032C6.20592 7.95032 5.79417 8.04751 5.47172 8.23704C5.14927 8.42656 4.88635 8.67926 4.69288 9C4.49941 9.31587 4.36051 9.68034 4.2861 10.0934C4.20673 10.5065 4.172 10.9341 4.172 11.3861C4.172 11.7846 4.21665 12.1685 4.30098 12.5475C4.38531 12.9217 4.52422 13.257 4.71769 13.5486C4.91116 13.8402 5.15919 14.0734 5.46676 14.2484C5.77433 14.4233 6.15135 14.5108 6.59782 14.5108C6.87066 14.5108 7.12862 14.4719 7.36178 14.3893C7.59493 14.3067 7.8132 14.1998 8.00667 14.0637C8.20014 13.9276 8.37873 13.7721 8.53252 13.5923C8.69126 13.4125 8.83016 13.223 8.95914 13.0286H8.93434Z" fill="#F4F4F5"/>
<path id="Vector_2" d="M17.8935 12.0712C17.8935 12.8439 18.0473 13.4368 18.3548 13.845C18.6624 14.2532 19.1783 14.4573 19.8976 14.4573C20.1903 14.4573 20.478 14.3941 20.7559 14.2629C21.0386 14.1317 21.2867 13.9519 21.5049 13.7186C21.7232 13.4854 21.9018 13.1986 22.0357 12.8633C22.1697 12.528 22.2391 12.1587 22.2391 11.7505V6.88115C22.2391 6.53612 22.2887 6.23482 22.3929 5.97726C22.4971 5.72456 22.6409 5.51074 22.8245 5.34065C23.008 5.17056 23.2313 5.04907 23.4843 4.96646C23.7373 4.88385 24.02 4.84497 24.3276 4.84497C24.6352 4.84497 24.9179 4.88385 25.1709 4.96646C25.4239 5.04907 25.6422 5.17056 25.8258 5.34065C26.0093 5.51074 26.1532 5.7197 26.2573 5.97726C26.3615 6.22996 26.4111 6.53612 26.4111 6.88115V15.609C26.4111 16.2456 26.2474 16.7316 25.925 17.0572C25.6025 17.3828 25.0916 17.548 24.402 17.548C23.7918 17.548 23.3255 17.3876 23.008 17.0669C22.6906 16.7462 22.5318 16.2699 22.5318 15.6284C22.2391 15.9929 21.9316 16.2991 21.5992 16.5421C21.2718 16.785 20.9196 16.9843 20.5525 17.1301C20.1854 17.2807 19.7984 17.3828 19.3966 17.4508C18.9948 17.514 18.5731 17.548 18.1415 17.548C17.3528 17.548 16.6781 17.4362 16.1175 17.2127C15.557 16.9891 15.1006 16.6781 14.7434 16.2894C14.3912 15.8957 14.1283 15.4341 13.9646 14.9044C13.8009 14.3747 13.7165 13.8012 13.7165 13.1841V6.88115C13.7165 6.53612 13.7661 6.23482 13.8703 5.97726C13.9745 5.72456 14.1183 5.51074 14.3019 5.34065C14.4854 5.17056 14.7037 5.04907 14.9567 4.96646C15.2097 4.88385 15.4925 4.84497 15.8 4.84497C16.1076 4.84497 16.3904 4.88385 16.6434 4.96646C16.8964 5.04907 17.1146 5.17056 17.2982 5.34065C17.4817 5.51074 17.6256 5.7197 17.7248 5.97726C17.829 6.22996 17.8786 6.53612 17.8786 6.88115V12.0664L17.8935 12.0712Z" fill="#F4F4F5"/>
<path id="Vector_3" d="M35.5141 13.913C35.5141 13.8256 35.4943 13.7235 35.4546 13.6166C35.4149 13.5097 35.3306 13.4028 35.2066 13.291C35.0825 13.1841 34.899 13.0772 34.6658 12.9751C34.4327 12.8731 34.1202 12.7808 33.7382 12.6981L32.3045 12.3871C31.4959 12.2122 30.8212 12.0032 30.2706 11.7554C29.72 11.5075 29.2784 11.2305 28.9461 10.9244C28.6137 10.6182 28.3706 10.2781 28.2268 9.90873C28.0829 9.5394 28.0085 9.14577 28.0085 8.72299C28.0085 8.42655 28.0482 8.12525 28.1325 7.81424C28.2168 7.50322 28.3508 7.20679 28.5343 6.92493C28.7179 6.64307 28.9659 6.37093 29.2685 6.11824C29.5711 5.86554 29.9432 5.64685 30.3847 5.45733C30.8262 5.2678 31.3421 5.12201 31.9325 5.0151C32.5228 4.90819 33.2024 4.85474 33.9713 4.85474C34.4228 4.85474 34.8692 4.88389 35.3107 4.93249C35.7523 4.98595 36.169 5.0637 36.5658 5.16089C36.9627 5.25808 37.3298 5.38443 37.6621 5.53022C37.9945 5.68087 38.2872 5.8461 38.5352 6.03562C38.7833 6.22515 38.9718 6.43411 39.1157 6.66251C39.2546 6.89091 39.324 7.14361 39.324 7.41089C39.324 7.62957 39.2843 7.82396 39.2099 7.9989C39.1355 8.17385 39.0363 8.31964 38.9073 8.44599C38.7783 8.56748 38.6295 8.66467 38.4608 8.73757C38.2922 8.8056 38.1185 8.84448 37.935 8.84448C37.7167 8.84448 37.4984 8.81532 37.2802 8.76186C37.0619 8.70355 36.8535 8.62579 36.665 8.51888C36.4517 8.40225 36.2235 8.29534 35.9804 8.19329C35.7374 8.0961 35.4893 8.01348 35.2363 7.94545C34.9833 7.87741 34.7303 7.82396 34.4724 7.78994C34.2144 7.75106 33.9664 7.73649 33.7332 7.73649C33.5001 7.73649 33.2967 7.75106 33.0982 7.77536C32.8998 7.79966 32.7212 7.8434 32.5724 7.89685C32.4186 7.95517 32.2996 8.02806 32.2103 8.11554C32.121 8.20301 32.0763 8.31478 32.0763 8.44113C32.0763 8.54804 32.0962 8.65009 32.1359 8.75214C32.1755 8.8542 32.2599 8.95139 32.3839 9.04858C32.5079 9.14577 32.6865 9.24297 32.9097 9.33044C33.1379 9.41791 33.4356 9.50538 33.8076 9.59286L35.8515 10.0448C36.4765 10.1857 37.0371 10.3558 37.5381 10.5599C38.0392 10.764 38.4658 11.0119 38.818 11.2937C39.1702 11.5804 39.4381 11.906 39.6266 12.2754C39.8102 12.6447 39.9044 13.0626 39.9044 13.5291C39.9044 13.8693 39.8598 14.2095 39.7655 14.5448C39.6713 14.8801 39.5274 15.2008 39.329 15.5021C39.1305 15.8034 38.8676 16.0853 38.5402 16.3429C38.2128 16.6004 37.8159 16.824 37.3447 17.0135C36.8734 17.203 36.3227 17.3537 35.6977 17.4606C35.0726 17.5675 34.3583 17.6209 33.5546 17.6209C32.8155 17.6209 32.111 17.5626 31.4413 17.446C30.7716 17.3294 30.1763 17.1544 29.6604 16.926C29.1445 16.6976 28.7377 16.4157 28.4351 16.0804C28.1325 15.7451 27.9787 15.3612 27.9787 14.9238C27.9787 14.7003 28.0234 14.4962 28.1077 14.3164C28.192 14.1366 28.3061 13.9859 28.445 13.8596C28.5839 13.7332 28.7476 13.6361 28.9312 13.568C29.1147 13.5 29.3033 13.466 29.5066 13.466C29.7448 13.466 29.9829 13.5097 30.216 13.5972C30.4492 13.6846 30.6526 13.7818 30.8361 13.8936C30.9998 13.9957 31.2082 14.0929 31.4513 14.19C31.6943 14.2872 31.9523 14.3796 32.2202 14.4573C32.4881 14.5399 32.7559 14.6031 33.0288 14.6517C33.2967 14.7003 33.5398 14.7246 33.758 14.7246C34.3682 14.7246 34.8147 14.6566 35.0974 14.5254C35.3802 14.3942 35.5191 14.1852 35.5191 13.8985L35.5141 13.913Z" fill="#F4F4F5"/>
<path id="Vector_4" d="M41.7945 3.29493C41.7945 2.57085 41.973 2.04115 42.3352 1.70584C42.6973 1.37053 43.2083 1.20044 43.873 1.20044C44.5378 1.20044 45.0438 1.37053 45.4059 1.70584C45.768 2.04115 45.9516 2.57085 45.9516 3.29493V5.11243H47.3753C47.5688 5.11243 47.7424 5.1513 47.8962 5.2242C48.05 5.29709 48.174 5.39428 48.2782 5.51577C48.3824 5.63726 48.4568 5.77819 48.5113 5.94342C48.5609 6.10865 48.5907 6.28359 48.5907 6.46826C48.5907 6.65292 48.5659 6.82787 48.5113 6.99795C48.4617 7.16804 48.3824 7.31383 48.2782 7.44018C48.174 7.56653 48.05 7.66372 47.8962 7.73662C47.7424 7.80951 47.5738 7.84839 47.3753 7.84839H45.9516V13.641C45.9516 13.9278 46.031 14.1416 46.1897 14.2777C46.3484 14.4186 46.5518 14.4866 46.79 14.4866C47.1918 14.4866 47.5241 14.5206 47.7871 14.5838C48.0549 14.647 48.2633 14.7442 48.4171 14.8705C48.5709 14.9969 48.68 15.1475 48.7445 15.3273C48.809 15.5071 48.8387 15.7112 48.8387 15.9396C48.8387 16.1437 48.7941 16.3381 48.7098 16.5325C48.6254 16.7269 48.4667 16.897 48.2385 17.0476C48.0103 17.1983 47.6928 17.3149 47.2959 17.4072C46.8941 17.4947 46.3782 17.5433 45.7432 17.5433C44.4733 17.5433 43.496 17.2323 42.8164 16.6103C42.1368 15.9882 41.7945 15.0503 41.7945 13.7917V7.84839H41.0206C40.8271 7.84839 40.6535 7.81437 40.4997 7.73662C40.3459 7.66372 40.2219 7.56653 40.1177 7.44018C40.0135 7.31383 39.9391 7.16804 39.8846 6.99795C39.835 6.82787 39.8052 6.65292 39.8052 6.46826C39.8052 6.28359 39.83 6.10865 39.8846 5.94342C39.9342 5.77819 40.0135 5.63726 40.1177 5.51577C40.2219 5.39428 40.3459 5.29709 40.4997 5.2242C40.6535 5.1513 40.8222 5.11243 41.0206 5.11243H41.7945V3.29493Z" fill="#F4F4F5"/>
<path id="Vector_5" d="M49.0967 11.25C49.0967 10.2538 49.2555 9.35475 49.5779 8.55777C49.9004 7.7608 50.3567 7.08531 50.9471 6.53131C51.5374 5.97732 52.2518 5.54967 53.0852 5.25324C53.9186 4.9568 54.8462 4.80615 55.8781 4.80615C56.9099 4.80615 57.8773 4.9568 58.7256 5.25324C59.5689 5.54967 60.2882 5.97732 60.8736 6.53131C61.4639 7.08531 61.9153 7.7608 62.2279 8.55777C62.5404 9.35475 62.6991 10.2489 62.6991 11.25C62.6991 12.2511 62.5354 13.1598 62.213 13.9568C61.8905 14.7538 61.4292 15.4244 60.8289 15.9784C60.2287 16.5324 59.5143 16.9552 58.676 17.2468C57.8376 17.5432 56.905 17.689 55.8731 17.689C54.8413 17.689 53.9136 17.5432 53.0802 17.2516C52.2468 16.96 51.5374 16.5421 50.9421 15.993C50.3468 15.4438 49.8954 14.7684 49.5729 13.9714C49.2505 13.1744 49.0918 12.2657 49.0918 11.25H49.0967ZM53.2439 11.25C53.2439 11.7165 53.2935 12.1685 53.3878 12.6058C53.487 13.0432 53.6358 13.432 53.8491 13.7721C54.0575 14.1123 54.3303 14.3893 54.6627 14.5934C54.9951 14.7975 55.4018 14.8996 55.8781 14.8996C56.3543 14.8996 56.7611 14.8024 57.1034 14.6031C57.4457 14.4087 57.7235 14.1415 57.9467 13.811C58.165 13.4757 58.3287 13.0918 58.4378 12.6447C58.542 12.2025 58.5966 11.736 58.5966 11.25C58.5966 10.764 58.5519 10.3315 58.4577 9.89417C58.3684 9.4568 58.2146 9.06803 58.0013 8.72786C57.788 8.38769 57.5102 8.11069 57.1629 7.90658C56.8157 7.70248 56.389 7.60043 55.8781 7.60043C55.4217 7.60043 55.0248 7.70248 54.6925 7.90658C54.3601 8.11069 54.0872 8.38283 53.8739 8.72786C53.6606 9.06803 53.5019 9.4568 53.3977 9.89417C53.2935 10.3315 53.2439 10.7835 53.2439 11.25Z" fill="#F4F4F5"/>
<path id="Vector_6" d="M80.0271 10.5842C80.0271 10.1177 79.9874 9.72408 79.913 9.39362C79.8336 9.06803 79.7245 8.79589 79.5806 8.58693C79.4368 8.37797 79.2631 8.22246 79.0548 8.13013C78.8464 8.03293 78.6133 7.9892 78.3553 7.9892C78.0329 7.9892 77.7402 8.05723 77.4673 8.18844C77.1945 8.31965 76.9564 8.50432 76.753 8.7473C76.5496 8.99028 76.3908 9.27699 76.2767 9.61717C76.1627 9.95734 76.1031 10.3315 76.1031 10.7397V15.4973C76.1031 15.8618 76.0535 16.1728 75.9493 16.4352C75.8452 16.6976 75.7013 16.9114 75.5178 17.0767C75.3292 17.2468 75.111 17.3682 74.858 17.446C74.605 17.5238 74.3222 17.5626 74.0196 17.5626C73.717 17.5626 73.4293 17.5238 73.1763 17.446C72.9233 17.3682 72.7 17.2419 72.5165 17.0767C72.328 16.9066 72.1841 16.6928 72.0849 16.4352C71.9807 16.1728 71.9311 15.8618 71.9311 15.4973V10.5891C71.9311 10.1226 71.8914 9.72894 71.817 9.39848C71.7377 9.07289 71.6285 8.80075 71.4847 8.59179C71.3408 8.38283 71.1672 8.22732 70.9638 8.13499C70.7604 8.03779 70.5322 7.99406 70.2742 7.99406C69.9468 7.99406 69.6442 8.06209 69.3664 8.1933C69.0886 8.32451 68.8505 8.50918 68.6471 8.75216C68.4437 8.99514 68.285 9.28185 68.1709 9.62203C68.0568 9.9622 67.9972 10.3364 67.9972 10.7446V15.5022C67.9972 15.8666 67.9476 16.1776 67.8434 16.4401C67.7393 16.7025 67.5954 16.9163 67.4119 17.0815C67.2283 17.2516 67.01 17.3731 66.757 17.4509C66.504 17.5286 66.2213 17.5675 65.9187 17.5675C65.6161 17.5675 65.3333 17.5286 65.0753 17.4509C64.8174 17.3731 64.5941 17.2468 64.4106 17.0815C64.2221 16.9114 64.0782 16.6976 63.979 16.4401C63.8748 16.1776 63.8252 15.8666 63.8252 15.5022V6.86177C63.8252 6.19114 63.9889 5.68088 64.3114 5.33099C64.6338 4.98596 65.1398 4.81101 65.8244 4.81101C66.4247 4.81101 66.886 4.97624 67.2035 5.30183C67.521 5.62743 67.6797 6.17656 67.6797 6.93466C68.2899 6.19114 68.9695 5.64687 69.7186 5.31155C70.4627 4.97624 71.2465 4.80615 72.0551 4.80615C72.4024 4.80615 72.7596 4.83531 73.1217 4.89848C73.4838 4.96166 73.8212 5.07343 74.1387 5.24352C74.4561 5.4136 74.7439 5.64686 74.9969 5.9433C75.2499 6.2446 75.4483 6.62851 75.5922 7.09989C75.9146 6.65766 76.247 6.28833 76.5942 5.9919C76.9415 5.69546 77.2987 5.45734 77.6608 5.28725C78.0229 5.11717 78.39 4.99082 78.7571 4.91792C79.1242 4.84503 79.4814 4.81101 79.8287 4.81101C80.6075 4.81101 81.2722 4.92764 81.8229 5.16576C82.3735 5.39902 82.825 5.72462 83.1772 6.13769C83.5294 6.55075 83.7874 7.03671 83.956 7.59557C84.1197 8.15442 84.2041 8.76188 84.2041 9.41306V15.4973C84.2041 15.8618 84.1544 16.1728 84.0503 16.4352C83.9461 16.6976 83.8022 16.9114 83.6187 17.0767C83.4302 17.2468 83.2119 17.3682 82.9539 17.446C82.696 17.5238 82.4182 17.5626 82.1106 17.5626C81.803 17.5626 81.5252 17.5238 81.2673 17.446C81.0093 17.3682 80.7911 17.2419 80.6075 17.0767C80.424 16.9066 80.2801 16.6928 80.1759 16.4352C80.0717 16.1728 80.0221 15.8618 80.0221 15.4973V10.5891L80.0271 10.5842Z" fill="#F4F4F5"/>
<path id="Vector_7" d="M102.162 10.5842C102.162 10.1177 102.122 9.72408 102.048 9.39362C101.969 9.06803 101.859 8.79589 101.716 8.58693C101.572 8.37797 101.398 8.22246 101.19 8.13013C100.981 8.03293 100.748 7.9892 100.49 7.9892C100.168 7.9892 99.8751 8.05723 99.6023 8.18844C99.3295 8.31965 99.0913 8.50432 98.888 8.7473C98.6846 8.99028 98.5258 9.27699 98.4117 9.61717C98.2976 9.95734 98.2381 10.3315 98.2381 10.7397V15.4973C98.2381 15.8618 98.1885 16.1728 98.0843 16.4352C97.9801 16.6976 97.8363 16.9114 97.6527 17.0767C97.4642 17.2468 97.2459 17.3682 96.9929 17.446C96.7399 17.5238 96.4572 17.5626 96.1546 17.5626C95.852 17.5626 95.5642 17.5238 95.3112 17.446C95.0582 17.3682 94.835 17.2419 94.6515 17.0767C94.4629 16.9066 94.3191 16.6928 94.2199 16.4352C94.1157 16.1728 94.0661 15.8618 94.0661 15.4973V10.5891C94.0661 10.1226 94.0264 9.72894 93.952 9.39848C93.8726 9.07289 93.7635 8.80075 93.6196 8.59179C93.4758 8.38283 93.3021 8.22732 93.0987 8.13499C92.8953 8.03779 92.6671 7.99406 92.4092 7.99406C92.0818 7.99406 91.7792 8.06209 91.5014 8.1933C91.2236 8.32451 90.9854 8.50918 90.7821 8.75216C90.5787 8.99514 90.4199 9.28185 90.3058 9.62203C90.1917 9.9622 90.1322 10.3364 90.1322 10.7446V15.5022C90.1322 15.8666 90.0826 16.1776 89.9784 16.4401C89.8742 16.7025 89.7304 16.9163 89.5518 17.0815C89.3682 17.2516 89.15 17.3731 88.897 17.4509C88.644 17.5286 88.3612 17.5675 88.0586 17.5675C87.756 17.5675 87.4732 17.5286 87.2153 17.4509C86.9573 17.3731 86.7341 17.2468 86.5505 17.0815C86.362 16.9114 86.2182 16.6976 86.1189 16.4401C86.0148 16.1776 85.9651 15.8666 85.9651 15.5022V6.86177C85.9651 6.19114 86.1289 5.68088 86.4513 5.33099C86.7738 4.98596 87.2798 4.81101 87.9643 4.81101C88.5646 4.81101 89.0259 4.97624 89.3434 5.30183C89.6609 5.62743 89.8197 6.17656 89.8197 6.93466C90.4298 6.19114 91.1095 5.64686 91.8585 5.31155C92.6027 4.97624 93.3865 4.80615 94.1951 4.80615C94.5423 4.80615 94.8995 4.83531 95.2616 4.89848C95.6238 4.96166 95.9611 5.07343 96.2786 5.24352C96.5961 5.4136 96.8838 5.64686 97.1368 5.9433C97.3898 6.2446 97.5882 6.62851 97.7321 7.09989C98.0545 6.65766 98.3869 6.28833 98.7342 5.9919C99.0814 5.69546 99.4386 5.45734 99.8007 5.28725C100.163 5.11717 100.53 4.99082 100.897 4.91792C101.264 4.84503 101.621 4.81101 101.969 4.81101C102.747 4.81101 103.412 4.92764 103.963 5.16576C104.513 5.40388 104.965 5.72462 105.317 6.13769C105.669 6.55075 105.927 7.03671 106.096 7.59557C106.26 8.15442 106.344 8.76188 106.344 9.41306V15.4973C106.344 15.8618 106.294 16.1728 106.19 16.4352C106.086 16.6976 105.942 16.9114 105.759 17.0767C105.57 17.2468 105.352 17.3682 105.094 17.446C104.836 17.5238 104.558 17.5626 104.251 17.5626C103.943 17.5626 103.665 17.5238 103.407 17.446C103.149 17.3682 102.931 17.2419 102.747 17.0767C102.564 16.9066 102.42 16.6928 102.321 16.4352C102.217 16.1728 102.167 15.8618 102.167 15.4973V10.5891L102.162 10.5842Z" stroke="#F4F4F5" stroke-miterlimit="10"/>
<path id="Vector_8" d="M108.264 6.9686C108.264 6.62357 108.313 6.32227 108.418 6.06957C108.522 5.81687 108.666 5.60791 108.849 5.44268C109.033 5.27745 109.251 5.15596 109.509 5.07335C109.767 4.99074 110.045 4.95186 110.352 4.95186C110.66 4.95186 110.933 4.99074 111.191 5.07335C111.444 5.15596 111.662 5.27745 111.845 5.44268C112.029 5.60791 112.173 5.81687 112.277 6.06957C112.381 6.32227 112.431 6.62357 112.431 6.9686V15.6041C112.431 15.954 112.381 16.2505 112.277 16.5032C112.173 16.7559 112.029 16.9648 111.845 17.13C111.662 17.2953 111.444 17.4168 111.191 17.4994C110.938 17.582 110.655 17.6209 110.352 17.6209C110.05 17.6209 109.767 17.582 109.509 17.4994C109.251 17.4168 109.033 17.2953 108.849 17.13C108.666 16.9648 108.522 16.7559 108.418 16.5032C108.313 16.2505 108.264 15.9492 108.264 15.6041V6.9686ZM108.313 2.22562C108.313 1.95348 108.368 1.69106 108.472 1.44808C108.576 1.2051 108.72 0.996137 108.904 0.816331C109.087 0.641385 109.301 0.500456 109.549 0.393545C109.797 0.291493 110.06 0.238037 110.347 0.238037C110.635 0.238037 110.893 0.291493 111.141 0.393545C111.389 0.495597 111.602 0.636525 111.786 0.816331C111.969 0.996137 112.108 1.2051 112.218 1.44808C112.322 1.69106 112.376 1.95348 112.376 2.22562C112.376 2.49776 112.322 2.76504 112.218 3.00802C112.113 3.251 111.969 3.45996 111.786 3.63977C111.602 3.81957 111.389 3.9605 111.141 4.06255C110.893 4.1646 110.625 4.21806 110.347 4.21806C110.07 4.21806 109.797 4.1646 109.549 4.06255C109.301 3.9605 109.087 3.81957 108.904 3.63977C108.72 3.45996 108.576 3.251 108.472 3.00802C108.368 2.76504 108.313 2.50748 108.313 2.22562Z" stroke="#F4F4F5" stroke-miterlimit="10"/>
<path id="Vector_9" d="M122.432 5.72461C122.595 5.5691 122.754 5.43789 122.898 5.33098C123.042 5.22407 123.186 5.14145 123.32 5.07828C123.454 5.0151 123.588 4.97137 123.727 4.94707C123.865 4.92277 124.004 4.90819 124.158 4.90819C124.391 4.90819 124.619 4.95193 124.843 5.0394C125.061 5.12688 125.259 5.24837 125.428 5.40387C125.597 5.55938 125.731 5.74891 125.835 5.97245C125.939 6.19599 125.989 6.44383 125.989 6.71597C125.989 6.98811 125.914 7.27968 125.76 7.55182C125.607 7.82396 125.413 8.06694 125.175 8.28076L122.928 10.2975L125.582 14.2338C125.765 14.5059 125.904 14.7878 126.008 15.0794C126.108 15.3661 126.152 15.6479 126.142 15.9152C126.132 16.1825 126.063 16.44 125.934 16.6782C125.805 16.9163 125.602 17.1204 125.329 17.2953C125.13 17.4265 124.907 17.5189 124.659 17.5723C124.411 17.6258 124.158 17.6258 123.895 17.5723C123.632 17.514 123.369 17.3828 123.101 17.1787C122.834 16.9746 122.581 16.6733 122.333 16.2845L120.16 12.8051L118.513 14.2824V15.4341C118.513 15.8229 118.468 16.1485 118.374 16.4206C118.285 16.6927 118.146 16.9163 117.972 17.0864C117.793 17.2565 117.575 17.3828 117.322 17.4606C117.064 17.5383 116.772 17.5772 116.439 17.5772C116.107 17.5772 115.814 17.5383 115.556 17.4606C115.298 17.3828 115.08 17.2565 114.901 17.0864C114.723 16.9163 114.589 16.6927 114.499 16.4206C114.41 16.1485 114.361 15.818 114.361 15.4341V2.39577C114.361 2.007 114.405 1.68141 114.499 1.41413C114.589 1.14685 114.728 0.923312 114.901 0.748366C115.075 0.57342 115.298 0.44707 115.556 0.369316C115.814 0.291562 116.107 0.252686 116.439 0.252686C116.772 0.252686 117.064 0.291562 117.322 0.369316C117.58 0.44707 117.798 0.57342 117.972 0.748366C118.146 0.923312 118.285 1.14199 118.374 1.41413C118.463 1.68627 118.513 2.01186 118.513 2.39577V9.41791L122.442 5.72947L122.432 5.72461Z" stroke="#F4F4F5" stroke-miterlimit="10"/>
<path id="Vector_10" d="M139.199 14.8703C139.199 15.191 139.1 15.5215 138.897 15.8617C138.698 16.2018 138.371 16.5129 137.924 16.7947C137.478 17.0766 136.892 17.305 136.173 17.4848C135.454 17.6646 134.581 17.7521 133.544 17.7521C132.507 17.7521 131.629 17.6209 130.796 17.3633C129.962 17.1057 129.233 16.7121 128.623 16.1824C128.013 15.6527 127.536 14.9821 127.194 14.1657C126.852 13.3493 126.678 12.3822 126.678 11.2596C126.678 10.1371 126.842 9.17971 127.174 8.36329C127.507 7.54688 127.968 6.87625 128.558 6.34656C129.149 5.81686 129.858 5.42323 130.672 5.17053C131.485 4.91783 132.383 4.78662 133.35 4.78662C134.179 4.78662 134.913 4.87895 135.558 5.05876C136.198 5.24342 136.758 5.48155 137.24 5.7877C137.721 6.089 138.123 6.43403 138.45 6.8228C138.777 7.21157 139.04 7.6052 139.244 8.01826C139.447 8.43133 139.591 8.82982 139.68 9.22345C139.77 9.61707 139.814 9.97669 139.814 10.2974C139.814 10.6182 139.78 10.8854 139.705 11.1284C139.636 11.3763 139.522 11.5852 139.373 11.7602C139.219 11.9351 139.03 12.0663 138.797 12.1635C138.564 12.2607 138.291 12.3044 137.969 12.3044H130.736C130.806 12.7515 130.93 13.1257 131.108 13.4173C131.287 13.7089 131.505 13.947 131.763 14.1268C132.021 14.3066 132.304 14.4329 132.616 14.5058C132.929 14.5787 133.251 14.6176 133.589 14.6176C134.144 14.6176 134.66 14.5301 135.136 14.3601C135.613 14.19 136.024 13.9761 136.367 13.7186C136.55 13.5825 136.749 13.4853 136.957 13.4221C137.17 13.359 137.383 13.325 137.602 13.325C137.82 13.325 138.014 13.3638 138.207 13.4367C138.4 13.5096 138.569 13.6117 138.713 13.7429C138.857 13.8741 138.976 14.0345 139.06 14.224C139.145 14.4135 139.189 14.6322 139.189 14.8703H139.199ZM133.365 7.56632C133.053 7.56632 132.745 7.61005 132.452 7.69753C132.16 7.785 131.892 7.92593 131.649 8.12031C131.411 8.3147 131.207 8.57226 131.049 8.88813C130.89 9.20401 130.786 9.58792 130.741 10.0447H136.034C136.009 9.57334 135.925 9.17971 135.771 8.86383C135.617 8.54796 135.424 8.2904 135.181 8.10088C134.943 7.90649 134.665 7.77042 134.348 7.68781C134.035 7.6052 133.703 7.56632 133.36 7.56632H133.365Z" stroke="#F4F4F5" stroke-miterlimit="10"/>
<path id="Vector_11" d="M140.995 5.01024C140.995 4.42223 141.149 3.85851 141.461 3.32396C141.774 2.7894 142.19 2.31802 142.716 1.90495C143.242 1.49674 143.842 1.17115 144.517 0.923309C145.197 0.680328 145.901 0.558838 146.64 0.558838C147.156 0.558838 147.662 0.597715 148.163 0.680328C148.664 0.762942 149.141 0.884432 149.597 1.04966C150.053 1.21489 150.47 1.42871 150.852 1.68627C151.234 1.94383 151.566 2.24998 151.854 2.60473C152.142 2.95949 152.355 3.36769 152.514 3.8245C152.673 4.2813 152.752 4.79156 152.752 5.35041C152.752 5.90927 152.653 6.39037 152.459 6.82288C152.266 7.25538 152.018 7.64415 151.72 7.98918C151.422 8.33422 151.095 8.65009 150.738 8.92709C150.381 9.20409 150.038 9.45679 149.711 9.69005C149.537 9.81154 149.379 9.92817 149.225 10.0399C149.071 10.1469 148.932 10.2683 148.803 10.3947C148.674 10.521 148.555 10.662 148.451 10.8175C148.347 10.973 148.253 11.1576 148.173 11.3715C148.104 11.5416 148.034 11.7019 147.965 11.8623C147.895 12.0227 147.796 12.1636 147.667 12.2851C147.543 12.4066 147.379 12.5086 147.186 12.5815C146.993 12.6593 146.739 12.6933 146.432 12.6933C146.144 12.6933 145.896 12.6398 145.683 12.5378C145.47 12.4357 145.291 12.2997 145.152 12.1296C145.013 11.9595 144.909 11.7748 144.84 11.5659C144.77 11.3569 144.735 11.1528 144.735 10.9438C144.735 10.5696 144.805 10.2246 144.939 9.91845C145.073 9.61229 145.246 9.32558 145.46 9.06316C145.673 8.80074 145.916 8.55776 146.184 8.32936C146.452 8.10581 146.72 7.89199 146.993 7.69275C147.221 7.5178 147.444 7.34286 147.657 7.16791C147.871 6.99296 148.064 6.8083 148.233 6.62363C148.401 6.43411 148.535 6.23486 148.639 6.0259C148.744 5.81694 148.793 5.58854 148.793 5.35041C148.793 4.79156 148.615 4.35419 148.262 4.04804C147.91 3.74188 147.414 3.58638 146.784 3.58638C146.417 3.58638 146.114 3.63011 145.876 3.72244C145.638 3.80992 145.44 3.93141 145.281 4.08206C145.122 4.2327 144.993 4.39793 144.889 4.5826C144.785 4.76726 144.691 4.95193 144.606 5.13659C144.522 5.32612 144.428 5.51078 144.334 5.69059C144.234 5.87039 144.115 6.0259 143.976 6.16683C143.837 6.3029 143.664 6.41467 143.465 6.49242C143.267 6.57504 143.014 6.61391 142.721 6.61391C142.493 6.61391 142.275 6.5799 142.066 6.507C141.858 6.43897 141.675 6.33692 141.516 6.20085C141.357 6.06478 141.233 5.89955 141.139 5.70031C141.045 5.50106 140.995 5.2678 140.995 5.00538V5.01024ZM144.413 15.6091C144.413 15.3272 144.467 15.0648 144.582 14.8169C144.691 14.5691 144.844 14.3553 145.038 14.1706C145.231 13.9859 145.455 13.8402 145.713 13.7332C145.971 13.6263 146.243 13.5729 146.536 13.5729C146.829 13.5729 147.102 13.6263 147.36 13.7332C147.618 13.8402 147.841 13.9859 148.034 14.1706C148.228 14.3553 148.377 14.5691 148.491 14.8169C148.6 15.0648 148.659 15.3272 148.659 15.6091C148.659 15.8909 148.605 16.1533 148.491 16.4012C148.377 16.649 148.228 16.8628 148.034 17.0426C147.841 17.2273 147.618 17.3682 147.36 17.4751C147.102 17.5821 146.829 17.6355 146.536 17.6355C146.243 17.6355 145.971 17.5821 145.713 17.4751C145.455 17.3682 145.231 17.2224 145.038 17.0426C144.844 16.8628 144.696 16.6441 144.582 16.4012C144.467 16.1533 144.413 15.8909 144.413 15.6091Z" stroke="#F4F4F5" stroke-miterlimit="10"/>
</g>
<defs>
<clipPath id="clip0_1_35">
<rect width="153" height="18" fill="white"/>
</clipPath>
</defs>
</svg>
