<?xml version="1.0" encoding="UTF-8"?><svg id="Layer_2" xmlns="http://www.w3.org/2000/svg" viewBox="0 0 1836.14 640"><defs><style>.cls-1{fill:#fff;}</style></defs><path class="cls-1" d="M568.89,514.27c-11.91,19.66-26.41,37.27-43.52,52.83-17.11,15.58-36.25,28.75-57.44,39.52s-44.14,19.02-68.86,24.77-50.75,8.62-78.08,8.62c-51.97,0-97.89-7.69-137.78-23.02-39.89-15.34-73.39-36.86-100.5-64.53s-47.67-60.94-61.69-99.78C7,413.83,0,370.92,0,323.92s7-90.95,21.03-130.64c14.02-39.67,34.58-73.81,61.69-102.44,27.11-28.61,60.61-50.91,100.5-66.88S269.03,0,321,0c24.41,0,48.36,2.66,71.83,7.97s45.7,13.03,66.67,23.12,40.2,22.59,57.73,37.48,32.66,31.81,45.39,50.77c3.75,5.84,6.67,12.19,8.77,19.06,2.08,6.88,3.12,14.05,3.12,21.55,0,10.22-1.98,19.8-5.95,28.75-3.97,8.97-9.28,16.83-15.95,23.59-6.69,6.77-14.61,12.08-23.8,15.92-9.19,3.86-18.88,5.78-29.09,5.78-14.81,0-28.22-3.92-40.22-11.8-12-7.86-21.03-18.09-27.08-30.72-4.81-9.92-10.81-18.88-18-26.84-7.2-7.97-15.5-14.84-24.89-20.64-9.39-5.78-19.83-10.23-31.3-13.34-11.47-3.09-23.89-4.66-37.23-4.66-19.62,0-37.2,2.56-52.75,7.67s-29.22,12.2-41,21.27c-11.78,9.08-21.8,19.88-30.05,32.39s-14.97,26.12-20.19,40.83-9.02,30.19-11.42,46.45c-2.41,16.28-3.59,32.75-3.59,49.42,0,23.78,2.86,47,8.61,69.62,5.73,22.62,14.97,42.81,27.7,60.53,12.72,17.73,29.16,31.97,49.3,42.7,20.12,10.75,44.59,16.11,73.39,16.11,30.25,0,54.61-6.31,73.08-18.97,18.47-12.64,32.5-30.36,42.09-53.14,2.72-6.69,6.42-12.73,11.11-18.17s10.06-10.03,16.12-13.8c6.05-3.77,12.56-6.69,19.56-8.78,6.98-2.09,14.23-3.14,21.75-3.14,10.64,0,20.61,2,29.89,5.97s17.38,9.41,24.27,16.3c6.88,6.91,12.3,14.95,16.27,24.14,3.97,9.2,5.95,19.03,5.95,29.47,0,7.75-1.05,15.11-3.14,22.11s-5.11,13.44-9.06,19.28Z"/><path class="cls-1" d="M1332.57,555.39c0,10.66-2.05,20.72-6.12,30.2-4.08,9.5-9.62,17.73-16.62,24.72-7.02,7-15.28,12.53-24.8,16.59-9.53,4.05-19.62,6.09-30.3,6.09s-20.77-2.05-30.3-6.09c-9.53-4.06-17.84-9.59-24.95-16.59-7.12-6.98-12.72-15.22-16.8-24.72-4.08-9.48-6.11-19.55-6.11-30.19l.31-332.31-125.36,365.78c-2.3,6.47-5.53,12.42-9.7,17.84-4.19,5.42-8.98,10.06-14.42,13.92s-11.44,6.88-18.02,9.08c-6.59,2.17-13.44,3.28-20.53,3.28s-14.27-1.11-20.84-3.28c-6.58-2.2-12.64-5.27-18.17-9.23s-10.34-8.7-14.42-14.23-7.27-11.53-9.55-18l-126.3-358.59.31,325.73c0,10.66-2.03,20.72-6.09,30.2-4.06,9.5-9.64,17.73-16.72,24.72-7.09,7-15.38,12.53-24.84,16.59-9.48,4.05-19.53,6.09-30.16,6.09s-20.69-2.05-30.16-6.09c-9.48-4.06-17.72-9.59-24.69-16.59-6.98-6.98-12.5-15.22-16.56-24.72-4.06-9.48-6.09-19.55-6.09-30.2V125.77c0-17.09,2.77-32.48,8.3-46.14s13.42-25.3,23.66-34.89,22.61-16.95,37.12-22.06,30.86-7.67,49.03-7.67c64.95,0,107.25,28.69,126.89,86.05l102.77,297.58,96.19-297.27c18.78-57.56,60.88-86.36,126.25-86.36,18.16,0,34.5,2.56,49.02,7.67s26.89,12.47,37.12,22.06,18.12,21.23,23.66,34.89,8.31,29.05,8.31,46.14l-.31,429.62Z"/><path class="cls-1" d="M1407.37,167.31c0-21.88,5.69-42.75,17.06-62.66,11.38-19.89,26.59-37.44,45.69-52.66,19.09-15.2,41-27.34,65.72-36.41s50.55-13.59,77.47-13.59c18.78,0,37.3,1.53,55.55,4.56s35.67,7.64,52.27,13.81,31.88,14.06,45.84,23.69,26.12,21.09,36.45,34.38,18.36,28.44,24.11,45.45c5.73,17.03,8.61,35.97,8.61,56.83s-3.55,38.72-10.62,54.78-16.03,30.56-26.86,43.5c-10.84,12.94-22.77,24.58-35.77,34.91-13.02,10.33-25.45,19.77-37.33,28.33-6.25,4.59-12.14,8.92-17.66,12.98s-10.62,8.45-15.31,13.14c-4.69,4.7-8.97,9.97-12.83,15.81s-7.25,12.73-10.17,20.66c-2.5,6.27-5.06,12.38-7.67,18.31-2.61,5.95-6.2,11.22-10.8,15.81s-10.42,8.3-17.52,11.11-16.28,4.22-27.55,4.22c-10.44,0-19.58-1.92-27.39-5.78-7.83-3.86-14.3-8.92-19.41-15.19-5.11-6.25-8.92-13.25-11.42-20.97s-3.75-15.45-3.75-23.17c0-13.97,2.44-26.7,7.34-38.17s11.27-22.11,19.09-31.92,16.64-18.89,26.45-27.23,19.61-16.28,29.42-23.8c8.34-6.47,16.42-12.98,24.25-19.56,7.83-6.56,14.81-13.34,20.97-20.34,6.16-6.98,11.11-14.39,14.88-22.22,3.75-7.81,5.64-16.22,5.64-25.2,0-20.86-6.48-37.03-19.44-48.5-12.97-11.47-30.94-17.22-53.92-17.22-13.39,0-24.47,1.67-33.25,4.98s-16.03,7.72-21.78,13.22-10.52,11.67-14.27,18.52c-3.77,6.84-7.22,13.69-10.34,20.53-3.12,7.06-6.47,13.91-10.02,20.53-3.55,6.64-7.88,12.5-12.98,17.58-5.12,5.09-11.33,9.14-18.62,12.14-7.31,3-16.39,4.5-27.23,4.5-8.34,0-16.33-1.3-23.94-3.91-7.62-2.59-14.3-6.41-20.03-11.41-5.75-5-10.34-11.19-13.78-18.59-3.44-7.39-5.16-15.98-5.16-25.78ZM1532.14,562.66c0-10.41,2.03-20.2,6.11-29.38s9.62-17.2,16.64-24.08c7-6.88,15.22-12.3,24.62-16.27,9.41-3.95,19.45-5.94,30.12-5.94s20.7,1.98,30.11,5.94c9.41,3.97,17.62,9.39,24.64,16.27,7,6.88,12.55,14.91,16.62,24.08s6.12,18.97,6.12,29.38-2.05,20.22-6.12,29.39-9.62,17.14-16.62,23.92c-7.02,6.78-15.23,12.12-24.64,16.09-9.41,3.95-19.45,5.94-30.11,5.94s-20.72-1.98-30.12-5.94c-9.41-3.97-17.62-9.31-24.62-16.09-7.02-6.78-12.56-14.75-16.64-23.92s-6.11-18.97-6.11-29.39Z"/></svg>