<svg width="24" height="24" viewBox="0 0 24 24" fill="none" xmlns="http://www.w3.org/2000/svg">
<g id="emojione:flag-for-thailand" clip-path="url(#clip0_1_232)">
<path id="Vector" d="M19.65 3.75C17.625 1.875 14.9625 0.75 12 0.75C9.03748 0.75 6.37498 1.875 4.34998 3.75H19.65ZM4.34998 20.25C6.37498 22.125 9.03748 23.25 12 23.25C14.9625 23.25 17.625 22.125 19.65 20.25H4.34998Z" fill="#F40A22"/>
<path id="Vector_2" d="M0.75 12C0.75 13.6125 1.0875 15.1125 1.6875 16.5H22.3125C22.9125 15.1125 23.25 13.6125 23.25 12C23.25 10.3875 22.9125 8.8875 22.3125 7.5H1.6875C1.0875 8.8875 0.75 10.3875 0.75 12Z" fill="#12509B"/>
<path id="Vector_3" d="M4.35002 20.25H19.6125C20.7375 19.2 21.675 17.925 22.275 16.5H1.65002C2.32502 17.925 3.22502 19.2 4.35002 20.25ZM19.65 3.75H4.35002C3.22502 4.8 2.28752 6.075 1.68752 7.5H22.3125C21.675 6.075 20.775 4.8 19.65 3.75Z" fill="#F9F9F9"/>
<circle id="Ellipse 7" cx="12" cy="12" r="11.5" stroke="#202020"/>
</g>
<defs>
<clipPath id="clip0_1_232">
<rect width="24" height="24" fill="white"/>
</clipPath>
</defs>
</svg>
