<svg width="32" height="32" viewBox="0 0 32 32" fill="none" xmlns="http://www.w3.org/2000/svg">
<g id="Group">
<path id="Vector" d="M31.4256 16.1128C31.4256 24.7285 24.4415 31.7126 15.8258 31.7126C7.21008 31.7126 0.225952 24.7285 0.225952 16.1128C0.225952 7.49706 7.21008 0.512939 15.8258 0.512939C24.4415 0.512939 31.4256 7.49706 31.4256 16.1128Z" fill="white"/>
<path id="Vector_2" d="M20.4481 14.9021L20.1882 16.9891C20.1442 17.3377 19.849 17.5999 19.4988 17.5999H16.1186V26.3256C15.7622 26.3578 15.401 26.3743 15.0359 26.3743C14.2193 26.3743 13.4223 26.2926 12.6521 26.1371V17.5999H10.0524C9.81368 17.5999 9.61896 17.4044 9.61896 17.1649V14.5535C9.61896 14.314 9.81368 14.1185 10.0524 14.1185H12.6521V10.202C12.6521 7.7986 14.5923 5.85059 16.9862 5.85059H20.0194C20.2581 5.85059 20.4528 6.04609 20.4528 6.28557V8.89706C20.4528 9.13654 20.2581 9.33205 20.0194 9.33205H17.8523C16.8952 9.33205 16.1194 10.1109 16.1194 11.0728V14.1193H19.7595C20.1772 14.1193 20.4999 14.4867 20.4489 14.9029L20.4481 14.9021Z" fill="#202020"/>
</g>
</svg>
