<svg width="13" height="13" viewBox="0 0 13 13" fill="none" xmlns="http://www.w3.org/2000/svg">
<path id="Vector" fill-rule="evenodd" clip-rule="evenodd" d="M1.58222 1.16705C1.58226 0.901886 1.68761 0.647594 1.87511 0.460094C2.06261 0.272595 2.3169 0.167241 2.58207 0.167201H11.0673C11.3325 0.167241 11.5868 0.272595 11.7743 0.460094C11.9618 0.647594 12.0672 0.901886 12.0672 1.16705L12.0672 9.65233C12.0626 9.9145 11.9553 10.1644 11.7683 10.3482C11.5813 10.532 11.3296 10.635 11.0673 10.635C10.8051 10.635 10.5534 10.532 10.3664 10.3482C10.1794 10.1644 10.0721 9.9145 10.0675 9.65233L10.0675 3.58111L1.87496 11.7737C1.68742 11.9612 1.43307 12.0665 1.16785 12.0665C0.902636 12.0665 0.648282 11.9612 0.460746 11.7737C0.27321 11.5861 0.167852 11.3318 0.167852 11.0665C0.167852 10.8013 0.273209 10.547 0.460746 10.3594L8.65329 2.1669L2.58207 2.1669C2.3169 2.16686 2.06261 2.06151 1.87511 1.87401C1.68761 1.68651 1.58226 1.43221 1.58222 1.16705Z" fill="black"/>
</svg>
