<svg width="48" height="48" viewBox="0 0 48 48" fill="none" xmlns="http://www.w3.org/2000/svg">
<g id="mynaui:heart-solid">
<path id="Vector" d="M23.132 42.224C23.3855 42.4035 23.6884 42.4999 23.999 42.4999C24.3096 42.4999 24.6125 42.4035 24.866 42.224L24 41L24.868 42.224L24.884 42.212L24.926 42.182L25.086 42.066C25.2247 41.966 25.4213 41.82 25.676 41.628C28.648 39.3848 31.4533 36.9291 34.07 34.28C36.366 31.944 38.7 29.214 40.468 26.318C42.228 23.438 43.5 20.27 43.5 17.094C43.5 13.324 42.33 10.378 40.26 8.378C38.2 6.39 35.42 5.5 32.5 5.5C29.05 5.5 26.004 7.166 24 9.734C21.996 7.166 18.948 5.5 15.5 5.5C9.34 5.5 4.5 10.778 4.5 17.094C4.5 20.27 5.774 23.436 7.532 26.318C9.3 29.214 11.634 31.944 13.93 34.282C16.7196 37.1043 19.7232 39.7067 22.914 42.066L23.074 42.182L23.116 42.212L23.132 42.224Z" fill="#202020"/>
</g>
</svg>
