<svg width="48" height="49" viewBox="0 0 48 49" fill="none" xmlns="http://www.w3.org/2000/svg">
<rect y="0.5" width="48" height="48" rx="4" fill="#F4F4F5"/>
<path d="M10.5 15.5L13.0815 30.9935C13.1983 31.694 13.5598 32.3303 14.1018 32.7893C14.6437 33.2482 15.3308 33.5001 16.041 33.5H31.959C32.6692 33.5001 33.3563 33.2482 33.8982 32.7893C34.4402 32.3303 34.8017 31.694 34.9185 30.9935L37.5 15.5" stroke="#202020" stroke-width="2" stroke-linecap="round" stroke-linejoin="round"/>
<path d="M11.2285 19.9475C11.4805 19.9785 11.7375 19.996 11.9995 20C13.1845 20.0135 14.308 19.733 14.9995 19.25C15.691 18.77 16.8145 18.4895 17.9995 18.5C19.1845 18.4895 20.308 18.77 20.9995 19.25C21.691 19.733 22.8145 20.0135 23.9995 20C25.1845 20.0135 26.308 19.733 26.9995 19.25C27.691 18.77 28.8145 18.4895 29.9995 18.5C31.1845 18.4895 32.308 18.77 32.9995 19.25C33.691 19.733 34.8145 20.0135 35.9995 20C36.2555 19.998 36.507 19.981 36.754 19.949M23.9995 26H24.0145" stroke="#202020" stroke-width="2" stroke-linecap="round" stroke-linejoin="round"/>
</svg>
