<svg width="28" height="28" viewBox="0 0 28 28" fill="none" xmlns="http://www.w3.org/2000/svg">
<g id="&#240;&#159;&#166;&#134; icon &#34;shopping cart&#34;">
<path id="Vector" d="M1 1H3.88889L4.46667 3.88889M4.46667 3.88889H27L21.2222 15.4444H6.77778M4.46667 3.88889L6.77778 15.4444M6.77778 15.4444L3.46583 18.7564C2.55587 19.6664 3.20034 21.2222 4.48719 21.2222H21.2222M21.2222 21.2222C19.6267 21.2222 18.3333 22.5156 18.3333 24.1111C18.3333 25.7066 19.6267 27 21.2222 27C22.8178 27 24.1111 25.7066 24.1111 24.1111C24.1111 22.5156 22.8178 21.2222 21.2222 21.2222ZM9.66667 24.1111C9.66667 25.7066 8.37327 27 6.77778 27C5.18229 27 3.88889 25.7066 3.88889 24.1111C3.88889 22.5156 5.18229 21.2222 6.77778 21.2222C8.37327 21.2222 9.66667 22.5156 9.66667 24.1111Z" stroke="#202020" stroke-width="2" stroke-linecap="round" stroke-linejoin="round"/>
</g>
</svg>
