<svg width="32" height="32" viewBox="0 0 32 32" fill="none" xmlns="http://www.w3.org/2000/svg">
<g id="Group">
<path id="Vector" d="M31.825 16.1128C31.825 24.7285 24.8409 31.7126 16.2251 31.7126C7.60943 31.7126 0.625305 24.7285 0.625305 16.1128C0.625305 7.49706 7.60943 0.512939 16.2251 0.512939C24.8409 0.512939 31.825 7.49706 31.825 16.1128Z" fill="white"/>
<path id="Vector_2" d="M20.458 7.92969H11.993C9.81179 7.92969 8.04279 9.69868 8.04279 11.8799V20.3449C8.04279 22.5261 9.81179 24.2951 11.993 24.2951H20.458C22.6392 24.2951 24.4082 22.5261 24.4082 20.3449V11.8799C24.4082 9.69868 22.6392 7.92969 20.458 7.92969ZM22.9972 20.0622C22.9972 21.62 21.7331 22.8841 20.1753 22.8841H12.2749C10.7171 22.8841 9.45296 21.62 9.45296 20.0622V12.1618C9.45296 10.604 10.7171 9.33986 12.2749 9.33986H20.1753C21.7331 9.33986 22.9972 10.604 22.9972 12.1618V20.0622Z" fill="#202020"/>
<path id="Vector_3" d="M16.2342 11.8799C13.8983 11.8799 12.0021 13.7761 12.0021 16.112C12.0021 18.4479 13.8983 20.3441 16.2342 20.3441C18.5701 20.3441 20.4663 18.4479 20.4663 16.112C20.4663 13.7761 18.5701 11.8799 16.2342 11.8799ZM16.2342 18.9339C14.6795 18.9339 13.4122 17.6666 13.4122 16.112C13.4122 14.5573 14.6795 13.2901 16.2342 13.2901C17.7888 13.2901 19.0561 14.5573 19.0561 16.112C19.0561 17.6666 17.7888 18.9339 16.2342 18.9339Z" fill="#202020"/>
<path id="Vector_4" d="M20.7485 12.4445C20.2821 12.4445 19.9021 12.0645 19.9021 11.5981C19.9021 11.1317 20.2821 10.7517 20.7485 10.7517C21.2149 10.7517 21.5949 11.1317 21.5949 11.5981C21.5949 12.0645 21.2149 12.4445 20.7485 12.4445Z" fill="white"/>
</g>
</svg>
