<svg width="48" height="48" viewBox="0 0 48 48" fill="none" xmlns="http://www.w3.org/2000/svg">
<rect width="48" height="48" rx="4" fill="#F4F4F5"/>
<path d="M10.5 12H27C27.3978 12 27.7794 12.158 28.0607 12.4393C28.342 12.7206 28.5 13.1022 28.5 13.5V30C28.5 30.3978 28.342 30.7794 28.0607 31.0607C27.7794 31.342 27.3978 31.5 27 31.5H10.5C10.1022 31.5 9.72064 31.342 9.43934 31.0607C9.15803 30.7794 9 30.3978 9 30V13.5C9 13.1022 9.15803 12.7206 9.43934 12.4393C9.72064 12.158 10.1022 12 10.5 12ZM39 31.5H28.5V21H33.75L39 25.8465V31.5Z" stroke="#202020" stroke-width="2" stroke-linejoin="round"/>
<path d="M28.5 33C28.5 33.7956 28.8161 34.5587 29.3787 35.1213C29.9413 35.6839 30.7044 36 31.5 36C32.2956 36 33.0587 35.6839 33.6213 35.1213C34.1839 34.5587 34.5 33.7956 34.5 33M12 33C12 33.7956 12.3161 34.5587 12.8787 35.1213C13.4413 35.6839 14.2044 36 15 36C15.7956 36 16.5587 35.6839 17.1213 35.1213C17.6839 34.5587 18 33.7956 18 33" stroke="#202020" stroke-width="2" stroke-linecap="round" stroke-linejoin="round"/>
</svg>
