<?xml version="1.0" encoding="UTF-8"?>
<svg id="Layer_1" xmlns="http://www.w3.org/2000/svg" version="1.1" viewBox="0 0 164 56">
  <!-- Generator: Adobe Illustrator 29.3.1, SVG Export Plug-In . SVG Version: 2.1.0 Build 151)  -->
  <defs>
    <style>
      .st0 {
        fill: #003d69;
      }

      .st1 {
        fill: #fff;
      }
    </style>
  </defs>
  <rect class="st1" width="164" height="56"/>
  <g>
    <rect class="st0" x="10.2" y="15.54" width="88.46" height="24.62"/>
    <path class="st0" d="M.78.76v54.48h162.19V.76H.78ZM161.21,53.48H2.54V2.52h158.67v50.96Z"/>
    <g>
      <path class="st0" d="M100.67,15.55c3.71.01,7.42,0,11.13,0,1.91.04,3.88.46,5.43,1.64,1.11.8,1.87,2.03,2.22,3.34.4,1.48.41,3.03.25,4.54-.17,1.44-.63,2.92-1.64,4-1.14,1.19-2.76,1.8-4.36,2.06-1.4.26-2.83.16-4.24.18-1.17,0-2.34,0-3.5,0,0,2.95,0,5.89,0,8.84-1.76,0-3.52,0-5.28,0,0-8.21,0-16.41,0-24.62ZM105.96,19.87c0,2.4,0,4.8,0,7.2,1.54,0,3.07,0,4.61,0,1.05.02,2.18-.19,2.98-.92.73-.67.95-1.7.97-2.65,0-.88-.12-1.85-.73-2.54-.68-.78-1.76-1.05-2.76-1.09-1.69,0-3.38,0-5.07,0Z"/>
      <path class="st0" d="M125.83,19c1.31-.47,2.72-.62,4.1-.6,1.55-.02,3.11.22,4.56.77.79.3,1.58.67,2.15,1.3.91.95,1.18,2.32,1.19,3.6,0,2.97,0,5.93,0,8.9.01.81-.04,1.64.16,2.43.1.44.49.72.87.92,0,.24,0,.47,0,.71-1.78,0-3.57,0-5.35,0-.29-.66-.37-1.38-.44-2.09-.9.9-1.94,1.67-3.12,2.16-1.67.64-3.57.69-5.27.11-1.29-.45-2.46-1.38-3-2.66-.55-1.31-.57-2.81-.22-4.17.37-1.43,1.44-2.62,2.77-3.23,1.94-.9,4.11-.99,6.19-1.28.74-.12,1.54-.24,2.12-.76.54-.51.48-1.39.11-1.99-.38-.55-1.08-.72-1.7-.81-1.01-.13-2.1-.16-3.05.28-.82.39-1.17,1.3-1.32,2.14-1.59,0-3.17,0-4.75,0,.09-1.29.42-2.61,1.19-3.68.68-.97,1.71-1.66,2.81-2.06ZM127.49,29.73c-.67.3-1.22.93-1.3,1.67-.12.79.04,1.73.74,2.22.85.62,2,.56,2.97.32,1.01-.29,2.07-.81,2.54-1.81.62-1.22.43-2.62.47-3.93-1.64,1-3.69.75-5.42,1.52Z"/>
      <path class="st0" d="M139.32,18.42c1.8,0,3.6,0,5.39,0,.7,2.25,1.41,4.5,2.1,6.75.63-2.25,1.23-4.5,1.85-6.75,1.71,0,3.42,0,5.14,0-1.98,7.24-3.97,14.47-5.93,21.72-1.71,0-3.43,0-5.14,0,.52-1.92,1.04-3.84,1.56-5.76-1.66-5.32-3.32-10.64-4.98-15.96Z"/>
    </g>
    <g>
      <path class="st1" d="M27.28,20.27c-1-1.07-2.48-1.58-3.91-1.61-2.9,0-5.79,0-8.69,0-.02.68,0,1.36,0,2.04,2.6,0,5.2,0,7.8,0,.88.03,1.83.15,2.53.73.66.52.93,1.39.92,2.2.01.79-.16,1.67-.77,2.22-.71.6-1.65.82-2.56.88-1.79,0-3.59,0-5.38,0,0-1.55,0-3.1,0-4.66-.84,0-1.69,0-2.53,0,0,4.69,0,9.37,0,14.06.84,0,1.69,0,2.53,0,0-2.46,0-4.92,0-7.39h6.05c1.22-.04,2.49-.31,3.45-1.11,1.3-1.11,1.94-2.9,1.74-4.58-.08-1.02-.45-2.03-1.16-2.78Z"/>
      <path class="st1" d="M46.94,23.74c-1.4-.76-3.07-.87-4.61-.59-1.38.25-2.65,1.05-3.47,2.19-1.13,1.5-1.46,3.46-1.34,5.3.08,1.58.61,3.19,1.76,4.32,1.05,1.11,2.6,1.62,4.11,1.62,1.62.04,3.36-.33,4.57-1.48,1.27-1.25,1.91-3.04,2.02-4.8.08-1.32,0-2.7-.54-3.92-.48-1.14-1.41-2.05-2.49-2.62ZM46.66,33.35c-.44.71-1.21,1.17-2.03,1.29-1.21.22-2.61.04-3.51-.86-.87-.93-1.22-2.23-1.28-3.48-.05-1.44.24-2.94,1.08-4.13.5-.72,1.33-1.14,2.19-1.24,1.1-.14,2.32.03,3.18.78.75.65,1.11,1.64,1.25,2.6.21,1.71,0,3.53-.88,5.04Z"/>
      <path class="st1" d="M36.43,23.14c-.7-.06-1.43-.08-2.08.22-.97.44-1.72,1.25-2.3,2.12,0-.7,0-1.4,0-2.1-.72,0-1.45,0-2.17,0,0,4.25,0,8.49,0,12.74.76,0,1.52,0,2.28,0,0-2.46,0-4.92,0-7.39,0-1.06.52-2.1,1.36-2.74.83-.61,1.93-.73,2.92-.58-.01-.76.02-1.52-.02-2.28Z"/>
      <path class="st1" d="M93.6,34.41c-.5.05-1.01.09-1.5-.01-.4-.08-.69-.47-.66-.87,0-2.79,0-5.59,0-8.38.72,0,1.44,0,2.16,0,0-.58,0-1.17,0-1.75-.72,0-1.44,0-2.15,0,0-1.19,0-2.37,0-3.56-.78,0-1.56,0-2.34,0,0,1.19,0,2.37,0,3.56-.6,0-1.2,0-1.79,0,0,.59,0,1.17,0,1.75.6,0,1.19,0,1.79,0,0,2.68,0,5.36,0,8.05.02.78.06,1.61.52,2.28.34.54.99.76,1.59.83.8.06,1.61.04,2.39-.17,0-.57,0-1.14,0-1.71Z"/>
      <path class="st1" d="M69.76,24.05c-1.04-.93-2.53-1.04-3.85-.9-1.3.15-2.48.88-3.25,1.93-.35-.58-.76-1.14-1.36-1.47-1.01-.56-2.23-.6-3.35-.4-1.2.23-2.16,1.06-2.92,1.97,0-.6,0-1.2,0-1.79-.74,0-1.49,0-2.23,0,0,4.25,0,8.49,0,12.74.76,0,1.51,0,2.27,0,0-2.24,0-4.48,0-6.72,0-.76.06-1.54.31-2.26.52-1.63,2.53-2.52,4.12-1.95.46.16.85.53,1,1,.22.68.22,1.4.23,2.1,0,2.61,0,5.22,0,7.83.77,0,1.54,0,2.31,0,0-2.54,0-5.07,0-7.61.01-.82.17-1.7.7-2.36.97-1.13,2.78-1.46,4.07-.72.64.36.79,1.16.81,1.83.01,2.95,0,5.9,0,8.85.78,0,1.57,0,2.35,0,0-2.94,0-5.89,0-8.84-.04-1.16-.31-2.43-1.21-3.24Z"/>
      <path class="st1" d="M86.03,28.73c-.08-1.59-.64-3.23-1.87-4.3-1.25-1.17-3.08-1.6-4.74-1.27-1.22.21-2.29.95-3.06,1.9,0-.54,0-1.09,0-1.63-.74,0-1.49,0-2.23,0,0,5.07,0,10.14,0,15.21.75,0,1.51,0,2.26,0,0-1.31,0-2.63,0-3.94.45.49.92.99,1.53,1.31.99.53,2.15.59,3.24.48,1.63-.21,3.15-1.2,3.94-2.65.86-1.55,1.03-3.38.93-5.12ZM83.28,32.36c-.43,1.11-1.41,2.05-2.61,2.25-1.13.19-2.4-.05-3.22-.9-.8-.85-1.1-2.05-1.14-3.19-.03-1.36.09-2.8.78-4.01.45-.79,1.26-1.35,2.16-1.5,1.03-.17,2.18-.02,3.01.66.81.68,1.2,1.72,1.36,2.74.18,1.31.12,2.69-.35,3.94Z"/>
    </g>
    <g>
      <path class="st0" d="M107.68,7.6h-1.33c0,1.31-.02,2.62.08,3.92-.21-1.35-.74-2.62-1.13-3.92-.34,0-.68,0-1.03,0-.39,1.3-.93,2.57-1.12,3.92,0-.68.11-1.35.08-2.03-.02-.52.11-1.16-.34-1.55-.59-.5-1.59-.48-2.15.05-.38.35-.41,1-.05,1.37.3.35.77.45,1.2.47,0,.92,0,1.85,0,2.77-.01.31.13.66.46.74.36.08.73.02,1.09.04.44-1.26.89-2.52,1.34-3.78.38,1.26.8,2.51,1.16,3.77.43,0,.89.08,1.31-.06.34-.1.41-.5.41-.81,0-1.64,0-3.27,0-4.91ZM101.79,9.09c-.22,0-.39-.18-.39-.39s.18-.39.39-.39.39.18.39.39-.18.39-.39.39Z"/>
      <path class="st0" d="M114.15,8.79c.45-.06.82-.34,1.1-.68-.33-.22-.67-.43-1.01-.64-.23.22-.55.4-.87.25-.79-.3-1.74-.39-2.48.09-.64.38-.99,1.1-1.09,1.81,1.03.04,2.12-.11,3.09.32.51.23.27.85.33,1.28-.64-.04-1.37.35-1.45,1.03-.08.73.68,1.29,1.36,1.24.63.05,1.35-.35,1.41-1.02.02-.7,0-1.4.01-2.1.02-.4-.16-.81-.52-1.01-.78-.46-1.72-.47-2.6-.55.17-.17.36-.34.61-.36.74-.12,1.37.52,2.11.35ZM113.47,12.34c0,.22-.18.39-.39.39s-.39-.18-.39-.39.18-.39.39-.39.39.18.39.39Z"/>
      <path class="st0" d="M122.73,9.16c0-.59-.45-1.06-.93-1.33-.77-.4-1.68-.4-2.52-.28-.98.14-1.93.83-2.15,1.83.46,0,.92,0,1.37,0,.37-.91,1.58-1.18,2.41-.76.32.17.52.52.52.88,0,.78,0,1.55,0,2.33.02.29-.19.58-.49.58-.63.06-1.26.01-1.89.03,0-.26,0-.52,0-.77.62.05,1.36-.28,1.47-.95.11-.75-.67-1.32-1.36-1.28-.61-.04-1.34.32-1.41.99-.02.99,0,1.98,0,2.97.96,0,1.91,0,2.87,0,.53,0,1.1.06,1.59-.2.38-.18.55-.63.55-1.03,0-1,0-2,0-2.99ZM118.79,10.58c0-.22.18-.39.39-.39s.39.18.39.39-.18.39-.39.39-.39-.18-.39-.39Z"/>
      <path class="st0" d="M126.66,9.09c-.22,0-.39-.18-.39-.39s.18-.39.39-.39.39.18.39.39-.18.39-.39.39Z"/>
      <path class="st0" d="M137.14,11.99c-.22-.54-.84-.78-1.39-.76,0-1.21,0-2.42,0-3.64-.45,0-.89,0-1.34,0,0,1.52,0,3.05,0,4.57,0,.37.09.78.4,1.01.57.44,1.46.44,2.03-.02.32-.28.49-.77.3-1.17ZM135.88,12.73c-.22,0-.39-.18-.39-.39s.18-.39.39-.39.39.18.39.39-.18.39-.39.39Z"/>
      <path class="st0" d="M146.29,7.6c-.45,0-.89,0-1.33,0,0,1.31-.02,2.62.08,3.92-.2-1.35-.74-2.62-1.12-3.92-.34,0-.69,0-1.03,0-.38,1.3-.94,2.56-1.12,3.92-.02-.68.11-1.35.08-2.04-.01-.54.11-1.22-.4-1.6-.62-.44-1.61-.41-2.14.16-.33.35-.34.96,0,1.31.29.35.77.45,1.21.48,0,.93,0,1.86,0,2.78-.01.3.13.64.45.73.36.08.73.02,1.1.04.45-1.26.88-2.52,1.35-3.78.38,1.26.79,2.5,1.16,3.76.43,0,.88.08,1.3-.05.34-.1.42-.5.42-.81,0-1.64,0-3.27,0-4.91ZM140.39,9.09c-.22,0-.39-.18-.39-.39s.18-.39.39-.39.39.18.39.39-.18.39-.39.39Z"/>
      <path class="st0" d="M152.51,7.6c0,1.41,0,2.83,0,4.24,0,.29-.24.55-.54.53-.63.03-1.25,0-1.88,0,.02-.4-.07-.83.09-1.21.33-.37.89-.15,1.33-.21,0-.32,0-.65,0-.97-.48-.05-1.07.16-1.46-.21.49-.04,1.03-.23,1.26-.71.3-.56-.1-1.29-.7-1.42-.58-.11-1.28-.1-1.71.36-.42.47-.24,1.14-.28,1.71-.04.48.44.77.86.85-.37.09-.69.42-.69.81,0,.67,0,1.33,0,2,1.17,0,2.34,0,3.51,0,.41,0,.86-.07,1.17-.35.31-.26.37-.7.38-1.09,0-1.45,0-2.9,0-4.34h-1.33ZM149.69,8.69c0-.22.18-.39.39-.39s.39.18.39.39-.18.39-.39.39-.39-.18-.39-.39Z"/>
      <path class="st0" d="M154.81,4.17c-.36-.12-.71-.25-1.07-.36-.08.29-.26.57-.56.67-.48.16-1.03.14-1.45.46-.46.3-.62.97-.33,1.44.46.8,1.9.77,2.23-.12.14-.33-.03-.66-.25-.9.62-.13,1.33-.48,1.43-1.18ZM152.5,6.3c-.18,0-.33-.15-.33-.33s.15-.33.33-.33.33.15.33.33-.15.33-.33.33Z"/>
      <path class="st0" d="M114.44,4.37c-.16.64-.68,1.14-1.25,1.43.15-.36.24-.81,0-1.16-.34-.54-1.1-.61-1.65-.4-.49.18-.8.83-.48,1.28.17.29.5.44.83.49-.2.21-.41.39-.65.55.31.13.61.42.97.35.78-.11,1.56-.33,2.21-.79.61-.41,1.07-1.03,1.21-1.76-.4,0-.8,0-1.2,0ZM112.1,5.42c-.19,0-.34-.15-.34-.34s.15-.34.34-.34.34.15.34.34-.15.34-.34.34Z"/>
      <path class="st0" d="M129.9,7.6c0,1.36,0,2.73,0,4.09-.52-.44-1.15-.73-1.81-.89-.03-.78.03-1.56-.03-2.33-.34-1.25-2.56-1.16-2.76.14-.06.77.78,1.26,1.47,1.19,0,.32,0,.63,0,.95-.77.07-1.66.66-1.53,1.53.16,1.13,1.78,1.44,2.56.76.35-.31.28-.8.28-1.21.71.3,1.33.85,1.66,1.55.41-.01.87.08,1.22-.17.24-.2.26-.53.26-.82,0-1.6,0-3.19,0-4.79-.45,0-.89,0-1.34,0ZM126.72,12.46c-.07.04-.26.1-.39-.04-.01-.01-.02-.02-.03-.04-.23-.35.13-.68.48-.74,0,.03,0,.07,0,.1v.44s0,.23-.07.28Z"/>
    </g>
  </g>
</svg>