<svg width="72" height="56" viewBox="0 0 72 56" fill="none" xmlns="http://www.w3.org/2000/svg">
<g id="Back">
<path id="Vector" d="M15.2884 20.0256C14.9148 20.0256 14.6118 20.3286 14.6118 20.7022V32.4058L14.7734 32.219C14.9551 32.0019 15.253 31.9262 15.5206 32.0221C15.7882 32.118 15.965 32.3705 15.965 32.6532V20.7022C15.965 20.3286 15.662 20.0256 15.2884 20.0256Z" fill="#202020"/>
<path id="Vector_2" d="M15.5206 32.0222C15.253 31.9263 14.9551 32.002 14.7734 32.2191L14.6118 32.4059V32.6533C14.6118 33.027 14.9148 33.3299 15.2884 33.3299C15.662 33.3299 15.965 33.027 15.965 32.6533C15.965 32.3706 15.7882 32.1181 15.5206 32.0222Z" fill="#202020"/>
<g id="Group 30">
<path id="Vector_3" d="M26.9415 1.63713C27.9513 4.28282 32.4247 6.38826 36.1054 6.38826C39.7862 6.38826 44.4414 4.29292 45.5724 1.71286C42.6742 2.64188 39.7054 2.97007 36.9739 2.97007C32.5358 2.97007 28.744 2.11679 26.9415 1.63208V1.63713Z" fill="white"/>
<path id="Vector_4" d="M14.6117 32.4059V20.7023C14.6117 20.3286 14.9147 20.0257 15.2883 20.0257C15.6619 20.0257 15.9648 20.3286 15.9648 20.7023V54.6418H56.5943V32.6583C56.5943 32.5826 56.6095 32.5069 56.6347 32.4362V20.7023C56.6347 20.3286 56.9377 20.0257 57.3113 20.0257C57.6849 20.0257 57.9879 20.3286 57.9879 20.7023V32.4564L58.5433 33.1128C66.2178 27.5134 69.0553 25.4887 70.1409 24.7465C69.5047 23.7468 67.4699 20.7174 61.1839 11.6998C58.3514 7.63538 54.4182 4.52518 49.8085 2.70753L47.0416 1.61694C46.0924 5.08562 40.6192 7.74646 36.1105 7.74646C31.6017 7.74646 26.4163 5.13106 25.5126 1.62199L22.7608 2.70753C18.146 4.53023 14.2078 7.64043 11.3702 11.7099C5.0842 20.7224 3.04945 23.7519 2.41327 24.7516C3.50386 25.4938 6.33636 27.5235 14.0109 33.1178L14.6117 32.4109V32.4059Z" fill="white"/>
<path id="Vector_5" d="M46.3704 0.0265437C46.4057 0.0214947 46.441 0.0113967 46.4764 0.00634766C46.441 0.00634766 46.4057 0.0164457 46.3704 0.0265437Z" fill="white"/>
<path id="Vector_6" d="M1.23128 25.5645C1.84726 25.9381 9.01688 31.1386 13.7226 34.572C13.9952 34.7739 14.3789 34.7335 14.6112 34.4912V55.3235C14.6112 55.6971 14.9141 56 15.2878 56H57.2704C57.644 56 57.947 55.6971 57.947 55.3235V34.4962C58.1792 34.7386 58.5579 34.7739 58.8305 34.577C63.5362 31.1437 70.7058 25.9381 71.3218 25.5696C71.4783 25.4938 71.6046 25.3626 71.6652 25.1959C71.8368 24.7365 71.8671 24.6658 62.2891 10.9324C59.3052 6.65088 55.1599 3.37406 50.3027 1.45543L46.7583 0.051802C46.7583 0.051802 46.723 0.051802 46.7078 0.0467529C46.8997 0.107341 47.0613 0.238616 47.137 0.440577C47.2683 0.788959 47.0966 1.17773 46.7482 1.31406C46.3595 1.46553 45.9656 1.60185 45.5718 1.72808C44.4408 4.30308 39.8008 6.40347 36.1049 6.40347C32.409 6.40347 27.9507 4.29803 26.9409 1.65234C26.3098 1.48068 25.916 1.35445 25.8402 1.3292C25.4868 1.21308 25.2949 0.834401 25.4111 0.47592C25.4817 0.253763 25.6635 0.107341 25.8705 0.051802C25.8503 0.056851 25.8251 0.051802 25.8049 0.0619L22.2655 1.46048C17.4033 3.37911 13.253 6.66097 10.264 10.9476C0.691033 24.6759 0.716279 24.7466 0.892995 25.206C0.953583 25.3727 1.07981 25.5039 1.23633 25.5797L1.23128 25.5645ZM11.3697 11.6999C14.2073 7.63039 18.1455 4.52019 22.7603 2.69749L25.512 1.61195C26.4158 5.12607 31.6416 7.73642 36.1099 7.73642C40.5783 7.73642 46.0919 5.07558 47.0411 1.6069L49.8079 2.69749C54.4177 4.52019 58.3509 7.63039 61.1834 11.6898C67.4694 20.7074 69.5042 23.7368 70.1404 24.7365C69.0498 25.4787 66.2173 27.5033 58.5427 33.1027L57.9874 32.4463V32.6432C57.9874 33.0169 57.6844 33.3198 57.3108 33.3198C56.9372 33.3198 56.6342 33.0169 56.6342 32.6432V32.4261C56.609 32.4968 56.5938 32.5675 56.5938 32.6483V54.6317H15.9643V32.6432C15.9643 33.0169 15.6614 33.3198 15.2878 33.3198C14.9141 33.3198 14.6112 33.0169 14.6112 32.6432V32.3958L14.0104 33.1027C6.33585 27.5033 3.4983 25.4787 2.41276 24.7365C3.04893 23.7368 5.08368 20.7124 11.3697 11.6948V11.6999Z" fill="#202020"/>
<path id="Vector_7" d="M26.0677 0.00634766C26.1031 0.00634766 26.1435 0.0113967 26.1788 0.0214947C26.1384 0.0164457 26.1081 0.0113967 26.0677 0.00634766Z" fill="white"/>
<path id="Vector_8" d="M26.7237 0.647563C26.7338 0.980799 26.8197 1.31403 26.9408 1.63212C28.7383 2.11683 32.5352 2.97011 36.9732 2.97011C39.7048 2.97011 42.6786 2.64698 45.5717 1.71291C45.7232 1.36452 45.8191 1.00604 45.8292 0.647563C45.8393 0.430455 45.9504 0.228494 46.1322 0.107318C46.2029 0.0618766 46.2836 0.0416805 46.3644 0.0214844C46.3291 0.0265334 46.2937 0.0214844 46.2584 0.0416805C37.155 3.53561 26.3653 0.0669256 26.2542 0.0315824C26.2239 0.0214844 26.1986 0.0315824 26.1683 0.0214844C26.2542 0.0366314 26.335 0.0568275 26.4107 0.107318C26.5925 0.228494 26.7086 0.430455 26.7136 0.647563H26.7237Z" fill="#202020"/>
<path id="Vector_9" d="M46.4759 0.00626714C46.5516 0.00626714 46.6274 0.0163652 46.7031 0.0365613C46.6274 0.0113162 46.5516 0.00121812 46.4759 0.00626714Z" fill="white"/>
<path id="Vector_10" d="M25.8705 0.0366636C25.9362 0.0164675 26.0018 0.00636948 26.0675 0.0114185C26.0018 0.0114185 25.9362 0.0215165 25.8705 0.0366636Z" fill="white"/>
<path id="Vector_11" d="M25.4113 0.460716C25.2952 0.814147 25.4871 1.19787 25.8405 1.314C25.9213 1.33925 26.3101 1.46547 26.9412 1.63714C26.82 1.314 26.7392 0.985814 26.7241 0.652579C26.714 0.435471 26.6029 0.23351 26.4211 0.112333C26.3454 0.0618428 26.2646 0.0416467 26.1788 0.0264996C26.1435 0.0214506 26.1031 0.0164016 26.0677 0.0113525C26.0021 0.0113525 25.9364 0.0214506 25.8708 0.0365977C25.6638 0.0971859 25.482 0.243608 25.4113 0.460716Z" fill="#202020"/>
<path id="Vector_12" d="M45.8301 0.647537C45.8149 1.01107 45.724 1.3645 45.5726 1.71288C45.9664 1.58666 46.3602 1.45033 46.749 1.29886C47.0974 1.16759 47.269 0.773763 47.1378 0.42538C47.062 0.223419 46.8954 0.0921447 46.7086 0.0315564C46.6329 0.00631128 46.5571 -0.00378677 46.4814 0.00126226C46.4461 0.00126226 46.4107 0.0113603 46.3754 0.0214584C46.2946 0.0366054 46.2138 0.0568015 46.1431 0.107292C45.9613 0.228468 45.8452 0.430429 45.8402 0.647537H45.8301Z" fill="#202020"/>
<path id="Vector_13" d="M57.3057 20.0256C56.9321 20.0256 56.6292 20.3286 56.6292 20.7022V32.4361C56.6948 32.2493 56.8362 32.0928 57.0331 32.0221C57.3007 31.9262 57.5986 32.0019 57.7803 32.219L57.9823 32.4563V20.7022C57.9823 20.3286 57.6793 20.0256 57.3057 20.0256Z" fill="#202020"/>
<path id="Vector_14" d="M57.0331 32.0222C56.8412 32.0929 56.6948 32.2494 56.6292 32.4362V32.6533C56.6292 33.027 56.9321 33.3299 57.3057 33.3299C57.6793 33.3299 57.9823 33.027 57.9823 32.6533V32.4564L57.7803 32.2191C57.5986 32.002 57.3007 31.9263 57.0331 32.0222Z" fill="#202020"/>
<path id="Vector_15" d="M29.0262 30.1137V25.8119H30.6974C31.2326 25.8119 31.6365 25.9078 31.9193 26.0946C32.202 26.2814 32.3434 26.5793 32.3434 26.9833C32.3434 27.16 32.3081 27.3165 32.2323 27.4478C32.1616 27.579 32.0556 27.6851 31.9142 27.7608C31.7729 27.8365 31.6062 27.882 31.4093 27.9022V27.8921C31.7678 27.9173 32.0455 28.0183 32.2374 28.2051C32.4292 28.3919 32.5252 28.6343 32.5252 28.9372C32.5252 29.3361 32.3838 29.634 32.1061 29.8309C31.8233 30.0278 31.4245 30.1238 30.9044 30.1238H29.0262V30.1137ZM29.9501 27.5942H30.6772C30.9044 27.5942 31.0862 27.5488 31.2175 27.4629C31.3538 27.372 31.4194 27.2458 31.4194 27.0792C31.4194 26.9025 31.3538 26.7712 31.2225 26.6904C31.0912 26.6096 30.9095 26.5642 30.6722 26.5642H29.9451V27.5942H29.9501ZM29.9501 29.3614H30.864C31.0862 29.3614 31.2629 29.3159 31.3992 29.225C31.5356 29.1341 31.6012 28.9978 31.6012 28.8161C31.6012 28.6343 31.5356 28.498 31.3992 28.402C31.2629 28.3061 31.0862 28.2607 30.864 28.2607H29.9501V29.3614Z" fill="#202020"/>
<path id="Vector_16" d="M34.1463 30.1893C33.8131 30.1893 33.5354 30.1136 33.3233 29.9571C33.1113 29.8006 33.0052 29.5834 33.0052 29.3058C33.0052 29.0281 33.0961 28.7958 33.2728 28.6443C33.4546 28.4878 33.7172 28.3767 34.0706 28.301L35.1208 28.094C35.1208 27.8819 35.0754 27.7254 34.9794 27.6194C34.8835 27.5133 34.7472 27.4578 34.5704 27.4578C34.3937 27.4578 34.2624 27.4982 34.1665 27.5739C34.0706 27.6547 34.005 27.7708 33.9797 27.9223L33.0658 27.8819C33.1264 27.5285 33.288 27.2558 33.5455 27.0741C33.808 26.8923 34.1463 26.7964 34.5704 26.7964C35.0552 26.7964 35.4187 26.9125 35.6661 27.1397C35.9084 27.372 36.0347 27.7052 36.0347 28.1495V29.2603C36.0347 29.3512 36.0498 29.4168 36.0801 29.4471C36.1104 29.4774 36.1558 29.4926 36.2164 29.4926H36.3073V30.1186C36.277 30.1287 36.2316 30.1338 36.171 30.1439C36.1104 30.154 36.0448 30.154 35.9842 30.154C35.8529 30.154 35.7368 30.1338 35.6257 30.0884C35.5146 30.0429 35.4237 29.9672 35.3581 29.8611C35.2925 29.7551 35.2571 29.6036 35.2571 29.4017L35.3379 29.4623C35.2975 29.6087 35.2268 29.7349 35.1208 29.846C35.0148 29.9571 34.8835 30.0379 34.7219 30.0984C34.5603 30.159 34.3685 30.1893 34.1564 30.1893H34.1463ZM34.3634 29.5633C34.5149 29.5633 34.6462 29.533 34.7573 29.4774C34.8683 29.4168 34.9592 29.331 35.0249 29.2199C35.0905 29.1088 35.1208 28.9725 35.1208 28.821V28.6645L34.3836 28.821C34.2372 28.8513 34.1261 28.8968 34.0554 28.9624C33.9797 29.0281 33.9444 29.1139 33.9444 29.2199C33.9444 29.3259 33.9797 29.4118 34.0554 29.4724C34.1261 29.533 34.2322 29.5633 34.3685 29.5633H34.3634Z" fill="#202020"/>
<path id="Vector_17" d="M38.1955 30.1893C37.8623 30.1893 37.5745 30.1186 37.3271 29.9823C37.0797 29.8409 36.8878 29.644 36.7515 29.3916C36.6152 29.1391 36.5445 28.8362 36.5445 28.4929C36.5445 28.1495 36.6152 27.8516 36.7515 27.5992C36.8878 27.3467 37.0797 27.1498 37.3271 27.0084C37.5745 26.8671 37.8623 26.7964 38.1955 26.7964C38.4833 26.7964 38.7408 26.8469 38.968 26.9479C39.1952 27.0488 39.382 27.1953 39.5234 27.3821C39.6648 27.5689 39.7506 27.8011 39.786 28.0687L38.8468 28.1091C38.8166 27.9072 38.7459 27.7557 38.6297 27.6497C38.5136 27.5487 38.3722 27.4932 38.1955 27.4932C37.9683 27.4932 37.7916 27.579 37.6704 27.7557C37.5492 27.9324 37.4836 28.1748 37.4836 28.4878C37.4836 28.8008 37.5442 29.0482 37.6704 29.225C37.7966 29.4017 37.9734 29.4875 38.1955 29.4875C38.3672 29.4875 38.5136 29.432 38.6297 29.3259C38.7459 29.2199 38.8165 29.0583 38.8418 28.8362L39.7809 28.8715C39.7506 29.1391 39.6698 29.3714 39.5285 29.5633C39.3871 29.7602 39.2053 29.9116 38.9781 30.0177C38.7509 30.1237 38.4884 30.1792 38.1955 30.1792V30.1893Z" fill="#202020"/>
<path id="Vector_18" d="M40.2859 30.1137V25.8119H41.1947V28.2001L42.4014 26.8671H43.492L42.2298 28.2051L43.5274 30.1137H42.5327L41.6441 28.7201L41.1947 29.1998V30.1137H40.2859Z" fill="#202020"/>
</g>
</g>
</svg>
