<svg width="24" height="25" viewBox="0 0 24 25" fill="none" xmlns="http://www.w3.org/2000/svg">
<g id="tabler:wash-temperature-1">
<g id="Group">
<path id="Vector" d="M3 6.5L4.721 16.829C4.79888 17.296 5.0399 17.7202 5.40118 18.0262C5.76245 18.3322 6.22056 18.5001 6.694 18.5H17.306C17.7794 18.5001 18.2375 18.3322 18.5988 18.0262C18.9601 17.7202 19.2011 17.296 19.279 16.829L21 6.5" stroke="#202020" stroke-width="2" stroke-linecap="round" stroke-linejoin="round"/>
<path id="Vector_2" d="M3.48599 9.46495C3.65399 9.48561 3.82533 9.49728 3.99999 9.49995C4.78999 9.50895 5.53899 9.32195 5.99999 8.99995C6.46099 8.67995 7.20999 8.49295 7.99999 8.49995C8.78999 8.49295 9.53899 8.67995 9.99999 8.99995C10.461 9.32195 11.21 9.50895 12 9.49995C12.79 9.50895 13.539 9.32195 14 8.99995C14.461 8.67995 15.21 8.49295 16 8.49995C16.79 8.49295 17.539 8.67995 18 8.99995C18.461 9.32195 19.21 9.50895 20 9.49995C20.1707 9.49861 20.3383 9.48728 20.503 9.46595M12 13.4999H12.01" stroke="#202020" stroke-width="2" stroke-linecap="round" stroke-linejoin="round"/>
</g>
</g>
</svg>
