<svg width="32" height="32" viewBox="0 0 32 32" fill="none" xmlns="http://www.w3.org/2000/svg">
<g id="Group">
<path id="Vector" d="M31.2243 16.1128C31.2243 24.7285 24.2402 31.7126 15.6245 31.7126C7.00878 31.7126 0.0246582 24.7285 0.0246582 16.1128C0.0246582 7.49706 7.00878 0.512939 15.6245 0.512939C24.2402 0.512939 31.2243 7.49706 31.2243 16.1128Z" fill="white"/>
<path id="Vector_2" d="M18.7165 20.132V12.4027C18.7165 12.4027 19.5881 13.8553 22.7382 13.944C22.9062 13.9487 23.0452 13.8106 23.0452 13.6425V11.4582C23.0452 11.2956 22.9157 11.1669 22.7531 11.1575C20.3097 11.0193 19.1492 9.14505 19.0353 7.4263C19.0251 7.26691 18.8854 7.146 18.726 7.146H16.2346C16.0689 7.146 15.9339 7.28026 15.9339 7.44672V19.7339C15.9339 21.0687 14.9139 22.23 13.5807 22.2928C12.0567 22.365 10.8177 21.0569 11.0061 19.5109C11.1396 18.4187 12.0159 17.5244 13.1057 17.3729C13.3224 17.3431 13.5336 17.3407 13.7385 17.3635C13.9199 17.3839 14.0793 17.2488 14.0793 17.0667V14.8768C14.0793 14.7214 13.9607 14.5863 13.8053 14.5769C13.4928 14.5565 13.1724 14.5635 12.8474 14.6004C10.444 14.8729 8.50457 16.8178 8.2384 19.222C7.88743 22.3933 10.3607 25.0778 13.4614 25.0778C16.3642 25.0778 18.7173 22.7246 18.7173 19.8218" fill="#202020"/>
</g>
</svg>
