<svg width="33" height="32" viewBox="0 0 33 32" fill="none" xmlns="http://www.w3.org/2000/svg">
<g id="Group">
<path id="Vector" d="M32.0246 16.1128C32.0246 24.7285 25.0405 31.7126 16.4248 31.7126C7.80908 31.7126 0.824951 24.7285 0.824951 16.1128C0.824951 7.49706 7.80908 0.512939 16.4248 0.512939C25.0405 0.512939 32.0246 7.49706 32.0246 16.1128Z" fill="white"/>
<path id="Vector_2" d="M23.147 9.50244H9.70167C8.37316 9.50244 7.2959 10.5797 7.2959 11.9074V20.3166C7.2959 21.6452 8.37316 22.7216 9.70167 22.7216H23.147C24.4747 22.7216 25.552 21.6452 25.552 20.3166V11.9074C25.552 10.5797 24.4747 9.50244 23.147 9.50244ZM18.5843 16.6931L14.8453 18.5618C14.4135 18.7777 13.9063 18.4644 13.9063 17.9823V14.2449C13.9063 13.7628 14.4143 13.4495 14.8453 13.6646L18.5843 15.5334C19.0617 15.7721 19.0617 16.4544 18.5843 16.6931Z" fill="#202020"/>
</g>
</svg>
