<svg width="92" height="72" viewBox="0 0 92 72" fill="none" xmlns="http://www.w3.org/2000/svg">
<g id="Back">
<path id="Vector" d="M18.657 25.7471C18.1766 25.7471 17.7871 26.1366 17.7871 26.6169V41.6645L17.9948 41.4243C18.2285 41.1451 18.6115 41.0478 18.9556 41.1711C19.2996 41.2945 19.5269 41.619 19.5269 41.9826V26.6169C19.5269 26.1366 19.1374 25.7471 18.657 25.7471Z" fill="#202020"/>
<path id="Vector_2" d="M18.9556 41.1717C18.6115 41.0484 18.2285 41.1458 17.9948 41.4249L17.7871 41.6651V41.9832C17.7871 42.4635 18.1766 42.853 18.657 42.853C19.1374 42.853 19.5269 42.4635 19.5269 41.9832C19.5269 41.6196 19.2996 41.2951 18.9556 41.1717Z" fill="#202020"/>
<g id="Group 30">
<path id="Vector_3" d="M33.6406 2.10512C34.9389 5.50672 40.6905 8.21372 45.4229 8.21372C50.1553 8.21372 56.1405 5.51971 57.5946 2.2025C53.8685 3.39695 50.0514 3.81891 46.5394 3.81891C40.8333 3.81891 35.9581 2.72183 33.6406 2.09863V2.10512Z" fill="white"/>
<path id="Vector_4" d="M17.7853 41.6649V26.6174C17.7853 26.137 18.1748 25.7475 18.6551 25.7475C19.1355 25.7475 19.525 26.137 19.525 26.6174V70.2539H71.7629V41.9895C71.7629 41.8921 71.7824 41.7947 71.8149 41.7038V26.6174C71.8149 26.137 72.2044 25.7475 72.6847 25.7475C73.1651 25.7475 73.5546 26.137 73.5546 26.6174V41.7298L74.2687 42.5737C84.1359 35.3745 87.7842 32.7714 89.1799 31.8171C88.362 30.5318 85.7459 26.6368 77.6638 15.0428C74.022 9.81709 68.9651 5.81826 63.0382 3.48129L59.4808 2.0791C58.2604 6.53883 51.2235 9.95991 45.4265 9.95991C39.6295 9.95991 32.9626 6.59726 31.8006 2.08559L28.2627 3.48129C22.3294 5.82476 17.2659 9.82358 13.6177 15.0558C5.53561 26.6433 2.9195 30.5383 2.10156 31.8236C3.50375 32.7779 7.14554 35.3875 17.0128 42.5802L17.7853 41.6714V41.6649Z" fill="white"/>
<path id="Vector_5" d="M58.6191 0.0337789C58.6646 0.0272873 58.71 0.0143041 58.7555 0.0078125C58.71 0.0078125 58.6646 0.0207957 58.6191 0.0337789Z" fill="white"/>
<path id="Vector_6" d="M0.583046 32.8691C1.37502 33.3495 10.5931 40.0358 16.6433 44.4501C16.9938 44.7098 17.4872 44.6578 17.7858 44.3463V71.1306C17.7858 71.611 18.1753 72.0005 18.6557 72.0005H72.6333C73.1137 72.0005 73.5032 71.611 73.5032 71.1306V44.3527C73.8018 44.6643 74.2887 44.7098 74.6392 44.4566C80.6894 40.0423 89.9075 33.3495 90.6995 32.8756C90.9007 32.7782 91.063 32.6094 91.1409 32.3952C91.3616 31.8045 91.4006 31.7136 79.086 14.0564C75.2495 8.55156 69.9199 4.33851 63.6749 1.8717L59.1178 0.0670385C59.1178 0.0670385 59.0724 0.0670385 59.0529 0.0605469C59.2996 0.138446 59.5073 0.307228 59.6047 0.566892C59.7735 1.01481 59.5528 1.51467 59.1048 1.68994C58.605 1.88469 58.0986 2.05996 57.5923 2.22225C56.1382 5.53297 50.1724 8.23347 45.4205 8.23347C40.6687 8.23347 34.9366 5.52647 33.6383 2.12488C32.8268 1.90416 32.3205 1.74187 32.2231 1.70941C31.7687 1.56011 31.522 1.07324 31.6713 0.612333C31.7622 0.326703 31.9959 0.138446 32.2621 0.0670385C32.2361 0.0735301 32.2036 0.0670385 32.1777 0.0800217L27.6271 1.8782C21.3757 4.345 16.0395 8.56454 12.1965 14.0759C-0.111555 31.7266 -0.0790957 31.8175 0.14811 32.4082C0.22601 32.6224 0.388305 32.7912 0.589544 32.8886L0.583046 32.8691ZM13.6182 15.0432C17.2665 9.81093 22.3299 5.81211 28.2632 3.46864L31.8012 2.07294C32.9632 6.5911 39.682 9.94726 45.427 9.94726C51.1721 9.94726 58.2609 6.52618 59.4813 2.06645L63.0388 3.46864C68.9656 5.81211 74.0225 9.81093 77.6643 15.0302C85.7464 26.6242 88.3625 30.5191 89.1804 31.8045C87.7782 32.7587 84.1365 35.3619 74.2692 42.5611L73.5552 41.7172V41.9703C73.5552 42.4507 73.1656 42.8402 72.6853 42.8402C72.2049 42.8402 71.8154 42.4507 71.8154 41.9703V41.6912C71.7829 41.7821 71.7635 41.873 71.7635 41.9768V70.2412H19.5255V41.9703C19.5255 42.4507 19.1361 42.8402 18.6557 42.8402C18.1753 42.8402 17.7858 42.4507 17.7858 41.9703V41.6522L17.0133 42.5611C7.14606 35.3619 3.49778 32.7587 2.10209 31.8045C2.92003 30.5191 5.53614 26.6307 13.6182 15.0367V15.0432Z" fill="#202020"/>
<path id="Vector_7" d="M32.5156 0.0078125C32.5611 0.0078125 32.613 0.0143041 32.6584 0.0272873C32.6065 0.0207957 32.5676 0.0143041 32.5156 0.0078125Z" fill="white"/>
<path id="Vector_8" d="M33.3586 0.832302C33.3716 1.26075 33.4819 1.68919 33.6377 2.09816C35.9488 2.72136 40.8304 3.81844 46.5366 3.81844C50.0485 3.81844 53.8721 3.40298 57.5918 2.20203C57.7865 1.75411 57.9098 1.29321 57.9228 0.832302C57.9358 0.553164 58.0786 0.293499 58.3123 0.137701C58.4032 0.0792766 58.5071 0.0533102 58.6109 0.0273438C58.5655 0.0338354 58.5201 0.0273438 58.4746 0.0533102C46.7703 4.5455 32.8977 0.0857682 32.7549 0.040327C32.7159 0.0273438 32.6835 0.040327 32.6445 0.0273438C32.7549 0.0468186 32.8588 0.072785 32.9561 0.137701C33.1898 0.293499 33.3391 0.553164 33.3456 0.832302H33.3586Z" fill="#202020"/>
<path id="Vector_9" d="M58.7539 0.00845884C58.8513 0.00845884 58.9487 0.021442 59.046 0.0474084C58.9487 0.0149504 58.8513 0.00196724 58.7539 0.00845884Z" fill="white"/>
<path id="Vector_10" d="M32.2617 0.0468076C32.3461 0.0208412 32.4305 0.00785799 32.5149 0.0143496C32.4305 0.0143496 32.3461 0.0273328 32.2617 0.0468076Z" fill="white"/>
<path id="Vector_11" d="M31.6725 0.592401C31.5232 1.04681 31.7699 1.54017 32.2243 1.68948C32.3281 1.72194 32.828 1.88423 33.6394 2.10494C33.4836 1.68948 33.3798 1.26753 33.3603 0.839082C33.3473 0.559943 33.2045 0.300279 32.9708 0.14448C32.8734 0.0795645 32.7696 0.0535981 32.6592 0.0341232C32.6138 0.0276316 32.5618 0.02114 32.5164 0.0146484C32.432 0.0146484 32.3476 0.0276316 32.2632 0.0471064C31.9971 0.125006 31.7634 0.313262 31.6725 0.592401Z" fill="#202020"/>
<path id="Vector_12" d="M57.9248 0.832548C57.9054 1.29994 57.7885 1.75436 57.5938 2.20228C58.1001 2.03999 58.6065 1.86471 59.1063 1.66996C59.5542 1.50118 59.7749 0.994838 59.6062 0.546917C59.5088 0.287253 59.2945 0.118472 59.0544 0.0405725C58.957 0.0081145 58.8596 -0.0048687 58.7623 0.0016229C58.7168 0.0016229 58.6714 0.0146061 58.6259 0.0275893C58.5221 0.0470641 58.4182 0.0730305 58.3273 0.137947C58.0936 0.293745 57.9443 0.553409 57.9378 0.832548H57.9248Z" fill="#202020"/>
<path id="Vector_13" d="M72.6785 25.7471C72.1981 25.7471 71.8086 26.1366 71.8086 26.6169V41.7034C71.893 41.4632 72.0747 41.262 72.3279 41.1711C72.672 41.0478 73.055 41.1451 73.2887 41.4243L73.5483 41.7294V26.6169C73.5483 26.1366 73.1588 25.7471 72.6785 25.7471Z" fill="#202020"/>
<path id="Vector_14" d="M72.3279 41.1717C72.0812 41.2626 71.893 41.4638 71.8086 41.704V41.9832C71.8086 42.4635 72.1981 42.853 72.6785 42.853C73.1588 42.853 73.5483 42.4635 73.5483 41.9832V41.73L73.2887 41.4249C73.055 41.1458 72.672 41.0484 72.3279 41.1717Z" fill="#202020"/>
<path id="Vector_15" d="M26.1406 41.9729V30.001H30.4393C31.816 30.001 32.8549 30.268 33.5822 30.7879C34.3095 31.3078 34.6731 32.1368 34.6731 33.2609C34.6731 33.7527 34.5822 34.1883 34.3874 34.5537C34.2056 34.919 33.9328 35.2141 33.5692 35.4249C33.2056 35.6356 32.777 35.7621 32.2705 35.8183V35.7902C33.1926 35.8605 33.9069 36.1415 34.4004 36.6614C34.8939 37.1813 35.1406 37.8558 35.1406 38.6989C35.1406 39.8089 34.777 40.638 34.0627 41.186C33.3354 41.734 32.3095 42.001 30.9718 42.001H26.1406V41.9729ZM28.5172 34.9612H30.3874C30.9718 34.9612 31.4393 34.8347 31.777 34.5958C32.1276 34.3429 32.2965 33.9916 32.2965 33.5279C32.2965 33.0361 32.1277 32.6708 31.79 32.4459C31.4523 32.2211 30.9848 32.0947 30.3744 32.0947H28.5043V34.9612H28.5172ZM28.5172 39.8792H30.8679C31.4394 39.8792 31.8939 39.7527 32.2445 39.4998C32.5952 39.2469 32.764 38.8675 32.764 38.3616C32.764 37.8558 32.5952 37.4764 32.2445 37.2094C31.8939 36.9424 31.4394 36.816 30.8679 36.816H28.5172V39.8792Z" fill="#202020"/>
<path id="Vector_16" d="M40.2507 42.001C39.3425 42.001 38.5856 41.7778 38.0076 41.3165C37.4296 40.8551 37.1406 40.2153 37.1406 39.3968C37.1406 38.5784 37.3883 37.8938 37.87 37.4474C38.3654 36.9861 39.081 36.6587 40.0443 36.4355L42.9067 35.8254C42.9067 35.2004 42.7828 34.7391 42.5214 34.4266C42.2599 34.1141 41.8883 33.9504 41.4067 33.9504C40.925 33.9504 40.5672 34.0694 40.3057 34.2926C40.0443 34.5307 39.8654 34.873 39.7966 35.3194L37.3058 35.2004C37.4709 34.1587 37.9113 33.3551 38.6131 32.8194C39.3287 32.2837 40.2507 32.001 41.4067 32.001C42.7278 32.001 43.7186 32.3432 44.3929 33.0129C45.0534 33.6974 45.3975 34.6795 45.3975 35.9891V39.2629C45.3975 39.5307 45.4388 39.7242 45.5213 39.8135C45.6039 39.9028 45.7277 39.9474 45.8929 39.9474H46.1406V41.7926C46.0581 41.8224 45.9342 41.8373 45.769 41.867C45.6039 41.8968 45.425 41.8968 45.2599 41.8968C44.9021 41.8968 44.5856 41.8373 44.2828 41.7034C43.9801 41.5694 43.7324 41.3462 43.5535 41.0337C43.3746 40.7212 43.2782 40.2748 43.2782 39.6796L43.4984 39.8581C43.3883 40.2897 43.1957 40.6617 42.9067 40.9891C42.6177 41.3165 42.2599 41.5545 41.8195 41.7331C41.3791 41.9117 40.8562 42.001 40.2782 42.001H40.2507ZM40.8425 40.1557C41.2553 40.1557 41.6131 40.0665 41.9158 39.9028C42.2186 39.7242 42.4663 39.4712 42.6452 39.1438C42.8241 38.8165 42.9067 38.4147 42.9067 37.9682V37.5069L40.8975 37.9682C40.4984 38.0575 40.1956 38.1915 40.003 38.3849C39.7966 38.5784 39.7002 38.8313 39.7002 39.1438C39.7002 39.4563 39.7966 39.7093 40.003 39.8879C40.1956 40.0665 40.4846 40.1557 40.8562 40.1557H40.8425Z" fill="#202020"/>
<path id="Vector_17" d="M51.2341 42.001C50.206 42.001 49.3182 41.7926 48.5549 41.3909C47.7917 40.9742 47.1998 40.3938 46.7792 39.6498C46.3587 38.9057 46.1406 38.0129 46.1406 37.001C46.1406 35.9891 46.3587 35.1111 46.7792 34.367C47.1998 33.623 47.7917 33.0426 48.5549 32.626C49.3182 32.2093 50.206 32.001 51.2341 32.001C52.1219 32.001 52.9163 32.1498 53.6173 32.4474C54.3182 32.745 54.8945 33.1766 55.3307 33.7272C55.7668 34.2778 56.0316 34.9623 56.1406 35.751L53.2434 35.87C53.15 35.2748 52.9319 34.8284 52.5736 34.5159C52.2154 34.2182 51.7793 34.0545 51.2341 34.0545C50.5331 34.0545 49.988 34.3075 49.6141 34.8284C49.2403 35.3492 49.0378 36.0635 49.0378 36.9861C49.0378 37.9087 49.2247 38.6379 49.6141 39.1587C50.0035 39.6795 50.5487 39.9325 51.2341 39.9325C51.7637 39.9325 52.2154 39.7688 52.5736 39.4563C52.9319 39.1438 53.15 38.6676 53.2279 38.0129L56.125 38.117C56.0316 38.9057 55.7824 39.5903 55.3462 40.1557C54.9101 40.7361 54.3493 41.1825 53.6484 41.495C52.9475 41.8075 52.1375 41.9712 51.2341 41.9712V42.001Z" fill="#202020"/>
<path id="Vector_18" d="M57.1406 42.001V30.001H59.3836V36.6629L62.3618 32.9446H65.0534L61.9381 36.677L65.1406 42.001H62.6858L60.4926 38.1136L59.3836 39.4517V42.001H57.1406Z" fill="#202020"/>
</g>
</g>
</svg>
