<svg width="36" height="44" viewBox="0 0 36 44" fill="none" xmlns="http://www.w3.org/2000/svg">
<g id="Layer_1" clip-path="url(#clip0_1_357)">
<path id="Vector" d="M29.39 17.3373H34.7507C35.1487 17.3373 35.8035 18.1275 35.7418 18.5578L35.7354 38.6653L35.4883 39.294L31.1395 43.6985C30.943 43.8673 30.6881 43.9757 30.4277 43.9997H5.75989C5.51049 43.9983 5.27352 43.9056 5.07152 43.7672C3.97868 42.6349 2.82234 41.5611 1.73411 40.4245C1.27718 39.9476 0.477918 39.2742 0.406596 38.6187L0.399694 18.5578C0.338034 18.127 0.992357 17.3373 1.39084 17.3373H6.7515L6.74966 15.329C6.75242 15.2202 6.79613 15.1192 6.79935 15.0099C6.97467 9.34472 7.82133 3.37793 13.655 0.941124C16.784 -0.366072 19.757 -0.308876 22.8413 1.09288C29.0767 3.92636 29.3937 11.347 29.39 17.3373ZM23.5002 3.91437C23.2177 3.26769 22.8652 2.15699 22.2132 1.81474C20.5871 0.961419 18.0963 0.737711 16.3137 1.06935C15.733 1.17729 14.2307 1.5712 13.776 1.89269C13.2726 2.24924 12.8981 3.36179 12.6409 3.91391C15.6019 2.65376 18.9374 2.46788 22.0278 3.38393C22.5279 3.53199 23.0143 3.72756 23.5002 3.91391V3.91437ZM10.4782 17.3373C10.3033 14.7765 10.2265 12.2165 10.4782 9.65792C10.7069 7.33734 11.1868 5.00063 12.0878 2.85395C9.75715 4.49694 8.65603 7.31566 8.14527 10.0408C7.85538 11.5878 7.75737 13.163 7.66856 14.7289L7.6704 17.3369H10.4773L10.4782 17.3373ZM28.4698 17.3373C28.4918 15.1902 28.4504 13.0352 28.1398 10.9107C27.7036 7.92544 26.6453 4.70681 24.0989 2.90007C24.2958 3.4748 24.5328 4.0343 24.7086 4.61779C25.367 6.80275 25.6399 9.08873 25.8028 11.3623L25.8492 14.2262L25.6629 17.3373H28.4698ZM24.7426 17.3373C25.1167 13.2682 24.9938 9.0938 23.9061 5.14546C20.6469 3.3724 16.4623 3.27 13.0568 4.72341C12.899 4.79076 12.2925 5.04076 12.2373 5.14731C11.5687 7.49832 11.3272 9.94113 11.213 12.377V14.4102L11.3989 17.3373H24.7431H24.7426ZM1.32136 18.4674V20.9813H30.4254C30.7396 20.9813 30.8837 21.5163 30.6642 21.7511C30.6379 21.7792 30.4005 21.9038 30.3793 21.9038H1.32136V23.5643H6.03782C6.28123 23.5643 6.46943 24.1289 6.22325 24.3498C6.19012 24.3798 5.97064 24.4868 5.94579 24.4868H1.32136V38.6704C2.68706 40.0754 4.0454 41.5122 5.46494 42.8669C5.56893 42.9665 5.5266 43.0435 5.71802 43.0712C13.9831 43.0518 22.2652 43.1307 30.5197 43.0315L34.7944 38.6911L34.7857 18.4088C34.7291 18.2866 34.5179 18.2096 34.3849 18.211H1.75619C1.61493 18.1916 1.35127 18.335 1.32136 18.467V18.4674Z" fill="#202020"/>
<path id="Vector_2" d="M1.32104 18.4677C1.35095 18.3358 1.61462 18.1924 1.75588 18.2117H34.3846C34.5175 18.2103 34.7288 18.2874 34.7854 18.4096L34.7941 38.6919L30.5194 43.0323C22.2649 43.131 13.9828 43.0526 5.7177 43.072C5.52628 43.0443 5.56862 42.9668 5.46463 42.8676C4.04463 41.5129 2.68675 40.0761 1.32104 38.6711V24.4876H5.94547C5.97032 24.4876 6.18981 24.3805 6.22294 24.3506C6.46912 24.1292 6.28092 23.5651 6.0375 23.5651H1.32104V21.9045H30.379C30.4002 21.9045 30.6376 21.7805 30.6639 21.7519C30.8833 21.5171 30.7393 20.982 30.425 20.982H1.32104V18.4682V18.4677Z" fill="white"/>
<path id="Vector_3" d="M10.4779 17.3377H7.67103L7.66919 14.7297C7.75754 13.1638 7.85601 11.5881 8.1459 10.0415C8.65619 7.31599 9.75777 4.49726 12.0884 2.85474C11.1874 5.00142 10.7075 7.33813 10.4788 9.6587C10.2267 12.2173 10.304 14.7772 10.4788 17.3381L10.4779 17.3377Z" fill="white"/>
<path id="Vector_4" d="M28.4694 17.3377H25.6625L25.8489 14.2265L25.8024 11.3626C25.64 9.08904 25.3671 6.80261 24.7082 4.6181C24.5324 4.03462 24.2955 3.47511 24.0985 2.90039C26.6449 4.70713 27.7033 7.92576 28.1395 10.911C28.4501 13.0355 28.4915 15.191 28.4694 17.3377Z" fill="white"/>
<path id="Vector_5" d="M23.5 3.91464C23.0141 3.72829 22.5277 3.53318 22.0275 3.38465C18.9372 2.4686 15.6016 2.65403 12.6406 3.91464C12.8974 3.36251 13.2719 2.24951 13.7758 1.89342C14.2304 1.57192 15.7328 1.17801 16.3135 1.07008C18.0961 0.738436 20.5868 0.962145 22.213 1.81547C22.865 2.15772 23.2179 3.26796 23.5 3.9151V3.91464Z" fill="white"/>
</g>
<defs>
<clipPath id="clip0_1_357">
<rect width="35.3504" height="44" fill="white" transform="translate(0.395264)"/>
</clipPath>
</defs>
</svg>
