<svg width="204" height="24" viewBox="0 0 204 24" fill="none" xmlns="http://www.w3.org/2000/svg">
<g id="Layer_1" clip-path="url(#clip0_1_374)">
<path id="Vector" d="M11.9125 17.3715C12.0447 17.1706 12.1836 16.9762 12.3424 16.8013C12.5011 16.6263 12.6731 16.4644 12.8649 16.3283C13.0567 16.1922 13.2618 16.0821 13.4801 16.0043C13.6983 15.9266 13.9431 15.8877 14.201 15.8877C14.5185 15.8877 14.8228 15.946 15.1072 16.0562C15.3916 16.1663 15.6363 16.3283 15.8414 16.5292C16.0464 16.73 16.2118 16.9762 16.3308 17.2549C16.4499 17.54 16.5094 17.8574 16.5094 18.2073C16.5094 18.4471 16.4697 18.6739 16.3838 18.8877C16.2978 19.1015 16.2118 19.3024 16.106 19.4968C15.7885 20.1188 15.3916 20.676 14.9154 21.1749C14.4391 21.6739 13.8968 22.095 13.2816 22.4449C12.6665 22.7948 11.9786 23.067 11.2246 23.2549C10.4705 23.4428 9.65035 23.54 8.77725 23.54C7.36839 23.54 6.11828 23.3456 5.02691 22.9568C3.94216 22.568 3.02276 22.0108 2.28195 21.2851C1.54115 20.5594 0.972311 19.6847 0.588678 18.6479C0.205046 17.6177 0.0132294 16.4579 0.0132294 15.1749C0.0132294 13.892 0.205046 12.6739 0.588678 11.5983C0.972311 10.5227 1.54115 9.60259 2.29518 8.83153C3.04922 8.06047 3.97523 7.46436 5.07321 7.04319C6.1712 6.62203 7.44115 6.4082 8.86985 6.4082C9.62389 6.4082 10.3449 6.473 11.0261 6.60907C11.7074 6.74514 12.349 6.946 12.9443 7.22462C13.5396 7.50324 14.082 7.84665 14.578 8.25486C15.0675 8.66306 15.4974 9.14902 15.8546 9.71274C15.9737 9.90712 16.0795 10.1145 16.1589 10.3412C16.2382 10.568 16.2779 10.7948 16.2779 11.0346C16.2779 11.3585 16.2184 11.6566 16.106 11.9287C15.9935 12.2073 15.8282 12.4471 15.6231 12.6479C15.4181 12.8488 15.1667 13.0043 14.8823 13.1209C14.5913 13.2311 14.2738 13.2894 13.9232 13.2894C13.4602 13.2894 13.0171 13.1793 12.607 12.9525C12.1969 12.7257 11.8529 12.4082 11.5884 12C11.4693 11.8121 11.3105 11.6371 11.132 11.4687C10.9468 11.3002 10.7417 11.1512 10.5102 11.0216C10.2787 10.892 10.0274 10.7883 9.76279 10.7106C9.49822 10.6328 9.2138 10.6004 8.92938 10.6004C8.27456 10.6004 7.72557 10.73 7.29564 10.9827C6.8657 11.2354 6.51514 11.5724 6.25718 12C5.99922 12.4212 5.81402 12.9071 5.7148 13.4579C5.60897 14.0086 5.56267 14.5788 5.56267 15.1814C5.56267 15.7127 5.6222 16.2246 5.73465 16.73C5.84709 17.2289 6.03229 17.676 6.29025 18.0648C6.54821 18.4536 6.87893 18.7646 7.28902 18.9978C7.69911 19.2311 8.2018 19.3477 8.79709 19.3477C9.16088 19.3477 9.50483 19.2959 9.81571 19.1857C10.1266 19.0756 10.4176 18.933 10.6756 18.7516C10.9335 18.5702 11.1716 18.3628 11.3767 18.1231C11.5884 17.8834 11.7736 17.6307 11.9455 17.3715H11.9125Z" fill="black"/>
<path id="Vector_2" d="M23.858 16.0951C23.858 17.1253 24.063 17.9158 24.4731 18.4601C24.8832 19.0044 25.5711 19.2765 26.5302 19.2765C26.9204 19.2765 27.3041 19.1923 27.6745 19.0173C28.0515 18.8424 28.3822 18.6026 28.6732 18.2916C28.9643 17.9806 29.2024 17.5983 29.381 17.1512C29.5596 16.7041 29.6522 16.2117 29.6522 15.6674V9.17499C29.6522 8.71494 29.7183 8.31321 29.8572 7.9698C29.9961 7.63287 30.1879 7.34777 30.4327 7.12099C30.6774 6.89421 30.975 6.73222 31.3124 6.62207C31.6497 6.51192 32.0267 6.46008 32.4368 6.46008C32.8469 6.46008 33.2239 6.51192 33.5612 6.62207C33.8986 6.73222 34.1896 6.89421 34.4343 7.12099C34.6791 7.34777 34.8709 7.62639 35.0098 7.9698C35.1487 8.30674 35.2148 8.71494 35.2148 9.17499V20.8121C35.2148 21.6609 34.9966 22.3089 34.5666 22.743C34.1367 23.1771 33.4554 23.3974 32.536 23.3974C31.7225 23.3974 31.1007 23.1836 30.6774 22.756C30.2541 22.3283 30.0424 21.6933 30.0424 20.8381C29.6522 21.324 29.2421 21.7322 28.7989 22.0562C28.3624 22.3802 27.8927 22.6458 27.4033 22.8402C26.9138 23.0411 26.3979 23.1771 25.8621 23.2679C25.3264 23.3521 24.7642 23.3974 24.1887 23.3974C23.137 23.3974 22.2375 23.2484 21.49 22.9504C20.7426 22.6523 20.1341 22.2376 19.6579 21.7193C19.1882 21.1944 18.8377 20.5789 18.6194 19.8726C18.4011 19.1663 18.2887 18.4018 18.2887 17.5789V9.17499C18.2887 8.71494 18.3548 8.31321 18.4937 7.9698C18.6326 7.63287 18.8245 7.34777 19.0692 7.12099C19.3139 6.89421 19.605 6.73222 19.9423 6.62207C20.2796 6.51192 20.6566 6.46008 21.0667 6.46008C21.4768 6.46008 21.8538 6.51192 22.1912 6.62207C22.5285 6.73222 22.8195 6.89421 23.0643 7.12099C23.309 7.34777 23.5008 7.62639 23.6331 7.9698C23.772 8.30674 23.8381 8.71494 23.8381 9.17499V16.0886L23.858 16.0951Z" fill="black"/>
<path id="Vector_3" d="M47.3522 18.5508C47.3522 18.4341 47.3257 18.2981 47.2728 18.1555C47.2199 18.013 47.1075 17.8704 46.9421 17.7214C46.7767 17.5789 46.532 17.4363 46.2211 17.3002C45.9103 17.1642 45.4936 17.0411 44.9842 16.9309L43.0727 16.5162C41.9946 16.283 41.095 16.0043 40.3608 15.6739C39.6266 15.3434 39.0379 14.9741 38.5948 14.5659C38.1516 14.1577 37.8275 13.7041 37.6357 13.2117C37.4439 12.7192 37.3447 12.1944 37.3447 11.6307C37.3447 11.2354 37.3976 10.8337 37.51 10.419C37.6225 10.0043 37.8011 9.60909 38.0458 9.23328C38.2905 8.85747 38.6212 8.49462 39.0247 8.15769C39.4282 7.82075 39.9243 7.52918 40.5129 7.27648C41.1016 7.02378 41.7895 6.82939 42.5766 6.68685C43.3637 6.5443 44.2699 6.47302 45.2951 6.47302C45.897 6.47302 46.4923 6.5119 47.081 6.57669C47.6697 6.64797 48.2253 6.75164 48.7544 6.88123C49.2836 7.01082 49.773 7.17929 50.2162 7.37367C50.6594 7.57453 51.0496 7.79484 51.3803 8.04754C51.711 8.30024 51.9624 8.57885 52.1542 8.88339C52.3394 9.18793 52.432 9.52486 52.432 9.88123C52.432 10.1728 52.3791 10.432 52.2799 10.6652C52.1807 10.8985 52.0484 11.0929 51.8764 11.2614C51.7044 11.4233 51.506 11.5529 51.2811 11.6501C51.0562 11.7408 50.8247 11.7927 50.58 11.7927C50.289 11.7927 49.9979 11.7538 49.7069 11.6825C49.4159 11.6048 49.1381 11.5011 48.8867 11.3586C48.6023 11.203 48.298 11.0605 47.9739 10.9244C47.6498 10.7948 47.3191 10.6847 46.9818 10.594C46.6444 10.5033 46.3071 10.432 45.9632 10.3866C45.6192 10.3348 45.2885 10.3154 44.9776 10.3154C44.6668 10.3154 44.3956 10.3348 44.131 10.3672C43.8664 10.3996 43.6283 10.4579 43.4299 10.5292C43.2248 10.6069 43.0661 10.7041 42.947 10.8208C42.828 10.9374 42.7684 11.0864 42.7684 11.2549C42.7684 11.3974 42.7949 11.5335 42.8478 11.6696C42.9007 11.8056 43.0132 11.9352 43.1785 12.0648C43.3439 12.1944 43.582 12.324 43.8796 12.4406C44.1839 12.5573 44.5808 12.6739 45.0768 12.7905L47.802 13.3931C48.6354 13.581 49.3828 13.8078 50.0508 14.0799C50.7189 14.3521 51.2877 14.6825 51.7573 15.0583C52.227 15.4406 52.5841 15.8747 52.8355 16.3672C53.0802 16.8596 53.2059 17.4169 53.2059 18.0389C53.2059 18.4925 53.1464 18.946 53.0207 19.3931C52.895 19.8402 52.7032 20.2678 52.4386 20.6696C52.1741 21.0713 51.8235 21.4471 51.3869 21.7905C50.9504 22.1339 50.4212 22.432 49.7929 22.6847C49.1645 22.9374 48.4303 23.1382 47.5969 23.2808C46.7635 23.4233 45.811 23.4946 44.7395 23.4946C43.754 23.4946 42.8147 23.4169 41.9218 23.2614C41.0289 23.1059 40.2351 22.8726 39.5472 22.5681C38.8594 22.2635 38.317 21.8877 37.9135 21.4406C37.51 20.9935 37.305 20.4817 37.305 19.8985C37.305 19.6005 37.3645 19.3283 37.4769 19.0886C37.5894 18.8488 37.7415 18.648 37.9267 18.4795C38.1119 18.311 38.3302 18.1814 38.5749 18.0907C38.8197 18 39.071 17.9547 39.3422 17.9547C39.6597 17.9547 39.9772 18.013 40.2881 18.1296C40.5989 18.2462 40.8701 18.3758 41.1148 18.5249C41.3331 18.6609 41.6109 18.7905 41.935 18.9201C42.2591 19.0497 42.6031 19.1728 42.9602 19.2765C43.3174 19.3866 43.6746 19.4709 44.0384 19.5357C44.3956 19.6005 44.7197 19.6328 45.0107 19.6328C45.8243 19.6328 46.4196 19.5421 46.7966 19.3672C47.1736 19.1922 47.3588 18.9136 47.3588 18.5313L47.3522 18.5508Z" fill="black"/>
<path id="Vector_4" d="M55.726 4.39312C55.726 3.42768 55.9641 2.72141 56.4469 2.27433C56.9298 1.82725 57.611 1.60046 58.4974 1.60046C59.3837 1.60046 60.0584 1.82725 60.5412 2.27433C61.0241 2.72141 61.2688 3.42768 61.2688 4.39312V6.81645H63.1671C63.4251 6.81645 63.6566 6.86828 63.8616 6.96547C64.0667 7.06267 64.232 7.19226 64.3709 7.35424C64.5098 7.51623 64.609 7.70413 64.6818 7.92444C64.7479 8.14474 64.7876 8.378 64.7876 8.62422C64.7876 8.87044 64.7545 9.1037 64.6818 9.33048C64.6156 9.55727 64.5098 9.75165 64.3709 9.92012C64.232 10.0886 64.0667 10.2182 63.8616 10.3154C63.6566 10.4126 63.4317 10.4644 63.1671 10.4644H61.2688V18.1879C61.2688 18.5702 61.3746 18.8553 61.5863 19.0367C61.7979 19.2247 62.0691 19.3154 62.3866 19.3154C62.9224 19.3154 63.3655 19.3607 63.7161 19.445C64.0733 19.5292 64.3511 19.6588 64.5561 19.8272C64.7612 19.9957 64.9067 20.1966 64.9927 20.4363C65.0787 20.6761 65.1183 20.9482 65.1183 21.2527C65.1183 21.5249 65.0588 21.784 64.9464 22.0432C64.8339 22.3024 64.6223 22.5292 64.318 22.7301C64.0137 22.9309 63.5904 23.0864 63.0613 23.2095C62.5255 23.3262 61.8376 23.391 60.991 23.391C59.2977 23.391 57.9947 22.9763 57.0885 22.1469C56.1823 21.3175 55.726 20.067 55.726 18.3888V10.4644H54.6941C54.4362 10.4644 54.2046 10.419 53.9996 10.3154C53.7946 10.2182 53.6292 10.0886 53.4903 9.92012C53.3514 9.75165 53.2522 9.55727 53.1794 9.33048C53.1133 9.1037 53.0736 8.87044 53.0736 8.62422C53.0736 8.378 53.1067 8.14474 53.1794 7.92444C53.2456 7.70413 53.3514 7.51623 53.4903 7.35424C53.6292 7.19226 53.7946 7.06267 53.9996 6.96547C54.2046 6.86828 54.4295 6.81645 54.6941 6.81645H55.726V4.39312Z" fill="black"/>
<path id="Vector_5" d="M65.4623 15C65.4623 13.6717 65.6739 12.473 66.1039 11.4104C66.5338 10.3477 67.1423 9.44708 67.9294 8.70842C68.7165 7.96976 69.669 7.39956 70.7802 7.00432C71.8914 6.60907 73.1283 6.4082 74.5041 6.4082C75.8799 6.4082 77.1697 6.60907 78.3008 7.00432C79.4252 7.39956 80.3843 7.96976 81.1648 8.70842C81.9519 9.44708 82.5538 10.3477 82.9705 11.4104C83.3872 12.473 83.5989 13.6652 83.5989 15C83.5989 16.3348 83.3806 17.5464 82.9506 18.6091C82.5207 19.6717 81.9056 20.5659 81.1052 21.3045C80.3049 22.0432 79.3524 22.6069 78.2346 22.9957C77.1168 23.3909 75.8733 23.5853 74.4975 23.5853C73.1217 23.5853 71.8848 23.3909 70.7736 23.0022C69.6624 22.6134 68.7166 22.0562 67.9228 21.324C67.1291 20.5918 66.5272 19.6911 66.0973 18.6285C65.6673 17.5659 65.4557 16.3542 65.4557 15H65.4623ZM70.9919 15C70.9919 15.622 71.058 16.2246 71.1837 16.8078C71.316 17.3909 71.5144 17.9093 71.7988 18.3628C72.0766 18.8164 72.4404 19.1857 72.8836 19.4579C73.3268 19.73 73.8691 19.8661 74.5041 19.8661C75.1391 19.8661 75.6815 19.7365 76.1379 19.4708C76.5943 19.2117 76.9647 18.8553 77.2623 18.4147C77.5533 17.9676 77.7716 17.4557 77.9171 16.8596C78.056 16.27 78.1288 15.6479 78.1288 15C78.1288 14.352 78.0692 13.7754 77.9436 13.1922C77.8245 12.6091 77.6195 12.0907 77.3351 11.6371C77.0506 11.1836 76.6802 10.8143 76.2172 10.5421C75.7542 10.27 75.1854 10.1339 74.5041 10.1339C73.8956 10.1339 73.3664 10.27 72.9233 10.5421C72.4801 10.8143 72.1163 11.1771 71.8319 11.6371C71.5475 12.0907 71.3358 12.6091 71.1969 13.1922C71.058 13.7754 70.9919 14.378 70.9919 15Z" fill="black"/>
<path id="Vector_6" d="M106.703 14.1123C106.703 13.4903 106.65 12.9654 106.551 12.5248C106.445 12.0907 106.299 11.7279 106.108 11.4492C105.916 11.1706 105.684 10.9633 105.406 10.8402C105.129 10.7106 104.818 10.6523 104.474 10.6523C104.044 10.6523 103.654 10.743 103.29 10.9179C102.926 11.0929 102.609 11.3391 102.337 11.6631C102.066 11.987 101.854 12.3693 101.702 12.8229C101.55 13.2765 101.471 13.7754 101.471 14.3197V20.6631C101.471 21.149 101.405 21.5637 101.266 21.9136C101.127 22.2635 100.935 22.5486 100.69 22.7689C100.439 22.9957 100.148 23.1577 99.8106 23.2613C99.4733 23.365 99.0963 23.4168 98.6928 23.4168C98.2893 23.4168 97.9057 23.365 97.5684 23.2613C97.231 23.1577 96.9334 22.9892 96.6887 22.7689C96.4373 22.5421 96.2455 22.257 96.1132 21.9136C95.9743 21.5637 95.9082 21.149 95.9082 20.6631V14.1188C95.9082 13.4968 95.8553 12.9719 95.756 12.5313C95.6502 12.0972 95.5047 11.7343 95.3129 11.4557C95.1211 11.1771 94.8896 10.9698 94.6184 10.8466C94.3472 10.7171 94.0429 10.6587 93.699 10.6587C93.2624 10.6587 92.859 10.7495 92.4885 10.9244C92.1181 11.0993 91.8007 11.3456 91.5295 11.6695C91.2583 11.9935 91.0466 12.3758 90.8945 12.8294C90.7424 13.2829 90.663 13.7819 90.663 14.3261V20.6695C90.663 21.1555 90.5968 21.5702 90.4579 21.9201C90.319 22.27 90.1272 22.5551 89.8825 22.7754C89.6378 23.0022 89.3467 23.1641 89.0094 23.2678C88.6721 23.3715 88.295 23.4233 87.8916 23.4233C87.4881 23.4233 87.1111 23.3715 86.7671 23.2678C86.4232 23.1641 86.1255 22.9957 85.8808 22.7754C85.6295 22.5486 85.4376 22.2635 85.3054 21.9201C85.1665 21.5702 85.1003 21.1555 85.1003 20.6695V9.14902C85.1003 8.25486 85.3186 7.57451 85.7485 7.10799C86.1784 6.64794 86.8531 6.41468 87.7659 6.41468C88.5662 6.41468 89.1814 6.63498 89.6047 7.06911C90.028 7.50324 90.2397 8.23542 90.2397 9.24622C91.0532 8.25486 91.9594 7.52915 92.9582 7.08207C93.9503 6.63498 94.9954 6.4082 96.0735 6.4082C96.5365 6.4082 97.0128 6.44708 97.4956 6.53131C97.9785 6.61555 98.4282 6.76457 98.8516 6.99136C99.2749 7.21814 99.6585 7.52915 99.9958 7.9244C100.333 8.32613 100.598 8.83801 100.79 9.46652C101.22 8.87689 101.663 8.38444 102.126 7.9892C102.589 7.59395 103.065 7.27645 103.548 7.04967C104.031 6.82289 104.52 6.65442 105.01 6.55723C105.499 6.46004 105.975 6.41468 106.438 6.41468C107.477 6.41468 108.363 6.57019 109.097 6.88768C109.831 7.1987 110.433 7.63282 110.903 8.18358C111.373 8.73434 111.716 9.38228 111.941 10.1274C112.16 10.8726 112.272 11.6825 112.272 12.5508V20.6631C112.272 21.149 112.206 21.5637 112.067 21.9136C111.928 22.2635 111.736 22.5486 111.492 22.7689C111.24 22.9957 110.949 23.1577 110.605 23.2613C110.261 23.365 109.891 23.4168 109.481 23.4168C109.071 23.4168 108.7 23.365 108.356 23.2613C108.012 23.1577 107.721 22.9892 107.477 22.7689C107.232 22.5421 107.04 22.257 106.901 21.9136C106.762 21.5637 106.696 21.149 106.696 20.6631V14.1188L106.703 14.1123Z" fill="black"/>
<path id="Vector_7" d="M136.216 14.1123C136.216 13.4903 136.163 12.9654 136.064 12.5248C135.958 12.0907 135.813 11.7279 135.621 11.4492C135.429 11.1706 135.197 10.9633 134.92 10.8402C134.642 10.7106 134.331 10.6523 133.987 10.6523C133.557 10.6523 133.167 10.743 132.803 10.9179C132.439 11.0929 132.122 11.3391 131.851 11.6631C131.579 11.987 131.368 12.3693 131.216 12.8229C131.063 13.2765 130.984 13.7754 130.984 14.3197V20.6631C130.984 21.149 130.918 21.5637 130.779 21.9136C130.64 22.2635 130.448 22.5486 130.204 22.7689C129.952 22.9957 129.661 23.1577 129.324 23.2613C128.987 23.365 128.61 23.4168 128.206 23.4168C127.803 23.4168 127.419 23.365 127.082 23.2613C126.744 23.1577 126.447 22.9892 126.202 22.7689C125.951 22.5421 125.759 22.257 125.626 21.9136C125.488 21.5637 125.421 21.149 125.421 20.6631V14.1188C125.421 13.4968 125.369 12.9719 125.269 12.5313C125.163 12.0972 125.018 11.7343 124.826 11.4557C124.634 11.1771 124.403 10.9698 124.132 10.8466C123.86 10.7171 123.556 10.6587 123.212 10.6587C122.776 10.6587 122.372 10.7495 122.002 10.9244C121.631 11.0993 121.314 11.3456 121.043 11.6695C120.772 11.9935 120.56 12.3758 120.408 12.8294C120.256 13.2829 120.176 13.7819 120.176 14.3261V20.6695C120.176 21.1555 120.11 21.5702 119.971 21.9201C119.832 22.27 119.64 22.5551 119.402 22.7754C119.158 23.0022 118.867 23.1641 118.529 23.2678C118.192 23.3715 117.815 23.4233 117.411 23.4233C117.008 23.4233 116.631 23.3715 116.287 23.2678C115.943 23.1641 115.645 22.9957 115.401 22.7754C115.149 22.5486 114.958 22.2635 114.825 21.9201C114.686 21.5702 114.62 21.1555 114.62 20.6695V9.14902C114.62 8.25486 114.838 7.57451 115.268 7.10799C115.698 6.64794 116.373 6.41468 117.286 6.41468C118.086 6.41468 118.701 6.63498 119.125 7.06911C119.548 7.50324 119.76 8.23542 119.76 9.24622C120.573 8.25486 121.479 7.52915 122.478 7.08207C123.47 6.63498 124.515 6.4082 125.593 6.4082C126.056 6.4082 126.533 6.44708 127.015 6.53131C127.498 6.61555 127.948 6.76457 128.371 6.99136C128.795 7.21814 129.178 7.52915 129.516 7.9244C129.853 8.32613 130.118 8.83801 130.309 9.46652C130.739 8.87689 131.183 8.38444 131.646 7.9892C132.109 7.59395 132.585 7.27645 133.068 7.04967C133.55 6.82289 134.04 6.65442 134.529 6.55723C135.019 6.46004 135.495 6.41468 135.958 6.41468C136.997 6.41468 137.883 6.57019 138.617 6.88768C139.351 7.20518 139.953 7.63282 140.423 8.18358C140.892 8.73434 141.236 9.38228 141.461 10.1274C141.68 10.8726 141.792 11.6825 141.792 12.5508V20.6631C141.792 21.149 141.726 21.5637 141.587 21.9136C141.448 22.2635 141.256 22.5486 141.011 22.7689C140.76 22.9957 140.469 23.1577 140.125 23.2613C139.781 23.365 139.411 23.4168 139.001 23.4168C138.591 23.4168 138.22 23.365 137.876 23.2613C137.532 23.1577 137.241 22.9892 136.997 22.7689C136.752 22.5421 136.56 22.257 136.428 21.9136C136.289 21.5637 136.223 21.149 136.223 20.6631V14.1188L136.216 14.1123Z" stroke="black" stroke-miterlimit="10"/>
<path id="Vector_8" d="M144.352 9.29159C144.352 8.83154 144.418 8.42982 144.557 8.09288C144.696 7.75595 144.887 7.47733 145.132 7.25703C145.377 7.03673 145.668 6.87474 146.012 6.76459C146.356 6.65444 146.726 6.6026 147.136 6.6026C147.546 6.6026 147.91 6.65444 148.254 6.76459C148.592 6.87474 148.883 7.03673 149.127 7.25703C149.372 7.47733 149.564 7.75595 149.703 8.09288C149.842 8.42982 149.908 8.83154 149.908 9.29159V20.8056C149.908 21.2722 149.842 21.6674 149.703 22.0043C149.564 22.3413 149.372 22.6199 149.127 22.8402C148.883 23.0605 148.592 23.2225 148.254 23.3326C147.917 23.4428 147.54 23.4946 147.136 23.4946C146.733 23.4946 146.356 23.4428 146.012 23.3326C145.668 23.2225 145.377 23.0605 145.132 22.8402C144.887 22.6199 144.696 22.3413 144.557 22.0043C144.418 21.6674 144.352 21.2657 144.352 20.8056V9.29159ZM144.418 2.96761C144.418 2.60476 144.491 2.25487 144.63 1.9309C144.768 1.60692 144.96 1.3283 145.205 1.08856C145.45 0.855302 145.734 0.667397 146.065 0.524848C146.396 0.388779 146.746 0.317505 147.13 0.317505C147.513 0.317505 147.857 0.388779 148.188 0.524848C148.519 0.660917 148.803 0.848822 149.048 1.08856C149.293 1.3283 149.478 1.60692 149.623 1.9309C149.762 2.25487 149.835 2.60476 149.835 2.96761C149.835 3.33046 149.762 3.68684 149.623 4.01081C149.484 4.33478 149.293 4.6134 149.048 4.85314C148.803 5.09288 148.519 5.28079 148.188 5.41686C147.857 5.55293 147.5 5.6242 147.13 5.6242C146.759 5.6242 146.396 5.55293 146.065 5.41686C145.734 5.28079 145.45 5.09288 145.205 4.85314C144.96 4.6134 144.768 4.33478 144.63 4.01081C144.491 3.68684 144.418 3.34342 144.418 2.96761Z" stroke="black" stroke-miterlimit="10"/>
<path id="Vector_9" d="M163.242 7.63281C163.461 7.42547 163.672 7.25052 163.864 7.10797C164.056 6.96542 164.248 6.85527 164.426 6.77104C164.605 6.68681 164.783 6.62849 164.969 6.59609C165.154 6.5637 165.339 6.54426 165.544 6.54426C165.855 6.54426 166.159 6.60257 166.457 6.7192C166.748 6.83583 167.013 6.99782 167.237 7.20516C167.462 7.41251 167.641 7.66521 167.78 7.96326C167.919 8.26132 167.985 8.59177 167.985 8.95462C167.985 9.31747 167.886 9.70624 167.681 10.0691C167.476 10.4319 167.218 10.7559 166.9 11.041L163.904 13.73L167.442 18.9784C167.687 19.3412 167.872 19.717 168.011 20.1058C168.144 20.4881 168.203 20.8639 168.19 21.2203C168.177 21.5767 168.084 21.9201 167.912 22.2376C167.74 22.5551 167.469 22.8272 167.105 23.0605C166.841 23.2354 166.543 23.3585 166.212 23.4298C165.881 23.5011 165.544 23.5011 165.194 23.4298C164.843 23.352 164.492 23.1771 164.135 22.9049C163.778 22.6328 163.441 22.2311 163.11 21.7127L160.213 17.0734L158.017 19.0432V20.5788C158.017 21.0972 157.957 21.5313 157.832 21.8941C157.713 22.257 157.528 22.5551 157.296 22.7818C157.058 23.0086 156.767 23.1771 156.43 23.2808C156.086 23.3844 155.695 23.4363 155.252 23.4363C154.809 23.4363 154.419 23.3844 154.075 23.2808C153.731 23.1771 153.44 23.0086 153.202 22.7818C152.964 22.5551 152.785 22.257 152.666 21.8941C152.547 21.5313 152.481 21.0907 152.481 20.5788V3.19437C152.481 2.67601 152.54 2.24188 152.666 1.88551C152.785 1.52914 152.97 1.23108 153.202 0.997821C153.433 0.76456 153.731 0.596093 154.075 0.492422C154.419 0.38875 154.809 0.336914 155.252 0.336914C155.695 0.336914 156.086 0.38875 156.43 0.492422C156.773 0.596093 157.065 0.76456 157.296 0.997821C157.528 1.23108 157.713 1.52266 157.832 1.88551C157.951 2.24836 158.017 2.68249 158.017 3.19437V12.5572L163.256 7.63929L163.242 7.63281Z" stroke="black" stroke-miterlimit="10"/>
<path id="Vector_10" d="M185.599 19.8272C185.599 20.2549 185.467 20.6955 185.195 21.1491C184.931 21.6026 184.494 22.0173 183.899 22.3931C183.304 22.7689 182.523 23.0735 181.564 23.3132C180.605 23.5529 179.441 23.6696 178.058 23.6696C176.676 23.6696 175.505 23.4946 174.394 23.1512C173.283 22.8078 172.311 22.283 171.497 21.5767C170.683 20.8704 170.048 19.9763 169.592 18.8877C169.136 17.7992 168.904 16.5098 168.904 15.013C168.904 13.5162 169.122 12.2398 169.566 11.1512C170.009 10.0627 170.624 9.1685 171.411 8.46224C172.198 7.75597 173.144 7.23114 174.229 6.8942C175.314 6.55727 176.511 6.38232 177.801 6.38232C178.905 6.38232 179.884 6.50543 180.744 6.74517C181.597 6.9914 182.345 7.30889 182.986 7.7171C183.628 8.11882 184.164 8.57887 184.6 9.09723C185.037 9.61558 185.387 10.1404 185.658 10.6912C185.93 11.2419 186.121 11.7733 186.24 12.2981C186.359 12.8229 186.419 13.3024 186.419 13.7301C186.419 14.1577 186.373 14.5141 186.274 14.838C186.181 15.1685 186.029 15.4471 185.83 15.6804C185.625 15.9136 185.374 16.0886 185.063 16.2182C184.752 16.3478 184.388 16.4061 183.958 16.4061H174.315C174.407 17.0022 174.573 17.5011 174.811 17.8899C175.049 18.2787 175.34 18.5961 175.684 18.8359C176.028 19.0756 176.405 19.2441 176.822 19.3413C177.238 19.4385 177.668 19.4903 178.118 19.4903C178.859 19.4903 179.547 19.3737 180.182 19.1469C180.817 18.9201 181.366 18.635 181.822 18.2916C182.067 18.1102 182.331 17.9806 182.609 17.8964C182.894 17.8121 183.178 17.7668 183.469 17.7668C183.76 17.7668 184.018 17.8186 184.276 17.9158C184.534 18.013 184.759 18.1491 184.951 18.324C185.142 18.499 185.301 18.7128 185.414 18.9655C185.526 19.2182 185.586 19.5098 185.586 19.8272H185.599ZM177.82 10.0886C177.404 10.0886 176.994 10.1469 176.603 10.2635C176.213 10.3802 175.856 10.5681 175.532 10.8272C175.214 11.0864 174.943 11.4298 174.731 11.851C174.52 12.2722 174.381 12.7841 174.321 13.3931H181.379C181.346 12.7646 181.233 12.2398 181.028 11.8186C180.823 11.3974 180.565 11.054 180.241 10.8013C179.924 10.5422 179.553 10.3607 179.13 10.2506C178.713 10.1404 178.27 10.0886 177.814 10.0886H177.82Z" stroke="black" stroke-miterlimit="10"/>
<path id="Vector_11" d="M187.993 6.68032C187.993 5.89631 188.198 5.14469 188.615 4.43194C189.032 3.7192 189.587 3.09069 190.288 2.53993C190.99 1.99566 191.79 1.56153 192.689 1.23108C193.596 0.907104 194.535 0.745117 195.52 0.745117C196.208 0.745117 196.883 0.796953 197.551 0.907104C198.219 1.01726 198.854 1.17924 199.463 1.39954C200.071 1.61985 200.627 1.90494 201.136 2.24836C201.645 2.59177 202.088 2.99998 202.472 3.47298C202.856 3.94598 203.14 4.49026 203.352 5.09933C203.563 5.7084 203.669 6.38875 203.669 7.13389C203.669 7.87903 203.537 8.5205 203.279 9.09717C203.021 9.67384 202.69 10.1922 202.293 10.6522C201.897 11.1123 201.46 11.5335 200.984 11.9028C200.508 12.2721 200.051 12.609 199.615 12.9201C199.383 13.0821 199.172 13.2376 198.966 13.3866C198.761 13.5291 198.576 13.6911 198.404 13.8596C198.232 14.0281 198.074 14.216 197.935 14.4233C197.796 14.6306 197.67 14.8769 197.564 15.162C197.472 15.3887 197.379 15.6026 197.286 15.8164C197.194 16.0302 197.062 16.2181 196.89 16.3801C196.724 16.5421 196.506 16.6782 196.248 16.7754C195.99 16.879 195.653 16.9244 195.243 16.9244C194.859 16.9244 194.528 16.8531 194.244 16.717C193.959 16.581 193.721 16.3995 193.536 16.1728C193.351 15.946 193.212 15.6998 193.119 15.4211C193.027 15.1425 192.98 14.8704 192.98 14.5918C192.98 14.0928 193.073 13.6328 193.252 13.2246C193.43 12.8164 193.662 12.4341 193.946 12.0842C194.231 11.7343 194.555 11.4103 194.912 11.1058C195.269 10.8078 195.626 10.5227 195.99 10.257C196.294 10.0237 196.592 9.79047 196.876 9.55721C197.161 9.32395 197.419 9.07773 197.644 8.83151C197.868 8.57881 198.047 8.31315 198.186 8.03453C198.325 7.75592 198.391 7.45138 198.391 7.13389C198.391 6.38875 198.153 5.80559 197.683 5.39738C197.214 4.98918 196.552 4.78183 195.712 4.78183C195.223 4.78183 194.819 4.84015 194.502 4.96326C194.184 5.07989 193.92 5.24188 193.708 5.44274C193.496 5.6436 193.324 5.86391 193.186 6.11013C193.047 6.35635 192.921 6.60257 192.809 6.84879C192.696 7.10149 192.57 7.34771 192.445 7.58745C192.312 7.82719 192.154 8.03453 191.968 8.22244C191.783 8.40386 191.552 8.55289 191.287 8.65656C191.023 8.76672 190.685 8.81855 190.295 8.81855C189.991 8.81855 189.7 8.7732 189.422 8.676C189.144 8.58529 188.899 8.44922 188.688 8.2678C188.476 8.08637 188.311 7.86607 188.185 7.60041C188.059 7.33475 187.993 7.02374 187.993 6.67384V6.68032ZM192.551 20.8121C192.551 20.4363 192.623 20.0864 192.775 19.7559C192.921 19.4255 193.126 19.1404 193.384 18.8941C193.642 18.6479 193.94 18.4535 194.284 18.311C194.627 18.1684 194.991 18.0972 195.382 18.0972C195.772 18.0972 196.136 18.1684 196.479 18.311C196.823 18.4535 197.121 18.6479 197.379 18.8941C197.637 19.1404 197.835 19.4255 197.988 19.7559C198.133 20.0864 198.212 20.4363 198.212 20.8121C198.212 21.1879 198.14 21.5378 197.988 21.8682C197.835 22.1987 197.637 22.4838 197.379 22.7235C197.121 22.9697 196.823 23.1576 196.479 23.3002C196.136 23.4427 195.772 23.514 195.382 23.514C194.991 23.514 194.627 23.4427 194.284 23.3002C193.94 23.1576 193.642 22.9633 193.384 22.7235C193.126 22.4838 192.928 22.1922 192.775 21.8682C192.623 21.5378 192.551 21.1879 192.551 20.8121Z" stroke="black" stroke-miterlimit="10"/>
</g>
<defs>
<clipPath id="clip0_1_374">
<rect width="204" height="24" fill="white"/>
</clipPath>
</defs>
</svg>
