<svg width="48" height="48" viewBox="0 0 48 48" fill="none" xmlns="http://www.w3.org/2000/svg">
<rect width="48" height="48" rx="4" fill="#F4F4F5"/>
<path d="M39.1669 15.7021L27.9169 9.51455C27.7508 9.42316 27.5643 9.37524 27.3747 9.37524C27.185 9.37524 26.9985 9.42316 26.8324 9.51455L15.5824 15.7021C15.406 15.7992 15.2589 15.9418 15.1565 16.1152C15.054 16.2885 15 16.4862 15 16.6876C15 16.8889 15.054 17.0866 15.1565 17.2599C15.2589 17.4333 15.406 17.5759 15.5824 17.6731L26.2497 23.5399V35.5988L22.8341 33.7201L21.7497 35.6899L26.8324 38.4855C26.9985 38.5769 27.185 38.6249 27.3747 38.6249C27.5643 38.6249 27.7508 38.5769 27.9169 38.4855L39.1669 32.298C39.3434 32.201 39.4905 32.0583 39.593 31.885C39.6955 31.7116 39.7496 31.5139 39.7497 31.3126V16.6876C39.7496 16.4862 39.6955 16.2885 39.593 16.1151C39.4905 15.9418 39.3434 15.7991 39.1669 15.7021ZM27.3747 11.7848L36.2903 16.6876L27.3747 21.5903L18.459 16.6876L27.3747 11.7848ZM37.4997 30.6477L28.4997 35.5977V23.5388L37.4997 18.5888V30.6477Z" fill="#202020"/>
<path d="M17.25 24H8.25V21.75H17.25V24ZM19.5 33H10.5V30.75H19.5V33ZM21.75 28.5H12.75V26.25H21.75V28.5Z" fill="#202020"/>
</svg>
