<svg width="92" height="72" viewBox="0 0 92 72" fill="none" xmlns="http://www.w3.org/2000/svg">
<g id="Font">
<path id="Vector" d="M33.543 2.10512C34.8413 5.50672 40.5928 8.21372 45.3252 8.21372C50.0576 8.21372 56.0429 5.51971 57.497 2.2025C53.7708 3.39695 49.9537 3.81891 46.4418 3.81891C40.7357 3.81891 35.8605 2.72183 33.543 2.09863V2.10512Z" fill="white"/>
<path id="Vector_2" d="M17.6896 41.6649V26.6173C17.6896 26.137 18.0791 25.7475 18.5594 25.7475C19.0398 25.7475 19.4293 26.137 19.4293 26.6173V70.2539H71.6673V41.9894C71.6673 41.8921 71.6867 41.7947 71.7192 41.7038V26.6173C71.7192 26.137 72.1087 25.7475 72.5891 25.7475C73.0694 25.7475 73.4589 26.137 73.4589 26.6173V41.7298L74.173 42.5737C84.0402 35.3745 87.6885 32.7714 89.0842 31.8171C88.2663 30.5318 85.6502 26.6368 77.5681 15.0428C73.9263 9.81709 68.8694 5.81826 62.9425 3.48129L59.3851 2.0791C58.1647 6.53883 51.1278 9.9599 45.3308 9.9599C39.5338 9.9599 32.8669 6.59725 31.7049 2.08559L28.167 3.48129C22.2337 5.82475 17.1702 9.82358 13.522 15.0558C5.43992 26.6433 2.8238 30.5383 2.00586 31.8236C3.40805 32.7779 7.04984 35.3875 16.9171 42.5802L17.6896 41.6714V41.6649Z" fill="white"/>
<path id="Vector_3" d="M58.5215 0.0337789C58.5669 0.0272873 58.6124 0.0143041 58.6578 0.0078125C58.6124 0.0078125 58.5669 0.0207957 58.5215 0.0337789Z" fill="white"/>
<path id="Vector_4" d="M0.487343 32.8691C1.27932 33.3495 10.4974 40.0358 16.5476 44.4501C16.8981 44.7098 17.3915 44.6578 17.6901 44.3462V71.1306C17.6901 71.6109 18.0796 72.0004 18.56 72.0004H72.5376C73.018 72.0004 73.4075 71.6109 73.4075 71.1306V44.3527C73.7061 44.6643 74.193 44.7098 74.5435 44.4566C80.5937 40.0423 89.8118 33.3495 90.6038 32.8756C90.805 32.7782 90.9673 32.6094 91.0452 32.3952C91.2659 31.8045 91.3048 31.7136 78.9903 14.0564C75.1537 8.55156 69.8241 4.33851 63.5792 1.8717L59.0221 0.0670385C59.0221 0.0670385 58.9767 0.0670385 58.9572 0.0605469C59.2039 0.138446 59.4116 0.307228 59.509 0.566892C59.6778 1.01481 59.4571 1.51466 59.0091 1.68994C58.5093 1.88469 58.0029 2.05996 57.4966 2.22225C56.0425 5.53296 50.0767 8.23347 45.3248 8.23347C40.573 8.23347 34.8409 5.52647 33.5426 2.12488C32.7311 1.90416 32.2248 1.74187 32.1274 1.70941C31.673 1.56011 31.4263 1.07324 31.5756 0.612333C31.6665 0.326702 31.9002 0.138446 32.1664 0.0670385C32.1404 0.0735301 32.1079 0.0670385 32.082 0.0800217L27.5314 1.87819C21.2799 4.345 15.9438 8.56454 12.1008 14.0759C-0.207258 31.7266 -0.174799 31.8174 0.0524072 32.4082C0.130306 32.6224 0.292597 32.7912 0.493836 32.8886L0.487343 32.8691ZM13.516 15.0432C17.1643 9.81093 22.2277 5.8121 28.161 3.46864L31.699 2.07294C32.861 6.59109 39.5798 9.94725 45.3248 9.94725C51.0699 9.94725 58.1587 6.52618 59.3792 2.06645L62.9366 3.46864C68.8634 5.8121 73.9203 9.81093 77.5621 15.0302C85.6442 26.6242 88.2603 30.5191 89.0782 31.8045C87.676 32.7587 84.0342 35.3619 74.167 42.561L73.4529 41.7171V41.9703C73.4529 42.4507 73.0635 42.8402 72.5831 42.8402C72.1027 42.8402 71.7132 42.4507 71.7132 41.9703V41.6912C71.6807 41.782 71.6613 41.8729 71.6613 41.9768V70.2412H19.4233V41.9703C19.4233 42.4507 19.0338 42.8402 18.5535 42.8402C18.0731 42.8402 17.6836 42.4507 17.6836 41.9703V41.6522L16.9111 42.561C7.04386 35.3619 3.39558 32.7587 1.99989 31.8045C2.81783 30.5191 5.43394 26.6307 13.516 15.0367V15.0432Z" fill="#202020"/>
<path id="Vector_5" d="M32.4141 0.0078125C32.4595 0.0078125 32.5114 0.0143041 32.5569 0.0272873C32.5049 0.0207957 32.466 0.0143041 32.4141 0.0078125Z" fill="white"/>
<path id="Vector_6" d="M33.2649 0.832302C33.2778 1.26075 33.3882 1.68919 33.544 2.09816C35.855 2.72136 40.7367 3.81844 46.4428 3.81844C49.9548 3.81844 53.7783 3.40298 57.498 2.20203C57.6928 1.75411 57.8161 1.29321 57.8291 0.832302C57.8421 0.553163 57.9849 0.293499 58.2186 0.137701C58.3095 0.0792765 58.4133 0.0533101 58.5172 0.0273438C58.4717 0.0338353 58.4263 0.0273438 58.3809 0.0533101C46.6765 4.5455 32.804 0.0857681 32.6611 0.0403269C32.6222 0.0273438 32.5897 0.0403269 32.5508 0.0273438C32.6611 0.0468185 32.765 0.0727849 32.8624 0.137701C33.0961 0.293499 33.2454 0.553163 33.2519 0.832302H33.2649Z" fill="#202020"/>
<path id="Vector_7" d="M58.6582 0.00845884C58.7556 0.00845884 58.853 0.021442 58.9503 0.0474084C58.853 0.0149504 58.7556 0.00196724 58.6582 0.00845884Z" fill="white"/>
<path id="Vector_8" d="M32.166 0.0468076C32.2504 0.0208412 32.3348 0.00785799 32.4192 0.0143496C32.3348 0.0143496 32.2504 0.0273328 32.166 0.0468076Z" fill="white"/>
<path id="Vector_9" d="M31.567 0.592401C31.4177 1.04681 31.6644 1.54017 32.1188 1.68948C32.2227 1.72194 32.7225 1.88423 33.534 2.10494C33.3782 1.68948 33.2743 1.26753 33.2548 0.839082C33.2419 0.559943 33.099 0.300279 32.8653 0.14448C32.768 0.0795644 32.6641 0.053598 32.5537 0.0341232C32.5083 0.0276316 32.4564 0.02114 32.4109 0.0146484C32.3265 0.0146484 32.2421 0.0276316 32.1578 0.0471064C31.8916 0.125006 31.6579 0.313262 31.567 0.592401Z" fill="#202020"/>
<path id="Vector_10" d="M57.8291 0.832548C57.8096 1.29994 57.6928 1.75435 57.498 2.20228C58.0044 2.03999 58.5107 1.86471 59.0106 1.66996C59.4585 1.50118 59.6792 0.994838 59.5104 0.546917C59.4131 0.287253 59.1988 0.118472 58.9587 0.0405725C58.8613 0.0081145 58.7639 -0.0048687 58.6665 0.0016229C58.6211 0.0016229 58.5757 0.0146061 58.5302 0.0275893C58.4263 0.0470641 58.3225 0.0730305 58.2316 0.137946C57.9979 0.293745 57.8486 0.553409 57.8421 0.832548H57.8291Z" fill="#202020"/>
<path id="Vector_11" d="M18.5535 25.7471C18.0731 25.7471 17.6836 26.1366 17.6836 26.6169V41.6645L17.8913 41.4243C18.125 41.1451 18.508 41.0478 18.8521 41.1711C19.1961 41.2944 19.4233 41.619 19.4233 41.9826V26.6169C19.4233 26.1366 19.0338 25.7471 18.5535 25.7471Z" fill="#202020"/>
<path id="Vector_12" d="M18.8579 41.1717C18.5139 41.0484 18.1309 41.1458 17.8972 41.4249L17.6895 41.6651V41.9832C17.6895 42.4635 18.0789 42.853 18.5593 42.853C19.0397 42.853 19.4292 42.4635 19.4292 41.9832C19.4292 41.6196 19.202 41.2951 18.8579 41.1717Z" fill="#202020"/>
<path id="Vector_13" d="M72.5847 25.7471C72.1043 25.7471 71.7148 26.1366 71.7148 26.6169V41.7034C71.7992 41.4632 71.981 41.262 72.2342 41.1711C72.5782 41.0478 72.9612 41.1451 73.1949 41.4243L73.4546 41.7294V26.6169C73.4546 26.1366 73.0651 25.7471 72.5847 25.7471Z" fill="#202020"/>
<path id="Vector_14" d="M72.2342 41.1707C71.9875 41.2616 71.7992 41.4629 71.7148 41.7031V41.9822C71.7148 42.4626 72.1043 42.8521 72.5847 42.8521C73.0651 42.8521 73.4546 42.4626 73.4546 41.9822V41.729L73.1949 41.4239C72.9612 41.1448 72.5782 41.0474 72.2342 41.1707Z" fill="#202020"/>
<path id="Vector_15" d="M24.543 41.9869V30.001H32.543V32.1674H25.6586L27.0328 30.7044V36.1909L25.6586 35.0795H32.2573V37.2038H25.6586L27.0328 36.0924V42.001H24.5566L24.543 41.9869Z" fill="#202020"/>
<path id="Vector_16" d="M33.5585 42.001V32.001H36.1941L36.2872 34.9092L36.0856 34.847C36.2406 33.8361 36.5352 33.1052 36.9383 32.6697C37.3414 32.2187 37.915 32.001 38.6282 32.001H39.543V34.3182H38.6282C38.1011 34.3182 37.6825 34.3804 37.3414 34.5204C37.0003 34.6604 36.7523 34.8781 36.5817 35.1736C36.4112 35.4691 36.3337 35.8734 36.3337 36.3867V42.001H33.543H33.5585Z" fill="#202020"/>
<path id="Vector_17" d="M44.543 42.001C43.5338 42.001 42.6622 41.7926 41.913 41.3909C41.1638 40.9742 40.5827 40.3938 40.1699 39.6498C39.757 38.9057 39.543 38.0129 39.543 37.001C39.543 35.9891 39.757 35.1111 40.1699 34.367C40.5827 33.623 41.1638 33.0426 41.913 32.626C42.6622 32.2093 43.5338 32.001 44.543 32.001C45.5521 32.001 46.4237 32.2093 47.1729 32.626C47.9222 33.0426 48.5032 33.623 48.9161 34.367C49.3289 35.1111 49.543 35.9891 49.543 37.001C49.543 38.0129 49.3289 38.8909 48.9161 39.6498C48.5032 40.3938 47.9222 40.9742 47.1729 41.3909C46.4237 41.8075 45.5521 42.001 44.543 42.001ZM44.543 39.9474C45.231 39.9474 45.7662 39.6944 46.1332 39.1736C46.5154 38.6528 46.6989 37.9385 46.6989 37.001C46.6989 36.0635 46.5154 35.3492 46.1332 34.8284C45.7509 34.3075 45.2158 34.0545 44.543 34.0545C43.8702 34.0545 43.3197 34.3075 42.9528 34.8284C42.5705 35.3492 42.387 36.0635 42.387 37.001C42.387 37.9385 42.5705 38.6528 42.9528 39.1736C43.335 39.6944 43.8702 39.9474 44.543 39.9474Z" fill="#202020"/>
<path id="Vector_18" d="M50.543 41.9858V32.2137H52.8008L52.8984 35.0709L52.5778 34.9797C52.6614 34.2502 52.8426 33.6727 53.1214 33.232C53.4001 32.7912 53.7346 32.4721 54.1527 32.2897C54.5708 32.1074 55.0168 32.001 55.5046 32.001C56.1458 32.001 56.7032 32.153 57.1492 32.4569C57.5952 32.7609 57.9437 33.1864 58.1806 33.7487C58.4175 34.311 58.543 34.9493 58.543 35.7092V42.001H56.0343V36.621C56.0343 36.1043 55.9925 35.6484 55.9228 35.2837C55.8391 34.9189 55.6998 34.6453 55.5046 34.4478C55.3095 34.2654 55.0308 34.159 54.6684 34.159C54.1388 34.159 53.7485 34.3718 53.4698 34.7821C53.191 35.2077 53.0517 35.8004 53.0517 36.5906V41.9706H50.543V41.9858Z" fill="#202020"/>
<path id="Vector_19" d="M60.543 34.9444V33.0903H66.543V34.9444H60.543ZM64.4722 41.9871C63.5961 41.9871 62.9456 41.7796 62.5341 41.3507C62.1226 40.9217 61.9102 40.2437 61.9102 39.3167V31.001H64.2996V39.0261C64.2996 39.4551 64.3925 39.7456 64.5651 39.9117C64.7377 40.0639 65.0031 40.1469 65.3483 40.1469H66.543V42.001H64.4722V41.9871Z" fill="#202020"/>
</g>
</svg>
