<svg width="24" height="24" viewBox="0 0 24 24" fill="none" xmlns="http://www.w3.org/2000/svg">
<g id="Frame 786" clip-path="url(#clip0_1309_3110)">
<path id="Vector" d="M18.207 0H5.79303C2.59426 0 0 2.59425 0 5.79302V18.207C0 21.4057 2.59426 24 5.79303 24H18.207C21.4057 24 24 21.4057 24 18.207V5.79302C24 2.59425 21.4057 0 18.207 0ZM21.9308 17.7924C21.9308 20.077 20.077 21.9308 17.7924 21.9308H6.2064C3.92189 21.9308 2.06804 20.077 2.06804 17.7924V6.2064C2.06804 3.92189 3.92189 2.06803 6.2064 2.06803H17.7924C20.077 2.06803 21.9308 3.92189 21.9308 6.2064V17.7924Z" fill="#202020"/>
<path id="Vector_2" d="M12 6C8.68831 6 6 8.68831 6 12C6 15.3117 8.68831 18 12 18C15.3117 18 18 15.3117 18 12C18 8.68831 15.3117 6 12 6ZM12 16.0007C9.79592 16.0007 7.99925 14.2041 7.99925 12C7.99925 9.79592 9.79592 7.99926 12 7.99926C14.2041 7.99926 16.0007 9.79592 16.0007 12C16.0007 14.2041 14.2041 16.0007 12 16.0007Z" fill="#202020"/>
</g>
<defs>
<clipPath id="clip0_1309_3110">
<rect width="24" height="24" fill="white"/>
</clipPath>
</defs>
</svg>
