<svg width="13" height="24" viewBox="0 0 13 24" fill="none" xmlns="http://www.w3.org/2000/svg">
<path id="Vector" d="M12.9927 10.5846L12.6809 13.0251C12.6281 13.4328 12.2739 13.7395 11.8537 13.7395H7.79824V23.9431C7.37055 23.9807 6.93722 24 6.49916 24C5.51944 24 4.56326 23.9045 3.63912 23.7227V13.7395H0.52001C0.233629 13.7395 0 13.5108 0 13.2308V10.177C0 9.89694 0.233629 9.66831 0.52001 9.66831H3.63912V5.08849C3.63912 2.27797 5.96691 0 8.8392 0H12.4783C12.7647 0 12.9983 0.228622 12.9983 0.508663V3.56249C12.9983 3.84253 12.7647 4.07116 12.4783 4.07116H9.87828C8.72993 4.07116 7.79918 4.98198 7.79918 6.10674V9.66923H12.1665C12.6677 9.66923 13.0548 10.0989 12.9936 10.5856L12.9927 10.5846Z" fill="#202020"/>
</svg>
