<svg width="71" height="56" viewBox="0 0 71 56" fill="none" xmlns="http://www.w3.org/2000/svg">
<g id="Font">
<path id="Vector" d="M26.0898 1.63713C27.0996 4.28282 31.5731 6.38826 35.2538 6.38826C38.9346 6.38826 43.5898 4.29292 44.7207 1.71286C41.8226 2.64188 38.8538 2.97007 36.1223 2.97007C31.6842 2.97007 27.8923 2.11679 26.0898 1.63208V1.63713Z" fill="white"/>
<path id="Vector_2" d="M13.759 32.4059V20.7023C13.759 20.3286 14.0619 20.0257 14.4356 20.0257C14.8092 20.0257 15.1121 20.3286 15.1121 20.7023V54.6418H55.7416V32.6583C55.7416 32.5826 55.7568 32.5069 55.782 32.4362V20.7023C55.782 20.3286 56.085 20.0257 56.4586 20.0257C56.8322 20.0257 57.1352 20.3286 57.1352 20.7023V32.4564L57.6906 33.1128C65.3651 27.5134 68.2026 25.4887 69.2882 24.7465C68.652 23.7468 66.6172 20.7174 60.3312 11.6998C57.4987 7.63538 53.5655 4.52518 48.9557 2.70753L46.1889 1.61694C45.2397 5.08562 39.7665 7.74646 35.2577 7.74646C30.749 7.74646 25.5636 5.13106 24.6598 1.62199L21.9081 2.70753C17.2933 4.53023 13.3551 7.64043 10.5175 11.7099C4.23148 20.7224 2.19672 23.7519 1.56055 24.7516C2.65114 25.4938 5.48364 27.5235 13.1582 33.1178L13.759 32.4109V32.4059Z" fill="white"/>
<path id="Vector_3" d="M45.5176 0.0265437C45.5529 0.0214947 45.5883 0.0113967 45.6236 0.00634766C45.5883 0.00634766 45.5529 0.0164457 45.5176 0.0265437Z" fill="white"/>
<path id="Vector_4" d="M0.379045 25.5645C0.995026 25.9381 8.16464 31.1386 12.8703 34.572C13.143 34.7739 13.5267 34.7335 13.759 34.4912V55.3235C13.759 55.6971 14.0619 56 14.4355 56H56.4182C56.7918 56 57.0947 55.6971 57.0947 55.3235V34.4962C57.327 34.7386 57.7057 34.7739 57.9783 34.577C62.684 31.1437 69.8536 25.9381 70.4696 25.5696C70.6261 25.4938 70.7523 25.3626 70.8129 25.1959C70.9846 24.7365 71.0149 24.6658 61.4369 10.9324C58.4529 6.65088 54.3077 3.37406 49.4505 1.45543L45.9061 0.051802C45.9061 0.051802 45.8708 0.051802 45.8556 0.0467529C46.0475 0.107341 46.209 0.238616 46.2848 0.440577C46.416 0.788959 46.2444 1.17773 45.896 1.31406C45.5072 1.46553 45.1134 1.60185 44.7196 1.72808C43.5886 4.30308 38.9485 6.40347 35.2527 6.40347C31.5568 6.40347 27.0985 4.29803 26.0887 1.65234C25.4575 1.48068 25.0637 1.35445 24.988 1.3292C24.6346 1.21308 24.4427 0.834401 24.5588 0.47592C24.6295 0.253763 24.8113 0.107341 25.0183 0.051802C24.9981 0.056851 24.9728 0.051802 24.9526 0.0619L21.4133 1.46048C16.5511 3.37911 12.4008 6.66097 9.41175 10.9476C-0.161201 24.6759 -0.135955 24.7466 0.0407612 25.206C0.101349 25.3727 0.227575 25.5039 0.384095 25.5797L0.379045 25.5645ZM10.5124 11.6999C13.35 7.63039 17.2882 4.52019 21.903 2.69749L24.6547 1.61195C25.5585 5.12607 30.7843 7.73642 35.2527 7.73642C39.721 7.73642 45.2346 5.07558 46.1838 1.6069L48.9507 2.69749C53.5604 4.52019 57.4936 7.63039 60.3261 11.6898C66.6121 20.7074 68.6469 23.7368 69.2831 24.7365C68.1925 25.4787 65.36 27.5033 57.6855 33.1027L57.1301 32.4463V32.6432C57.1301 33.0169 56.8271 33.3198 56.4535 33.3198C56.0799 33.3198 55.7769 33.0169 55.7769 32.6432V32.4261C55.7517 32.4968 55.7365 32.5675 55.7365 32.6483V54.6317H15.107V32.6432C15.107 33.0169 14.8041 33.3198 14.4305 33.3198C14.0569 33.3198 13.7539 33.0169 13.7539 32.6432V32.3958L13.1531 33.1027C5.47856 27.5033 2.64101 25.4787 1.55547 24.7365C2.19165 23.7368 4.2264 20.7124 10.5124 11.6948V11.6999Z" fill="#202020"/>
<path id="Vector_5" d="M25.2109 0.00634766C25.2463 0.00634766 25.2867 0.0113967 25.322 0.0214947C25.2816 0.0164457 25.2513 0.0113967 25.2109 0.00634766Z" fill="white"/>
<path id="Vector_6" d="M25.8718 0.647563C25.8819 0.980799 25.9677 1.31403 26.0889 1.63212C27.8864 2.11683 31.6832 2.97011 36.1213 2.97011C38.8528 2.97011 41.8267 2.64698 44.7198 1.71291C44.8713 1.36452 44.9672 1.00604 44.9773 0.647563C44.9874 0.430455 45.0985 0.228494 45.2803 0.107318C45.3509 0.0618766 45.4317 0.0416805 45.5125 0.0214844C45.4772 0.0265334 45.4418 0.0214844 45.4065 0.0416805C36.3031 3.53561 25.5133 0.0669256 25.4022 0.0315824C25.372 0.0214844 25.3467 0.0315824 25.3164 0.0214844C25.4022 0.0366314 25.483 0.0568275 25.5588 0.107318C25.7405 0.228494 25.8567 0.430455 25.8617 0.647563H25.8718Z" fill="#202020"/>
<path id="Vector_7" d="M45.623 0.00638921C45.6988 0.00638921 45.7745 0.0164873 45.8503 0.0366834C45.7745 0.0114382 45.6988 0.00134019 45.623 0.00638921Z" fill="white"/>
<path id="Vector_8" d="M25.0176 0.0365415C25.0832 0.0163455 25.1489 0.0062474 25.2145 0.0112964C25.1489 0.0112964 25.0832 0.0213945 25.0176 0.0365415Z" fill="white"/>
<path id="Vector_9" d="M24.5534 0.460594C24.4373 0.814025 24.6292 1.19775 24.9826 1.31388C25.0634 1.33912 25.4521 1.46535 26.0833 1.63702C25.9621 1.31388 25.8813 0.985692 25.8662 0.652456C25.8561 0.435348 25.745 0.233388 25.5632 0.112211C25.4875 0.0617207 25.4067 0.0415246 25.3209 0.0263775C25.2855 0.0213285 25.2451 0.0162795 25.2098 0.0112305C25.1442 0.0112305 25.0785 0.0213285 25.0129 0.0364756C24.8059 0.0970639 24.6241 0.243486 24.5534 0.460594Z" fill="#202020"/>
<path id="Vector_10" d="M44.9782 0.647537C44.9631 1.01107 44.8722 1.3645 44.7207 1.71288C45.1145 1.58666 45.5084 1.45033 45.8971 1.29886C46.2455 1.16759 46.4172 0.773763 46.2859 0.42538C46.2102 0.223419 46.0435 0.0921447 45.8567 0.0315564C45.781 0.00631128 45.7053 -0.00378677 45.6295 0.00126226C45.5942 0.00126226 45.5588 0.0113603 45.5235 0.0214584C45.4427 0.0366054 45.3619 0.0568015 45.2912 0.107292C45.1095 0.228468 44.9933 0.430429 44.9883 0.647537H44.9782Z" fill="#202020"/>
<path id="Vector_11" d="M14.4305 20.0256C14.0568 20.0256 13.7539 20.3286 13.7539 20.7022V32.4058L13.9155 32.219C14.0972 32.0019 14.3951 31.9262 14.6627 32.0221C14.9303 32.118 15.107 32.3705 15.107 32.6532V20.7022C15.107 20.3286 14.8041 20.0256 14.4305 20.0256Z" fill="#202020"/>
<path id="Vector_12" d="M14.6684 32.0222C14.4008 31.9263 14.1029 32.002 13.9212 32.2191L13.7596 32.4059V32.6533C13.7596 33.027 14.0625 33.3299 14.4361 33.3299C14.8098 33.3299 15.1127 33.027 15.1127 32.6533C15.1127 32.3706 14.936 32.1181 14.6684 32.0222Z" fill="#202020"/>
<path id="Vector_13" d="M56.4539 20.0256C56.0803 20.0256 55.7773 20.3286 55.7773 20.7022V32.4361C55.843 32.2493 55.9844 32.0928 56.1813 32.0221C56.4489 31.9262 56.7468 32.0019 56.9285 32.219L57.1305 32.4563V20.7022C57.1305 20.3286 56.8275 20.0256 56.4539 20.0256Z" fill="#202020"/>
<path id="Vector_14" d="M56.1813 32.0221C55.9894 32.0928 55.843 32.2493 55.7773 32.4361V32.6532C55.7773 33.0269 56.0803 33.3298 56.4539 33.3298C56.8275 33.3298 57.1305 33.0269 57.1305 32.6532V32.4563L56.9285 32.219C56.7468 32.0019 56.4489 31.9262 56.1813 32.0221Z" fill="#202020"/>
<path id="Vector_15" d="M27.8712 30.1137V25.8119H30.84V26.5894H28.2852L28.7952 26.0643V28.0335L28.2852 27.6346H30.734V28.397H28.2852L28.7952 27.9981V30.1187H27.8763L27.8712 30.1137Z" fill="#202020"/>
<path id="Vector_16" d="M31.3351 30.1137V26.8672H32.1935L32.2238 27.8114L32.1581 27.7912C32.2086 27.463 32.3045 27.2257 32.4358 27.0843C32.5671 26.9379 32.7539 26.8672 32.9862 26.8672H33.2841V27.6195H32.9862C32.8145 27.6195 32.6782 27.6397 32.5671 27.6851C32.456 27.7306 32.3752 27.8013 32.3197 27.8972C32.2642 27.9931 32.2389 28.1244 32.2389 28.291V30.1137H31.3301H31.3351Z" fill="#202020"/>
<path id="Vector_17" d="M35.1413 30.1893C34.808 30.1893 34.5202 30.1186 34.2728 29.9823C34.0254 29.8409 33.8336 29.644 33.6972 29.3916C33.5609 29.1391 33.4902 28.8362 33.4902 28.4929C33.4902 28.1495 33.5609 27.8516 33.6972 27.5992C33.8336 27.3467 34.0254 27.1498 34.2728 27.0084C34.5202 26.8671 34.808 26.7964 35.1413 26.7964C35.4745 26.7964 35.7623 26.8671 36.0097 27.0084C36.2571 27.1498 36.449 27.3467 36.5853 27.5992C36.7216 27.8516 36.7923 28.1495 36.7923 28.4929C36.7923 28.8362 36.7216 29.1341 36.5853 29.3916C36.449 29.644 36.2571 29.8409 36.0097 29.9823C35.7623 30.1237 35.4745 30.1893 35.1413 30.1893ZM35.1413 29.4926C35.3685 29.4926 35.5452 29.4067 35.6664 29.23C35.7926 29.0533 35.8532 28.8109 35.8532 28.4929C35.8532 28.1748 35.7926 27.9324 35.6664 27.7557C35.5401 27.579 35.3634 27.4932 35.1413 27.4932C34.9191 27.4932 34.7373 27.579 34.6162 27.7557C34.4899 27.9324 34.4294 28.1748 34.4294 28.4929C34.4294 28.8109 34.4899 29.0533 34.6162 29.23C34.7424 29.4067 34.9191 29.4926 35.1413 29.4926Z" fill="#202020"/>
<path id="Vector_18" d="M37.3535 30.1136V26.8671H38.1715L38.2068 27.8163L38.0907 27.786C38.121 27.5436 38.1866 27.3518 38.2876 27.2054C38.3886 27.0589 38.5097 26.9529 38.6612 26.8923C38.8127 26.8317 38.9743 26.7964 39.151 26.7964C39.3832 26.7964 39.5852 26.8469 39.7467 26.9479C39.9083 27.0488 40.0345 27.1902 40.1204 27.377C40.2062 27.5638 40.2517 27.7759 40.2517 28.0283V30.1186H39.3428V28.3313C39.3428 28.1596 39.3277 28.0082 39.3024 27.887C39.2721 27.7658 39.2217 27.6749 39.151 27.6093C39.0803 27.5487 38.9793 27.5133 38.848 27.5133C38.6562 27.5133 38.5148 27.584 38.4138 27.7204C38.3128 27.8617 38.2623 28.0586 38.2623 28.3212V30.1085H37.3535V30.1136Z" fill="#202020"/>
<path id="Vector_19" d="M40.6914 27.5437V26.8671H42.9736V27.5437H40.6914ZM42.1859 30.1137C41.8527 30.1137 41.6053 30.0379 41.4488 29.8814C41.2922 29.7249 41.2115 29.4775 41.2115 29.1392V26.1047H42.1203V29.0332C42.1203 29.1897 42.1556 29.2957 42.2213 29.3563C42.2869 29.4118 42.3879 29.4421 42.5192 29.4421H42.9736V30.1187H42.1859V30.1137Z" fill="#202020"/>
</g>
</svg>
