<svg width="52" height="40" viewBox="0 0 52 40" fill="none" xmlns="http://www.w3.org/2000/svg">
<g id="Group 31">
<path id="Vector" d="M19.423 1.16962C20.1443 3.05941 23.3396 4.5633 25.9687 4.5633C28.5978 4.5633 31.923 3.06662 32.7308 1.22372C30.6607 1.88731 28.5401 2.12173 26.589 2.12173C23.4189 2.12173 20.7105 1.51224 19.423 1.16602V1.16962Z" fill="white"/>
<path id="Vector_2" d="M10.6168 23.1472V14.7875C10.6168 14.5206 10.8332 14.3042 11.1 14.3042C11.3669 14.3042 11.5833 14.5206 11.5833 14.7875V39.0301H40.6045V23.3276C40.6045 23.2735 40.6153 23.2194 40.6333 23.1689V14.7875C40.6333 14.5206 40.8497 14.3042 41.1166 14.3042C41.3835 14.3042 41.5999 14.5206 41.5999 14.7875V23.1833L41.9966 23.6521C47.4784 19.6526 49.5052 18.2064 50.2806 17.6762C49.8262 16.9622 48.3728 14.7983 43.8828 8.35713C41.8595 5.45393 39.0501 3.23235 35.7574 1.93402L33.7811 1.15503C33.103 3.63267 29.1936 5.53327 25.9731 5.53327C22.7525 5.53327 19.0487 3.66513 18.4031 1.15864L16.4376 1.93402C13.1413 3.23596 10.3283 5.45754 8.30143 8.36435C3.81139 14.8019 2.35798 16.9658 1.90356 17.6798C2.68256 18.21 4.70578 19.6598 10.1876 23.6557L10.6168 23.1508V23.1472Z" fill="white"/>
<path id="Vector_3" d="M33.2982 0.0188204C33.3235 0.0152139 33.3487 0.00800099 33.374 0.00439453C33.3487 0.00439453 33.3235 0.0116075 33.2982 0.0188204Z" fill="white"/>
<path id="Vector_4" d="M1.05712 18.2603C1.49711 18.5271 6.61829 22.2418 9.97951 24.6942C10.1743 24.8384 10.4483 24.8096 10.6142 24.6365V39.5167C10.6142 39.7836 10.8306 40 11.0975 40H41.0852C41.3521 40 41.5685 39.7836 41.5685 39.5167V24.6401C41.7344 24.8132 42.0049 24.8384 42.1996 24.6978C45.5608 22.2454 50.682 18.5271 51.122 18.2639C51.2338 18.2098 51.324 18.116 51.3672 17.997C51.4898 17.6688 51.5115 17.6183 44.67 7.80873C42.5386 4.75046 39.5777 2.40986 36.1083 1.03941L33.5766 0.0368096C33.5766 0.0368096 33.5513 0.0368096 33.5405 0.0332031C33.6775 0.0764807 33.793 0.170249 33.847 0.314507C33.9408 0.563353 33.8182 0.841051 33.5693 0.938425C33.2916 1.04662 33.0103 1.14399 32.729 1.23415C31.9212 3.07345 28.6069 4.57374 25.9669 4.57374C23.327 4.57374 20.1425 3.06984 19.4212 1.18006C18.9704 1.05744 18.6891 0.967277 18.635 0.949244C18.3826 0.866296 18.2455 0.595811 18.3285 0.339752C18.3789 0.181068 18.5088 0.0764807 18.6566 0.0368096C18.6422 0.0404161 18.6242 0.0368096 18.6098 0.0440225L16.0816 1.04301C12.6086 2.41347 9.6441 4.75767 7.50908 7.81955C0.671233 17.6255 0.689266 17.676 0.815492 18.0042C0.85877 18.1232 0.948929 18.217 1.06073 18.2711L1.05712 18.2603ZM8.29528 8.35692C10.3221 5.45011 13.1352 3.22853 16.4315 1.9266L18.397 1.15121C19.0425 3.6613 22.7752 5.52584 25.9669 5.52584C29.1587 5.52584 33.0969 3.62524 33.7749 1.1476L35.7513 1.9266C39.044 3.22853 41.8534 5.45011 43.8766 8.3497C48.3667 14.7908 49.82 16.9547 50.2745 17.6688C49.4955 18.1989 47.4722 19.6451 41.9904 23.6447L41.5937 23.1759V23.3165C41.5937 23.5834 41.3773 23.7998 41.1105 23.7998C40.8436 23.7998 40.6272 23.5834 40.6272 23.3165V23.1614C40.6092 23.2119 40.5983 23.2624 40.5983 23.3201V39.0227H11.5772V23.3165C11.5772 23.5834 11.3608 23.7998 11.0939 23.7998C10.827 23.7998 10.6106 23.5834 10.6106 23.3165V23.1398L10.1815 23.6447C4.69965 19.6451 2.67282 18.1989 1.89743 17.6688C2.35184 16.9547 3.80524 14.7945 8.29528 8.35331V8.35692Z" fill="#202020"/>
<path id="Vector_5" d="M18.7941 0.00439453C18.8193 0.00439453 18.8482 0.00800099 18.8734 0.0152139C18.8446 0.0116075 18.8229 0.00800099 18.7941 0.00439453Z" fill="white"/>
<path id="Vector_6" d="M19.2671 0.462582C19.2743 0.700609 19.3356 0.938635 19.4221 1.16584C20.706 1.51206 23.4181 2.12155 26.5882 2.12155C28.5393 2.12155 30.6635 1.89074 32.73 1.22355C32.8382 0.9747 32.9067 0.718641 32.9139 0.462582C32.9211 0.307504 33.0005 0.163246 33.1303 0.0766907C33.1808 0.0442326 33.2385 0.0298067 33.2962 0.0153809C33.271 0.0189873 33.2457 0.0153809 33.2205 0.0298067C26.718 2.52548 19.011 0.047839 18.9317 0.0225938C18.91 0.0153809 18.892 0.0225938 18.8704 0.0153809C18.9317 0.0262002 18.9894 0.0406261 19.0435 0.0766907C19.1733 0.163246 19.2562 0.307504 19.2599 0.462582H19.2671Z" fill="#202020"/>
<path id="Vector_7" d="M33.3745 0.00456372C33.4286 0.00456372 33.4827 0.0117766 33.5368 0.0262025C33.4827 0.00817019 33.4286 0.000957263 33.3745 0.00456372Z" fill="white"/>
<path id="Vector_8" d="M18.6573 0.0262756C18.7042 0.0118497 18.7511 0.00463681 18.798 0.00824327C18.7511 0.00824327 18.7042 0.0154562 18.6573 0.0262756Z" fill="white"/>
<path id="Vector_9" d="M18.3262 0.329032C18.2433 0.581484 18.3803 0.855575 18.6328 0.938524C18.6905 0.956556 18.9682 1.04672 19.419 1.16934C19.3324 0.938524 19.2747 0.704104 19.2639 0.466077C19.2567 0.310999 19.1773 0.166741 19.0475 0.0801859C18.9934 0.0441213 18.9357 0.0296954 18.8744 0.018876C18.8491 0.0152696 18.8203 0.0116631 18.795 0.00805664C18.7482 0.00805664 18.7013 0.0152696 18.6544 0.0260889C18.5065 0.0693665 18.3767 0.173954 18.3262 0.329032Z" fill="#202020"/>
<path id="Vector_10" d="M32.9137 0.462529C32.9028 0.722194 32.8379 0.974646 32.7297 1.22349C33.011 1.13333 33.2923 1.03596 33.57 0.927762C33.8189 0.833994 33.9415 0.55269 33.8477 0.303844C33.7936 0.159586 33.6746 0.0658179 33.5412 0.0225404C33.4871 0.00450808 33.433 -0.00270485 33.3789 0.000901615C33.3536 0.000901615 33.3284 0.00811454 33.3032 0.0153275C33.2455 0.0261468 33.1878 0.0405727 33.1373 0.0766373C33.0074 0.163192 32.9245 0.307451 32.9209 0.462529H32.9137Z" fill="#202020"/>
<path id="Vector_11" d="M11.0957 14.3042C10.8288 14.3042 10.6124 14.5206 10.6124 14.7875V23.1472L10.7278 23.0138C10.8577 22.8587 11.0704 22.8046 11.2616 22.8732C11.4527 22.9417 11.579 23.122 11.579 23.324V14.7875C11.579 14.5206 11.3626 14.3042 11.0957 14.3042Z" fill="#202020"/>
<path id="Vector_12" d="M11.2635 22.873C11.0724 22.8044 10.8596 22.8585 10.7298 23.0136L10.6144 23.1471V23.3238C10.6144 23.5906 10.8308 23.807 11.0976 23.807C11.3645 23.807 11.5809 23.5906 11.5809 23.3238C11.5809 23.1218 11.4547 22.9415 11.2635 22.873Z" fill="#202020"/>
<path id="Vector_13" d="M41.1118 14.3042C40.8449 14.3042 40.6285 14.5206 40.6285 14.7875V23.1689C40.6754 23.0354 40.7764 22.9236 40.9171 22.8732C41.1082 22.8046 41.321 22.8587 41.4508 23.0138L41.5951 23.1833V14.7875C41.5951 14.5206 41.3787 14.3042 41.1118 14.3042Z" fill="#202020"/>
<path id="Vector_14" d="M40.9171 22.873C40.78 22.9235 40.6754 23.0353 40.6285 23.1687V23.3238C40.6285 23.5906 40.8449 23.807 41.1118 23.807C41.3787 23.807 41.5951 23.5906 41.5951 23.3238V23.1831L41.4508 23.0136C41.321 22.8585 41.1082 22.8044 40.9171 22.873Z" fill="#202020"/>
</g>
</svg>
