<svg width="24" height="24" viewBox="0 0 24 24" fill="none" xmlns="http://www.w3.org/2000/svg">
<g clip-path="url(#clip0_525_331)">
<path d="M19.6496 3.75C17.6246 1.875 14.9621 0.75 11.9996 0.75C9.03711 0.75 6.37461 1.875 4.34961 3.75H19.6496ZM4.34961 20.25C6.37461 22.125 9.03711 23.25 11.9996 23.25C14.9621 23.25 17.6246 22.125 19.6496 20.25H4.34961Z" fill="#F40A22"/>
<path d="M0.75 12C0.75 13.6125 1.0875 15.1125 1.6875 16.5H22.3125C22.9125 15.1125 23.25 13.6125 23.25 12C23.25 10.3875 22.9125 8.8875 22.3125 7.5H1.6875C1.0875 8.8875 0.75 10.3875 0.75 12Z" fill="#12509B"/>
<path d="M4.35039 20.25H19.6129C20.7379 19.2 21.6754 17.925 22.2754 16.5H1.65039C2.32539 17.925 3.22539 19.2 4.35039 20.25ZM19.6504 3.75H4.35039C3.22539 4.8 2.28789 6.075 1.68789 7.5H22.3129C21.6754 6.075 20.7754 4.8 19.6504 3.75Z" fill="#F9F9F9"/>
<circle cx="12" cy="12" r="11.5" stroke="#202020"/>
</g>
<defs>
<clipPath id="clip0_525_331">
<rect width="24" height="24" fill="white"/>
</clipPath>
</defs>
</svg>
