<svg width="40" height="40" viewBox="0 0 40 40" fill="none" xmlns="http://www.w3.org/2000/svg">
<mask id="mask0_2148_6501" style="mask-type:luminance" maskUnits="userSpaceOnUse" x="2" y="2" width="36" height="36">
<path d="M20.0007 36.6664C22.1898 36.6691 24.3578 36.2392 26.3803 35.4014C28.4027 34.5637 30.2397 33.3346 31.7857 31.7847C33.3355 30.2387 34.5646 28.4017 35.4024 26.3793C36.2402 24.3568 36.67 22.1888 36.6673 19.9997C36.67 17.8106 36.2402 15.6425 35.4024 13.6201C34.5646 11.5976 33.3355 9.76066 31.7857 8.21469C30.2397 6.66482 28.4027 5.4357 26.3803 4.59795C24.3578 3.7602 22.1898 3.33032 20.0007 3.33302C17.8116 3.33032 15.6435 3.7602 13.6211 4.59795C11.5986 5.4357 9.76164 6.66482 8.21566 8.21469C6.6658 9.76066 5.43668 11.5976 4.59893 13.6201C3.76117 15.6425 3.3313 17.8106 3.334 19.9997C3.3313 22.1888 3.76117 24.3568 4.59893 26.3793C5.43668 28.4017 6.6658 30.2387 8.21566 31.7847C9.76164 33.3346 11.5986 34.5637 13.6211 35.4014C15.6435 36.2392 17.8116 36.6691 20.0007 36.6664Z" fill="white" stroke="white" stroke-width="2" stroke-linejoin="round"/>
<path d="M13.334 20L18.334 25L28.334 15" stroke="black" stroke-width="2" stroke-linecap="round" stroke-linejoin="round"/>
</mask>
<g mask="url(#mask0_2148_6501)">
<path d="M0 0H40V40H0V0Z" fill="white"/>
</g>
</svg>
