<svg width="10" height="18" viewBox="0 0 10 18" fill="none" xmlns="http://www.w3.org/2000/svg">
<path d="M9.53104 9.53104L2.03104 17.031C1.96136 17.1007 1.87863 17.156 1.78759 17.1937C1.69654 17.2314 1.59896 17.2508 1.50042 17.2508C1.40187 17.2508 1.30429 17.2314 1.21324 17.1937C1.1222 17.156 1.03947 17.1007 0.969792 17.031C0.900109 16.9614 0.844834 16.8786 0.807122 16.7876C0.76941 16.6965 0.75 16.599 0.75 16.5004C0.75 16.4019 0.76941 16.3043 0.807122 16.2132C0.844834 16.1222 0.900109 16.0395 0.969792 15.9698L7.9401 9.00042L0.969792 2.03104C0.829061 1.89031 0.75 1.69944 0.75 1.50042C0.75 1.30139 0.829061 1.11052 0.969792 0.969792C1.11052 0.829062 1.30139 0.75 1.50042 0.75C1.69944 0.75 1.89031 0.829062 2.03104 0.969792L9.53104 8.46979C9.60077 8.53945 9.65609 8.62216 9.69384 8.71321C9.73158 8.80426 9.75101 8.90186 9.75101 9.00042C9.75101 9.09898 9.73158 9.19657 9.69384 9.28762C9.65609 9.37867 9.60077 9.46139 9.53104 9.53104Z" fill="white"/>
</svg>
