<?xml version="1.0" encoding="UTF-8"?>
<svg id="Layer_1" xmlns="http://www.w3.org/2000/svg" version="1.1" xmlns:xlink="http://www.w3.org/1999/xlink" viewBox="0 0 58 63.6">
  <!-- Generator: Adobe Illustrator 29.3.1, SVG Export Plug-In . SVG Version: 2.1.0 Build 151)  -->
  <defs>
    <style>
      .st0 {
        fill: #91919b;
      }

      .st1 {
        fill: #fff;
      }

      .st2 {
        fill: none;
      }

      .st3 {
        fill: #202020;
      }

      .st4 {
        clip-path: url(#clippath);
      }
    </style>
    <clipPath id="clippath">
      <rect class="st2" x="3.4" width="51.1" height="63.6"/>
    </clipPath>
  </defs>
  <g class="st4">
    <g>
      <path class="st3" d="M45.3,25.1h7.7c.6,0,1.5,1.1,1.4,1.8v29.1s-.4.9-.4.9l-6.3,6.4c-.3.2-.7.4-1,.4H11.1c-.4,0-.7-.1-1-.3-1.6-1.6-3.3-3.2-4.8-4.8-.7-.7-1.8-1.7-1.9-2.6v-29c0-.6.8-1.8,1.4-1.8h7.7v-2.9c0-.2,0-.3,0-.5.3-8.2,1.5-16.8,9.9-20.3,4.5-1.9,8.8-1.8,13.3.2,9,4.1,9.5,14.8,9.5,23.5ZM36.8,5.7c-.4-.9-.9-2.5-1.9-3-2.4-1.2-6-1.6-8.5-1.1-.8.2-3,.7-3.7,1.2-.7.5-1.3,2.1-1.6,2.9,4.3-1.8,9.1-2.1,13.6-.8.7.2,1.4.5,2.1.8h0ZM17.9,25.1c-.3-3.7-.4-7.4,0-11.1.3-3.4,1-6.7,2.3-9.8-3.4,2.4-5,6.4-5.7,10.4-.4,2.2-.6,4.5-.7,6.8v3.8h4.1ZM44,25.1c0-3.1,0-6.2-.5-9.3-.6-4.3-2.2-9-5.8-11.6.3.8.6,1.6.9,2.5,1,3.2,1.3,6.5,1.6,9.7v4.1c0,0-.2,4.5-.2,4.5h4.1ZM38.6,25.1c.5-5.9.4-11.9-1.2-17.6-4.7-2.6-10.8-2.7-15.7-.6-.2,0-1.1.5-1.2.6-1,3.4-1.3,6.9-1.5,10.5v2.9l.3,4.2h19.3,0ZM4.7,26.7v3.6h42.1c.5,0,.7.8.3,1.1,0,0-.4.2-.4.2H4.7v2.4h6.8c.4,0,.6.8.3,1.1,0,0-.4.2-.4.2h-6.7v20.5c2,2,3.9,4.1,6,6.1.2.1,0,.3.4.3,11.9,0,23.9,0,35.9,0l6.2-6.3v-29.3c0-.2-.4-.3-.6-.3H5.3c-.2,0-.6.2-.6.4h0Z"/>
      <path class="st1" d="M4.7,26.7c0-.2.4-.4.6-.4h47.2c.2,0,.5.1.6.3v29.3s-6.2,6.3-6.2,6.3c-11.9.1-23.9,0-35.9,0-.3,0-.2-.2-.4-.3-2.1-2-4-4-6-6.1v-20.5h6.7s.4-.2.4-.2c.4-.3,0-1.1-.3-1.1h-6.8v-2.4h42s.4-.2.4-.2c.3-.3.1-1.1-.3-1.1H4.7v-3.6h0Z"/>
      <path class="st1" d="M17.9,25.1h-4.1v-3.8c.1-2.3.3-4.5.7-6.8.7-3.9,2.3-8,5.7-10.4-1.3,3.1-2,6.5-2.3,9.8-.4,3.7-.3,7.4,0,11.1h0Z"/>
      <path class="st1" d="M44,25.1h-4.1l.3-4.5v-4.1c-.3-3.3-.7-6.6-1.6-9.7-.3-.8-.6-1.7-.9-2.5,3.7,2.6,5.2,7.3,5.8,11.6.4,3.1.5,6.2.5,9.3Z"/>
      <path class="st1" d="M36.8,5.7c-.7-.3-1.4-.6-2.1-.8-4.5-1.3-9.3-1.1-13.6.8.4-.8.9-2.4,1.6-2.9.7-.5,2.8-1,3.7-1.2,2.6-.5,6.2-.2,8.5,1.1.9.5,1.5,2.1,1.9,3h0Z"/>
      <rect class="st0" x="10.4" y="36.2" width="37.1" height="19.4"/>
    </g>
  </g>
</svg>