<?xml version="1.0" encoding="UTF-8"?>
<svg id="Layer_1" xmlns="http://www.w3.org/2000/svg" version="1.1" viewBox="0 0 386 480">
  <!-- Generator: Adobe Illustrator 29.3.1, SVG Export Plug-In . SVG Version: 2.1.0 Build 151)  -->
  <defs>
    <style>
      .st0 {
        fill: #fff;
      }

      .st1 {
        fill: #202020;
      }
    </style>
  </defs>
  <path class="st1" d="M301.9,188.7h51.8c3.8,0,10.2,8.5,9.6,13.1v215.3c0,0-2.4,6.7-2.4,6.7l-42,47.2c-1.9,1.8-4.4,3-6.9,3.2H73.7c-2.4,0-4.7-1-6.6-2.5-10.6-12.1-21.7-23.6-32.2-35.8-4.4-5.1-12.1-12.3-12.8-19.3v-214.8c-.7-4.6,5.7-13.1,9.5-13.1h51.8v-21.5c0-1.2.4-2.2.5-3.4,1.7-60.7,9.9-124.6,66.2-150.6C180.1-.8,208.8-.2,238.6,14.8c60.2,30.3,63.3,109.8,63.2,173.9ZM245,45c-2.7-6.9-6.1-18.8-12.4-22.5-15.7-9.1-39.8-11.5-57-8-5.6,1.2-20.1,5.4-24.5,8.8-4.9,3.8-8.5,15.7-11,21.6,28.6-13.5,60.8-15.5,90.6-5.7,4.8,1.6,9.5,3.7,14.2,5.7h0ZM119.2,188.7c-1.7-27.4-2.4-54.8,0-82.2,2.2-24.8,6.8-49.9,15.5-72.9-22.5,17.6-33.1,47.8-38.1,77-2.8,16.6-3.7,33.4-4.6,50.2v27.9h27.1ZM293,188.7c.2-23-.2-46.1-3.2-68.8-4.2-32-14.4-66.4-39-85.8,1.9,6.2,4.2,12.1,5.9,18.4,6.4,23.4,9,47.9,10.6,72.2l.4,30.7-1.8,33.3h27.1ZM257,188.7c3.6-43.6,2.4-88.3-8.1-130.5-31.5-19-71.9-20.1-104.8-4.5-1.5.7-7.4,3.4-7.9,4.5-6.5,25.2-8.8,51.3-9.9,77.4v21.8l1.8,31.3h128.8,0ZM30.8,417.2c13.2,15,26.3,30.4,40,44.9,1,1.1.6,1.9,2.4,2.2,79.8-.2,159.8.6,239.5-.4l41.3-46.5v-217.2c-.6-1.3-2.7-2.1-4-2.1H35c-1.4-.2-3.9,1.3-4.2,2.7h0v216.3Z"/>
  <g>
    <path class="st0" d="M31.7,113.1h321.7c5.5,0,10,4.5,10,10v341.7c0,5.5-4.5,10-10,10H31.7c-5.5,0-10-4.5-10-10V123.1c0-5.5,4.5-10,10-10Z"/>
    <path class="st1" d="M353.4,117.6c3,0,5.5,2.4,5.5,5.5v341.7c0,3-2.4,5.5-5.5,5.5H31.7c-3,0-5.5-2.4-5.5-5.5V123.1c0-3,2.4-5.5,5.5-5.5h321.7M353.4,108.6H31.7c-8,0-14.5,6.5-14.5,14.5v341.7c0,8,6.5,14.5,14.5,14.5h321.7c8,0,14.5-6.5,14.5-14.5V123.1c0-8-6.5-14.5-14.5-14.5h0Z"/>
  </g>
</svg>