<?xml version="1.0" encoding="UTF-8"?>
<svg id="Layer_1" xmlns="http://www.w3.org/2000/svg" version="1.1" viewBox="0 0 386 480">
  <!-- Generator: Adobe Illustrator 29.3.1, SVG Export Plug-In . SVG Version: 2.1.0 Build 151)  -->
  <defs>
    <style>
      .st0 {
        fill: #fff;
      }

      .st1 {
        fill: #202020;
      }
    </style>
  </defs>
  <path class="st0" d="M258.9,127H19.3c-3.3,0-5.9,2.3-5.9,5.2l9.2,229.3,2.4,60.6,1.7,41.6c0,3.1,2.5,5.5,5.5,5.5h321.7c3.1,0,5.5-2.5,5.5-5.5l1.6-40.6,2.8-69.1,8.9-221.8c0-2.9-2.7-5.2-5.9-5.2h-107.8Z"/>
  <path class="st0" d="M251.2,32.9c1.9,6.2,4.2,12.1,5.9,18.4,6,21.8,8.6,44.6,10.3,67.2h22.8c-4.2-32-14.4-66.3-39-85.6Z"/>
  <path class="st0" d="M119.6,105.3c2.2-24.8,6.8-49.9,15.5-72.9-22.5,17.6-33.1,47.8-38.1,77-.5,3-.9,6.1-1.3,9.1h23c.2-4.4.5-8.8.9-13.2Z"/>
  <path class="st0" d="M231.2,38c4.8,1.6,9.5,3.7,14.2,5.7h.1c-2.7-6.8-6.1-18.7-12.4-22.4-15.7-9.1-39.8-11.5-57-8-5.6,1.2-20.1,5.4-24.5,8.8-4.9,3.8-8.5,15.7-11,21.6,28.6-13.5,60.8-15.5,90.6-5.7Z"/>
  <path class="st1" d="M97,109.4c5-29.2,15.6-59.4,38.1-77-8.7,23-13.3,48.1-15.5,72.9-.4,4.4-.7,8.8-.9,13.2h8.9c1.4-20.8,3.9-41.4,9.1-61.5.5-1.1,6.4-3.8,7.9-4.5,32.9-15.6,73.3-14.5,104.8,4.5,5,20.1,7.9,40.7,9.1,61.5h8.9c-1.6-22.7-4.3-45.4-10.3-67.2-1.7-6.3-4-12.2-5.9-18.4,24.6,19.4,34.8,53.7,39,85.6h8.8c-5.6-44-20.5-85.1-60-104.9-29.8-15-58.5-15.6-88.5-1.6-42.7,19.7-57.7,61.2-63.2,106.5h8.4c.4-3,.8-6.1,1.3-9.1ZM151.5,22.1c4.4-3.4,18.9-7.6,24.5-8.8,17.2-3.5,41.3-1.1,57,8,6.3,3.7,9.7,15.6,12.4,22.5h-.1c-4.7-2.1-9.4-4.2-14.2-5.8-29.8-9.8-62-7.8-90.6,5.7,2.5-5.9,6.1-17.8,11-21.6Z"/>
  <path class="st1" d="M258.7,122.7c0-1.4-.2-2.8-.2-4.2H127.6c0,1.4-.2,2.8-.3,4.2h131.4Z"/>
  <path class="st1" d="M118.7,118.5h-23c-.2,1.4-.4,2.8-.5,4.2h23.3c0-1.4.1-2.8.2-4.2Z"/>
  <path class="st1" d="M366.7,118.5h-67.7c.2,1.4.3,2.8.5,4.2h67.2c5.9,0,10.8,4.2,10.8,9.4l-13.7,331.5c0,5.5-4.5,10-10,10H32.1c-5.5,0-10-4.5-10-10L8.5,132.1c0-5.2,4.9-9.4,10.8-9.4h67.5c.2-1.4.3-2.8.5-4.2H19.3c-8.6,0-15.7,6.1-15.7,13.6l14,331.5c0,8,6.5,14.5,14.5,14.5h321.7c8,0,14.5-6.5,14.5-14.5l14-331.5c0-7.5-7-13.6-15.7-13.6Z"/>
  <path class="st1" d="M290.8,122.7c-.2-1.4-.3-2.7-.5-4,0,0,0-.1,0-.2h-22.8c.1,1.4.2,2.8.3,4.2h23.1Z"/>
  <path class="st1" d="M290.2,118.7c.2,1.3.3,2.7.5,4h8.8c-.2-1.4-.3-2.8-.5-4.2h-8.8c0,0,0,.1,0,.2Z"/>
  <path class="st1" d="M95.2,122.7c.2-1.4.3-2.8.5-4.2h-8.4c-.2,1.4-.3,2.8-.5,4.2h8.4Z"/>
  <path class="st1" d="M127.3,122.7c0-1.4.2-2.8.3-4.2h-8.9c0,1.4-.1,2.8-.2,4.2h8.8Z"/>
  <path class="st1" d="M267.7,122.7c0-1.4-.2-2.8-.3-4.2h-8.9c0,1.4.2,2.8.2,4.2h9Z"/>
  <path class="st1" d="M258.9,127c0-1.4-.1-2.8-.2-4.2H127.3c0,1.4-.2,2.8-.2,4.2h131.8Z"/>
  <path class="st1" d="M267.8,123.5v3.5h23.5c-.1-1.4-.3-2.8-.5-4.2h-23.1c0,.2,0,.5,0,.8Z"/>
  <path class="st1" d="M366.7,127h0,0c3.2,0,5.9,2.2,5.9,5.2l-8.9,221.8v62l-2.4,6.7-.4.4-1.6,40.6c0,3-2.4,5.5-5.5,5.5h-33.9l-.6.7c-1.9,1.8-4.4,3-6.9,3.2H74.1c-2.4,0-4.7-1-6.6-2.5-.4-.5-.8-.9-1.2-1.4h-34.2c-3,0-5.5-2.4-5.5-5.5l-1.7-41.6c-1.3-2.2-2.2-4.4-2.4-6.6v-54l-9.2-229.3c0-2.8,2.6-5.2,5.9-5.2h67.1c.1-1.4.3-2.8.4-4.2H19.3c-5.9,0-10.8,4.2-10.8,9.4l13.7,331.5c0,5.5,4.5,10,10,10h321.7c5.5,0,10-4.5,10-10l13.7-331.5c0-5.2-4.9-9.4-10.8-9.4h-67.2c.2,1.4.3,2.8.4,4.2h66.7Z"/>
  <path class="st1" d="M118.4,127c0-1.4.1-2.8.2-4.2h-23.3c-.2,1.4-.3,2.8-.5,4.2h23.6Z"/>
  <path class="st1" d="M267.8,127v-3.5c0-.2,0-.5,0-.8h-9c0,1.4.1,2.8.2,4.2h8.9Z"/>
  <path class="st1" d="M94.7,127c.1-1.4.3-2.8.5-4.2h-8.4c-.2,1.4-.3,2.8-.4,4.2h8.3Z"/>
  <path class="st1" d="M291.2,127h8.7c-.1-1.4-.3-2.8-.4-4.2h-8.8c.2,1.4.3,2.8.5,4.2Z"/>
  <path class="st1" d="M127.3,122.7h-8.8c0,1.4-.1,2.8-.2,4.2h8.7c0-1.4.2-2.8.2-4.2Z"/>
  <path class="st1" d="M67.5,470.5c1.9,1.5,4.2,2.5,6.6,2.5h238.3c2.5-.2,5-1.4,6.9-3.2l.6-.7H66.3c.4.5.8.9,1.2,1.4Z"/>
  <polygon class="st1" points="361.3 422.6 363.8 415.9 363.8 353.9 361 423 361.3 422.6"/>
  <path class="st1" d="M22.5,415.4c.2,2.2,1.1,4.4,2.4,6.6l-2.4-60.6v54Z"/>
</svg>