<?xml version="1.0" encoding="UTF-8"?>
<svg id="Layer_1" xmlns="http://www.w3.org/2000/svg" version="1.1" viewBox="0 0 608 480">
  <!-- Generator: Adobe Illustrator 29.3.1, SVG Export Plug-In . SVG Version: 2.1.0 Build 151)  -->
  <defs>
    <style>
      .st0 {
        fill: #fff;
      }

      .st1 {
        fill: #202020;
      }
    </style>
  </defs>
  <path class="st0" d="M216.1,0c.3,0,.6,0,.9.1-.4,0-.6,0-.9-.1Z"/>
  <path class="st0" d="M214.4.3c.6-.2,1.1-.3,1.7-.2-.6,0-1.1,0-1.7.2Z"/>
  <g>
    <path class="st1" d="M195.2,122.7c5.7-33.1,17.7-67.4,43.2-87.3-9.9,26.1-15.1,54.5-17.6,82.7-.5,5-.8,10-1,15h10.1c1.6-23.6,4.4-46.9,10.3-69.7.6-1.2,7.3-4.3,9-5.1,37.3-17.7,83.1-16.4,118.8,5.1,5.7,22.8,9,46.2,10.3,69.7h10.1c-1.8-25.7-4.9-51.5-11.7-76.2-1.9-7.1-4.5-13.8-6.7-20.9,27.9,22,39.5,60.9,44.2,97.1h10c-6.4-49.9-23.2-96.5-68-119-33.8-17-66.3-17.7-100.4-1.8-48.4,22.3-65.4,69.4-71.7,120.8h9.5c.5-3.4.9-6.9,1.5-10.3ZM257,23.7c5-3.9,21.4-8.6,27.8-10,19.5-4,46.8-1.2,64.6,9.1,7.1,4.2,11,17.7,14.1,25.5h-.1c-5.3-2.4-10.7-4.8-16.1-6.6-33.8-11.1-70.3-8.8-102.7,6.5,2.8-6.7,6.9-20.2,12.5-24.5Z"/>
    <path class="st0" d="M371,83.1H127.6c-3.4,0-6,2.6-6,5.9l9.3,260,2.4,68.7,1.7,47.2c0,3.5,2.5,6.2,5.6,6.2h326.8c3.1,0,5.6-2.8,5.6-6.2l1.6-46,2.8-78.4,9-251.5c0-3.3-2.7-5.9-6-5.9h-109.6Z"/>
    <path class="st0" d="M370.1,35.9c2.2,7,4.8,13.7,6.7,20.9,6.8,24.7,9.8,50.6,11.7,76.2h25.9c-4.8-36.3-16.3-75.2-44.2-97.1h0Z"/>
    <path class="st0" d="M220.8,118c2.5-28.1,7.7-56.6,17.6-82.7-25.5,20-37.5,54.2-43.2,87.3-.6,3.4-1,6.9-1.5,10.3h26.1c.2-5,.6-10,1-15Z"/>
    <path class="st0" d="M347.4,41.7c5.4,1.8,10.8,4.2,16.1,6.5h.1c-3.1-7.7-6.9-21.2-14.1-25.4-17.8-10.3-45.1-13-64.6-9.1-6.4,1.4-22.8,6.1-27.8,10-5.6,4.3-9.6,17.8-12.5,24.5,32.4-15.3,68.9-17.6,102.7-6.5h0Z"/>
    <path class="st1" d="M370.8,78.2c0-1.6-.2-3.2-.2-4.8h-133c0,1.6-.2,3.2-.3,4.8h133.5Z"/>
    <path class="st1" d="M228.6,73.4h-23.4c-.2,1.6-.4,3.2-.5,4.8h23.7c0-1.6.1-3.2.2-4.8Z"/>
    <path class="st1" d="M480.5,73.4h-68.8c.2,1.6.3,3.2.5,4.8h68.3c6,0,11,4.8,11,10.7l-13.9,375.9c0,6.2-4.6,11.3-10.2,11.3H140.6c-5.6,0-10.2-5.1-10.2-11.3l-13.8-375.9c0-5.9,5-10.7,11-10.7h68.6c.2-1.6.3-3.2.5-4.8h-69.1c-8.7,0-15.9,6.9-15.9,15.4l14.2,375.9c0,9.1,6.6,16.4,14.7,16.4h326.8c8.1,0,14.7-7.4,14.7-16.4l14.2-375.9c0-8.5-7.1-15.4-15.9-15.4h.1Z"/>
    <path class="st1" d="M403.4,78.2c-.2-1.6-.3-3.1-.5-4.5v-.2h-23.2c.1,1.6.2,3.2.3,4.8h23.5-.1Z"/>
    <path class="st1" d="M402.8,73.7c.2,1.5.3,3.1.5,4.5h8.9c-.2-1.6-.3-3.2-.5-4.8h-8.9v.2Z"/>
    <path class="st1" d="M204.7,78.2c.2-1.6.3-3.2.5-4.8h-8.5c-.2,1.6-.3,3.2-.5,4.8h8.5Z"/>
    <path class="st1" d="M237.3,78.2c0-1.6.2-3.2.3-4.8h-9c0,1.6-.1,3.2-.2,4.8,0,0,8.9,0,8.9,0Z"/>
    <path class="st1" d="M379.9,78.2c0-1.6-.2-3.2-.3-4.8h-9c0,1.6.2,3.2.2,4.8h9.1,0Z"/>
    <path class="st1" d="M371,83.1c0-1.6-.1-3.2-.2-4.8h-133.5c0,1.6-.2,3.2-.2,4.8h133.9,0Z"/>
    <path class="st1" d="M380,79.1v4h23.9c-.1-1.6-.3-3.2-.5-4.8h-23.5v.9h.1Z"/>
    <path class="st1" d="M480.5,83.1h0c3.3,0,6,2.5,6,5.9l-9,251.5v70.3l-2.4,7.6-.4.5-1.6,46c0,3.4-2.4,6.2-5.6,6.2h-34.4l-.6.8c-1.9,2-4.5,3.4-7,3.6h-242.1c-2.4,0-4.8-1.1-6.7-2.8-.4-.6-.8-1-1.2-1.6h-34.7c-3,0-5.6-2.7-5.6-6.2l-1.7-47.2c-1.3-2.5-2.2-5-2.4-7.5v-61.2l-9.3-260c0-3.2,2.6-5.9,6-5.9h68.2c.1-1.6.3-3.2.4-4.8h-68.5c-6,0-11,4.8-11,10.7l13.9,375.9c0,6.2,4.6,11.3,10.2,11.3h326.8c5.6,0,10.2-5.1,10.2-11.3l13.9-375.9c0-5.9-5-10.7-11-10.7h-68.3c.2,1.6.3,3.2.4,4.8,0,0,67.8,0,67.8,0Z"/>
    <path class="st1" d="M228.3,83.1c0-1.6.1-3.2.2-4.8h-23.7c-.2,1.6-.3,3.2-.5,4.8h24Z"/>
    <path class="st1" d="M380,83.1v-4.9h-9.1c0,1.6.1,3.2.2,4.8h9-.1Z"/>
    <path class="st1" d="M204.2,83.1c.1-1.6.3-3.2.5-4.8h-8.5c-.2,1.6-.3,3.2-.4,4.8h8.4Z"/>
    <path class="st1" d="M403.8,83.1h8.8c-.1-1.6-.3-3.2-.4-4.8h-8.9c.2,1.6.3,3.2.5,4.8h0Z"/>
    <path class="st1" d="M237.3,78.2h-8.9c0,1.6-.1,3.2-.2,4.8h8.8c0-1.6.2-3.2.2-4.8h.1Z"/>
    <path class="st1" d="M176.6,472.6c1.9,1.7,4.3,2.8,6.7,2.8h242.1c2.5-.2,5.1-1.6,7-3.6l.6-.8H175.3c.4.6.8,1,1.2,1.6h0Z"/>
    <polygon class="st1" points="475 418.3 477.6 410.7 477.6 340.4 474.7 418.7 475 418.3"/>
    <path class="st1" d="M130.8,410.1c.2,2.5,1.1,5,2.4,7.5l-2.4-68.7v61.2Z"/>
  </g>
</svg>