<svg width="40" height="40" viewBox="0 0 40 40" fill="none" xmlns="http://www.w3.org/2000/svg">
<path d="M25.6093 12.5156C26.0379 13.7138 26.2547 14.9775 26.25 16.25C26.25 19.2337 25.0648 22.0952 22.9549 24.205C20.8452 26.3147 17.9837 27.5 15 27.5H14.3906C15.1662 29.6938 16.6031 31.5932 18.5032 32.9364C20.4033 34.2796 22.6731 35.0006 25 35H35.3125C35.5611 35 35.7996 34.9012 35.9754 34.7254C36.1513 34.5496 36.25 34.3111 36.25 34.0625V23.75C36.254 20.8705 35.1523 18.0995 33.1721 16.0089C31.1921 13.9183 28.4848 12.6678 25.6093 12.5156Z" fill="#1C1C1C" fill-opacity="0.1"/>
<path fill-rule="evenodd" clip-rule="evenodd" d="M19.7835 4.70151C19.7835 4.70151 17.4864 3.75 15 3.75H14.9991C14.9991 3.75 12.5132 3.75017 10.2165 4.70151C10.2165 4.70151 7.91932 5.65301 6.16117 7.41117C6.16117 7.41117 4.40301 9.16932 3.45151 11.4665C3.45151 11.4665 2.5 13.7636 2.5 16.25V26.5625C2.5 26.5625 2.5 27.4686 3.14071 28.1093C3.14071 28.1093 3.78141 28.75 4.6875 28.75H15C15 28.75 17.4864 28.75 19.7835 27.7985C19.7835 27.7985 22.0807 26.847 23.8388 25.0888C23.8388 25.0888 25.597 23.3307 26.5485 21.0335C26.5485 21.0335 27.5 18.7364 27.5 16.25C27.5 16.25 27.5 13.7636 26.5485 11.4665C26.5485 11.4665 25.597 9.16932 23.8388 7.41116C23.8388 7.41116 22.0807 5.65301 19.7835 4.70151ZM25 16.25C25 16.25 25 14.2609 24.2388 12.4232C24.2388 12.4232 23.4776 10.5855 22.0711 9.17893C22.0711 9.17893 20.6645 7.77241 18.8268 7.0112C18.8268 7.0112 16.9895 6.25016 15.0008 6.25L15 6.25C15 6.25 13.0109 6.25 11.1732 7.0112C11.1732 7.0112 9.33546 7.77241 7.92893 9.17893C7.92893 9.17893 6.52241 10.5855 5.7612 12.4232C5.7612 12.4232 5 14.2609 5 16.25L5 26.25H15C15 26.25 16.9891 26.25 18.8268 25.4888C18.8268 25.4888 20.6645 24.7276 22.0711 23.3211C22.0711 23.3211 23.4776 21.9145 24.2388 20.0768C24.2388 20.0768 25 18.2391 25 16.25Z" fill="#1C1C1C"/>
<path d="M25.6754 11.2674C25.6534 11.2662 25.6314 11.2656 25.6094 11.2656C25.5551 11.2656 25.501 11.2692 25.4472 11.2762C24.8497 11.3544 24.393 11.8478 24.3611 12.4496C24.36 12.4716 24.3594 12.4936 24.3594 12.5156C24.3594 12.5338 24.3598 12.552 24.3606 12.5702C24.3732 12.8598 24.4861 13.136 24.68 13.3516C24.9017 13.598 25.2123 13.7464 25.5433 13.7639C29.5237 13.9745 32.2646 16.8684 32.2646 16.8684C35.0056 19.7623 35 23.7483 35 23.7483V33.75H25C21.8206 33.7508 19.2247 31.9157 19.2247 31.9157C16.6292 30.0808 15.5695 27.0842 15.5695 27.0842L15.5691 27.0833C15.3926 26.5839 14.9204 26.25 14.3906 26.25L14.3753 26.2501C14.2385 26.2518 14.1029 26.2759 13.974 26.3215C13.6614 26.432 13.4055 26.6621 13.2627 26.9613C13.1823 27.1295 13.1406 27.3136 13.1406 27.5L13.1409 27.5271C13.1438 27.6599 13.1678 27.7914 13.2121 27.9167C14.5367 31.6632 17.7816 33.9571 17.7816 33.9571C21.0265 36.251 25 36.25 25 36.25H35.3125C36.2186 36.25 36.8593 35.6093 36.8593 35.6093C37.5 34.9686 37.5 34.0625 37.5 34.0625V23.7517C37.5034 21.3519 36.6167 19.1218 36.6167 19.1218C35.73 16.8917 34.0797 15.1493 34.0797 15.1493C32.4294 13.4069 30.2507 12.4005 30.2507 12.4005C28.0724 11.3944 25.6763 11.2674 25.6763 11.2674L25.6754 11.2674Z" fill="#1C1C1C"/>
</svg>
