<?xml version="1.0" encoding="UTF-8"?>
<svg id="Layer_1" xmlns="http://www.w3.org/2000/svg" version="1.1" viewBox="0 0 72 72">
  <!-- Generator: Adobe Illustrator 29.3.1, SVG Export Plug-In . SVG Version: 2.1.0 Build 151)  -->
  <defs>
    <style>
      .st0 {
        fill: #91919b;
      }

      .st1 {
        fill: #202020;
      }
    </style>
  </defs>
  <path class="st0" d="M5.3,15.5h28.1c1.4,0,2.6,1.1,2.6,2.6v35.8c0,1.4-1.1,2.6-2.6,2.6H5.3V15.5Z"/>
  <path class="st1" d="M59.5,12.6v-3.6c0-1.2-.5-2.4-1.3-3.3-.9-.9-2-1.3-3.3-1.3H6.3c-1.2,0-2.4.5-3.3,1.3-.9.9-1.3,2-1.3,3.3v35.1c0,5.5,1,10.9,3.1,16,1,2.3,2.7,4.2,4.9,5.6,2.1,1.3,4.6,2,7.2,1.9h27.6c2.5,0,5-.6,7.2-1.9,2.1-1.3,3.8-3.3,4.9-5.6,1.5-3.8,2.5-7.9,2.8-12l4-2c2.1-1.1,3.9-2.7,5.1-4.7,1.2-2,1.9-4.3,1.9-6.7v-9.5c0-3-1.1-6-3.1-8.3-2-2.3-4.7-3.8-7.8-4.3ZM52.8,58.7c-.8,1.6-2,2.9-3.5,3.8-1.5.9-3.2,1.3-5,1.2h-27.6c-1.7,0-3.5-.3-5-1.2-1.5-.9-2.7-2.2-3.5-3.8-1.9-4.7-2.8-9.6-2.8-14.6V9c0-.2,0-.4.2-.5.1-.1.3-.2.5-.2h48.6c.2,0,.4,0,.5.2s.2.3.2.5v35.1c0,5-1,10-2.8,14.6ZM66.4,34.7c0,1.7-.4,3.3-1.3,4.7-.9,1.4-2.1,2.5-3.6,3.3l-2.1,1v-27.1c2,.4,3.7,1.5,5,3.1,1.3,1.6,2,3.5,2,5.6v9.5Z"/>
</svg>