<?xml version="1.0" encoding="UTF-8"?>
<svg id="Layer_1" xmlns="http://www.w3.org/2000/svg" version="1.1" viewBox="0 0 608 480">
  <!-- Generator: Adobe Illustrator 29.3.1, SVG Export Plug-In . SVG Version: 2.1.0 Build 151)  -->
  <defs>
    <style>
      .st0 {
        fill: #111;
      }

      .st1 {
        fill: #fff;
      }
    </style>
  </defs>
  <path class="st1" d="M216.1,0c.3,0,.6,0,.9.1-.4,0-.6,0-.9-.1Z"/>
  <path class="st1" d="M214.4.3c.6-.2,1.1-.3,1.7-.2-.6,0-1.1,0-1.7.2Z"/>
  <g>
    <path class="st1" d="M507.8,359.7c-2.4.8-4.8,1.3-6.7,1.3l-43.6-7.9V33.4h-165.2v439.6h137.7c15.2,0,27.5-12.9,27.5-28.8v-28.2h43.9c12.1,0,26-3.9,39-11.1l-32.4-45.2h0Z"/>
    <path class="st1" d="M578.8,142.7c-13.7-32.6-50.3-52.3-77.7-52.4h-43.8v62.8l43.6-7.8c9.4,0,25.5,9.5,29.5,19,11.2,28.3,17,58.2,17,88.9s-5.7,60.6-16.8,88.4c-3.3,7.9-13.9,15.3-22.9,18.2l32.4,45.2c16.3-9,31.1-23.3,38.9-41.8,13.9-35,21-72,21-110s-7-74.9-21.2-110.5Z"/>
    <path class="st1" d="M127,33.4v410.8c0,15.9,12.3,28.8,27.5,28.8h137.7V33.4H127Z"/>
    <path class="st0" d="M501,138.2s-.8,0-1.2.1l-35.7,6.4v-19.4c0-3.9-3-7.1-6.8-7.1s-6.8,3.2-6.8,7.1v255.6c0,3.9,3,7.1,6.8,7.1s6.8-3.2,6.8-7.1v-19.4l35.7,6.4c.4,0,.8.1,1.1.1,11.8,0,30.4-10.7,35.9-23.7h0c11.4-29,17.3-59.6,17.3-91.2s-5.9-62.4-17.5-91.7c-5.2-12.5-24-23.2-35.7-23.2h0ZM524.5,338.8c-3,7-15.9,14.7-23,15.2l-37.4-6.7v-188.1l37.3-6.7c6.9.4,20.1,8.1,22.8,14.6,10.9,27.4,16.4,56.4,16.4,86.2s-5.5,58.5-16.2,85.6h0Z"/>
    <path class="st0" d="M585,139.9c-14.8-35.3-54.3-56.5-84-56.6h-37v-49.9c0-3.9-3-7.1-6.8-7.1H127c-3.7,0-6.8,3.2-6.8,7.1v410.8c0,19.8,15.4,35.9,34.3,35.9h275.3c18.9,0,34.3-16.1,34.3-35.9v-21.1h37.1c29.2-.1,68.6-20.2,84.1-57.2,14.3-35.9,21.5-73.7,21.5-112.7s-7.3-77-21.7-113.2h0c0-.1,0,0,0,0ZM572.8,360.3c-12.7,30.3-46.4,48.5-71.7,48.6h-43.8c-3.7,0-6.8,3.2-6.8,7.1v28.2c0,12-9.3,21.7-20.8,21.7H154.5c-11.4,0-20.8-9.7-20.8-21.7V40.4h316.9v49.9c0,3.9,3,7.1,6.8,7.1h43.7c25.3.1,58.9,18.1,71.6,48.1,13.7,34.4,20.6,70.6,20.6,107.6s-6.9,73.1-20.4,107.1Z"/>
  </g>
</svg>