<svg width="56" height="72" viewBox="0 0 56 72" fill="none" xmlns="http://www.w3.org/2000/svg">
<path fill-rule="evenodd" clip-rule="evenodd" d="M11 6C8.23858 6 6 8.23858 6 11V61C6 63.7614 8.23858 66 11 66H45C47.7614 66 50 63.7614 50 61V26H33C31.3431 26 30 24.6569 30 23V6H11ZM36 10.2426L45.7574 20H36V10.2426ZM0 11C0 4.92487 4.92487 0 11 0H33C33.7956 0 34.5587 0.316071 35.1213 0.87868L55.1213 20.8787C55.6839 21.4413 56 22.2044 56 23V61C56 67.0751 51.0751 72 45 72H11C4.92487 72 0 67.0751 0 61V11Z" fill="#E4E4E7"/>
</svg>
