<svg width="65" height="80" viewBox="0 0 65 80" fill="none" xmlns="http://www.w3.org/2000/svg">
<g clip-path="url(#clip0_1716_5797)">
<path d="M52.9359 31.5231H62.6825C63.4062 31.5231 64.5967 32.9597 64.4846 33.7422L64.4729 70.3012L64.0236 71.4443L56.1167 79.4525C55.7595 79.7594 55.296 79.9565 54.8224 80.0001H9.97195C9.5185 79.9976 9.08764 79.829 8.72037 79.5775C6.73339 77.5186 4.63096 75.5662 2.65234 73.4998C1.82158 72.6326 0.368364 71.4082 0.238688 70.2165L0.226139 33.7422C0.114031 32.9589 1.30371 31.5231 2.02822 31.5231H11.7749L11.7715 27.8716C11.7765 27.6737 11.856 27.4901 11.8619 27.2913C12.1806 16.9911 13.72 6.14236 24.3267 1.7118C30.0158 -0.664919 35.4212 -0.560927 41.029 1.98771C52.3661 7.13951 52.9426 20.6316 52.9359 31.5231ZM42.2271 7.1177C41.7134 5.94192 41.0726 3.92247 39.8871 3.30019C36.9304 1.7487 32.4018 1.34196 29.1607 1.94494C28.1049 2.14119 25.3733 2.85739 24.5468 3.44192C23.6315 4.0902 22.9505 6.11301 22.4828 7.11687C27.8665 4.82569 33.9311 4.48771 39.5499 6.15326C40.4593 6.42247 41.3436 6.77805 42.2271 7.11687V7.1177ZM18.5507 31.5231C18.2328 26.867 18.093 22.2125 18.5507 17.5605C18.9665 13.3413 19.8391 9.09271 21.4772 5.18966C17.2397 8.17691 15.2377 13.3019 14.309 18.2566C13.7819 21.0694 13.6037 23.9334 13.4423 26.7806L13.4456 31.5223H18.549L18.5507 31.5231ZM51.2626 31.5231C51.3028 27.6192 51.2275 23.7011 50.6628 19.8383C49.8696 14.4106 47.9454 8.5585 43.3155 5.27352C43.6736 6.31848 44.1045 7.33575 44.4241 8.39664C45.6213 12.3693 46.1174 16.5256 46.4135 20.6593L46.498 25.8664L46.1592 31.5231H51.2626ZM44.486 31.5231C45.1661 24.1246 44.9428 16.5348 42.965 9.35605C37.0392 6.1323 29.431 5.94612 23.2391 8.58869C22.9522 8.71113 21.8495 9.16568 21.7491 9.3594C20.5335 13.634 20.0942 18.0754 19.8868 22.5043V26.2011L20.2248 31.5231H44.4868H44.486ZM1.90189 33.5778V38.1484H54.8183C55.3897 38.1484 55.6515 39.1212 55.2525 39.5481C55.2048 39.5993 54.7731 39.8257 54.7346 39.8257H1.90189V42.8448H10.4773C10.9198 42.8448 11.262 43.8713 10.8144 44.273C10.7542 44.3275 10.3551 44.5221 10.3099 44.5221H1.90189V70.3104C4.38499 72.8649 6.8547 75.4773 9.43568 77.9404C9.62475 78.1216 9.54779 78.2616 9.89582 78.3119C24.9232 78.2767 39.9816 78.4201 54.9898 78.2398L62.762 70.3482L62.7461 33.4713C62.6432 33.249 62.2592 33.109 62.0174 33.1115H2.6925C2.43566 33.0763 1.95627 33.3371 1.90189 33.5769V33.5778Z" fill="#202020"/>
<path d="M1.90234 33.578C1.95672 33.3382 2.43611 33.0774 2.69295 33.1126H62.0178C62.2596 33.1101 62.6436 33.2501 62.7465 33.4724L62.7624 70.3493L54.9902 78.2409C39.982 78.4204 24.9237 78.2778 9.89627 78.313C9.54823 78.2627 9.6252 78.1218 9.43613 77.9415C6.85431 75.4784 4.38544 72.866 1.90234 70.3115V44.5232H10.3104C10.3556 44.5232 10.7546 44.3286 10.8149 44.2741C11.2625 43.8716 10.9203 42.8459 10.4777 42.8459H1.90234V39.8268H54.735C54.7735 39.8268 55.2052 39.6012 55.2529 39.5492C55.652 39.1223 55.3901 38.1495 54.8187 38.1495H1.90234V33.5789V33.578Z" fill="white"/>
<path d="M18.5501 31.523H13.4467L13.4434 26.7813C13.604 23.9341 13.783 21.0693 14.3101 18.2574C15.2379 13.3018 17.2408 8.17684 21.4783 5.19043C19.8402 9.09348 18.9676 13.3421 18.5518 17.5613C18.0933 22.2132 18.2339 26.8677 18.5518 31.5239L18.5501 31.523Z" fill="white"/>
<path d="M51.2635 31.523H46.1601L46.4989 25.8664L46.4144 20.6592C46.1191 16.5255 45.623 12.3684 44.4249 8.39655C44.1053 7.33566 43.6745 6.31839 43.3164 5.27344C47.9463 8.55841 49.8705 14.4105 50.6636 19.8382C51.2283 23.701 51.3036 27.62 51.2635 31.523Z" fill="white"/>
<path d="M42.2267 7.11721C41.3432 6.7784 40.4589 6.42365 39.5495 6.1536C33.9308 4.48806 27.8661 4.82519 22.4824 7.11721C22.9493 6.11335 23.6303 4.0897 24.5464 3.44227C25.373 2.85773 28.1045 2.14153 29.1603 1.94529C32.4014 1.3423 36.9301 1.74904 39.8867 3.30054C41.0722 3.92281 41.7139 5.94143 42.2267 7.11805V7.11721Z" fill="white"/>
</g>
<defs>
<clipPath id="clip0_1716_5797">
<rect width="64.2735" height="80" fill="white" transform="translate(0.21875)"/>
</clipPath>
</defs>
</svg>
