<svg width="91" height="80" viewBox="0 0 91 80" fill="none" xmlns="http://www.w3.org/2000/svg">
<path d="M71.9294 58.7956C71.4798 58.9355 71.0501 59.0255 70.6903 59.0255L62.6464 57.6365V1.25879H32.1992V78.7607H57.5702C60.3681 78.7607 62.6464 76.4924 62.6464 73.6845V68.7082H70.7303C72.9686 68.7082 75.5267 68.0187 77.9149 66.7497L71.9394 58.7856L71.9294 58.7956Z" fill="white"/>
<path d="M85.026 20.5348C82.4979 14.7792 75.763 11.3217 70.6968 11.3018H62.6328V22.3735L70.6668 20.9945C72.4055 20.9945 75.3733 22.6732 76.1127 24.342C78.1812 29.3282 79.2404 34.5943 79.2404 40.0102C79.2404 45.4262 78.1911 50.6922 76.1527 55.5885C75.5431 56.9775 73.5846 58.2865 71.9258 58.7961L77.9014 66.7602C80.9091 65.1714 83.6371 62.6532 85.066 59.3957C87.6341 53.2203 88.9331 46.7052 88.9331 40.0102C88.9331 33.3152 87.6341 26.8001 85.026 20.5348Z" fill="white"/>
<path d="M1.74219 1.25879V73.6845C1.74219 76.4824 4.01049 78.7607 6.81838 78.7607H32.1893V1.25879H1.74219Z" fill="white"/>
<path d="M70.6797 19.7449C70.6797 19.7449 70.5399 19.7449 70.4599 19.7649L63.8848 20.894V17.4766C63.8848 16.7871 63.3253 16.2275 62.6358 16.2275C61.9463 16.2275 61.3867 16.7871 61.3867 17.4766V62.5328C61.3867 63.2223 61.9463 63.7819 62.6358 63.7819C63.3253 63.7819 63.8848 63.2223 63.8848 62.5328V59.1154L70.4699 60.2445C70.5399 60.2545 70.6098 60.2645 70.6797 60.2645C72.8481 60.2545 76.2855 58.3759 77.2948 56.0776C77.2948 56.0776 77.2948 56.0677 77.2948 56.0577C79.4032 50.9715 80.4824 45.5755 80.4824 39.9997C80.4824 34.4239 79.4032 28.998 77.2548 23.8318C76.2955 21.6335 72.8281 19.7449 70.6698 19.7349L70.6797 19.7449ZM75.0065 55.0984C74.4569 56.3275 72.0687 57.6964 70.7697 57.7764L63.8848 56.5873V23.4321L70.7597 22.243C72.0387 22.313 74.4569 23.672 74.9565 24.8211C76.965 29.6575 77.9843 34.7636 77.9843 40.0097C77.9843 45.2558 76.975 50.322 74.9965 55.0984H75.0065Z" fill="#111111"/>
<path d="M86.1679 20.035C83.44 13.8196 76.1554 10.0824 70.6895 10.0525H63.8746V1.24906C63.8746 0.55958 63.3151 0 62.6256 0H1.74125C1.05177 0 0.492188 0.55958 0.492188 1.24906V73.6747C0.492188 77.1621 3.33006 80 6.81744 80H57.5594C61.0468 80 63.8846 77.1621 63.8846 73.6747V69.9475H70.7195C76.0955 69.9276 83.36 66.3902 86.2179 59.8551C88.8459 53.5299 90.1749 46.8549 90.1749 39.99C90.1749 33.1251 88.8259 26.4202 86.1779 20.035C86.1779 20.035 86.1779 20.025 86.1779 20.015L86.1679 20.035ZM83.9196 58.8958C81.5814 64.2318 75.366 67.4494 70.7095 67.4694H62.6356C61.9461 67.4694 61.3865 68.029 61.3865 68.7185V73.6947C61.3865 75.8031 59.6678 77.5219 57.5594 77.5219H6.81744C4.70902 77.5219 2.99031 75.8031 2.99031 73.6947V2.50812H61.3865V11.3115C61.3865 12.001 61.9461 12.5606 62.6356 12.5606H70.6895C75.346 12.5806 81.5514 15.7582 83.8796 21.0342C86.3977 27.0997 87.6768 33.4849 87.6768 40.01C87.6768 46.5351 86.4077 52.9003 83.9196 58.8958Z" fill="#111111"/>
</svg>
