<svg width="102" height="80" viewBox="0 0 102 80" fill="none" xmlns="http://www.w3.org/2000/svg">
<path d="M37.2715 2.33924C38.7141 6.11882 45.1047 9.12661 50.3629 9.12661C55.6211 9.12661 62.2715 6.13324 63.8872 2.44744C59.7469 3.77462 55.5057 4.24346 51.6036 4.24346C45.2634 4.24346 39.8465 3.02447 37.2715 2.33203V2.33924Z" fill="white"/>
<path d="M19.6588 46.294V29.5744C19.6588 29.0407 20.0916 28.6079 20.6254 28.6079C21.1591 28.6079 21.5919 29.0407 21.5919 29.5744V78.0597H79.6343V46.6547C79.6343 46.5465 79.6559 46.4383 79.692 46.3373V29.5744C79.692 29.0407 80.1247 28.6079 80.6585 28.6079C81.1923 28.6079 81.625 29.0407 81.625 29.5744V46.3661L82.4185 47.3038C93.3821 39.3047 97.4358 36.4123 98.9865 35.352C98.0777 33.9238 95.1709 29.5961 86.1908 16.7138C82.1444 10.9074 76.5255 6.46422 69.9401 3.86756L65.9874 2.30957C64.6314 7.26485 56.8126 11.0661 50.3715 11.0661C43.9303 11.0661 36.5226 7.32977 35.2315 2.31678L31.3005 3.86756C24.7079 6.47143 19.0818 10.9146 15.0282 16.7282C6.04807 29.6033 3.14125 33.931 2.23242 35.3592C3.79041 36.4195 7.83686 39.3191 18.8005 47.311L19.6588 46.3012V46.294Z" fill="white"/>
<path d="M65.0215 0.0376408C65.072 0.0304278 65.1225 0.016002 65.173 0.00878906C65.1225 0.00878906 65.072 0.0232149 65.0215 0.0376408Z" fill="white"/>
<path d="M0.541484 36.5205C1.42146 37.0543 11.6638 44.4836 18.3863 49.3884C18.7758 49.6769 19.3239 49.6192 19.6557 49.273V79.0335C19.6557 79.5673 20.0885 80.0001 20.6222 80.0001H80.5977C81.1314 80.0001 81.5642 79.5673 81.5642 79.0335V49.2802C81.896 49.6264 82.437 49.6769 82.8265 49.3956C89.5489 44.4908 99.7912 37.0543 100.671 36.5278C100.895 36.4196 101.075 36.232 101.162 35.994C101.407 35.3376 101.45 35.2366 87.7673 15.6175C83.5045 9.50092 77.5827 4.81973 70.6439 2.07881L65.5804 0.0736192C65.5804 0.0736192 65.5299 0.0736192 65.5083 0.0664062C65.7823 0.152961 66.0132 0.340498 66.1214 0.629015C66.3089 1.12671 66.0636 1.6821 65.5659 1.87685C65.0106 2.09324 64.448 2.28799 63.8853 2.46831C62.2697 6.1469 55.641 9.14748 50.3611 9.14748C45.0813 9.14748 38.7123 6.13969 37.2697 2.36012C36.3681 2.11488 35.8055 1.93455 35.6973 1.89849C35.1924 1.73259 34.9183 1.19162 35.0842 0.679505C35.1851 0.362136 35.4448 0.152961 35.7405 0.0736192C35.7117 0.0808321 35.6756 0.0736192 35.6468 0.088045L30.5905 2.08603C23.6445 4.82694 17.7155 9.51534 13.4454 15.6391C-0.230288 35.2511 -0.194222 35.352 0.0582305 36.0084C0.144785 36.2464 0.325103 36.434 0.548704 36.5422L0.541484 36.5205ZM15.0178 16.7138C19.0715 10.9002 24.6976 6.45706 31.2902 3.85319L35.2212 2.30241C36.5123 7.32261 43.9777 11.0517 50.3611 11.0517C56.7446 11.0517 64.6211 7.25048 65.9771 2.2952L69.9298 3.85319C76.5152 6.45706 82.134 10.9002 86.1805 16.6994C95.1606 29.5817 98.0674 33.9095 98.9762 35.3376C97.4182 36.3979 93.3718 39.2903 82.4081 47.2894L81.6147 46.3518V46.6331C81.6147 47.1668 81.1819 47.5996 80.6482 47.5996C80.1144 47.5996 79.6816 47.1668 79.6816 46.6331V46.3229C79.6456 46.4239 79.6239 46.5249 79.6239 46.6403V78.0454H21.5816V46.6331C21.5816 47.1668 21.1488 47.5996 20.6151 47.5996C20.0813 47.5996 19.6485 47.1668 19.6485 46.6331V46.2796L18.7902 47.2894C7.82655 39.2903 3.77288 36.3979 2.22211 35.3376C3.13093 33.9095 6.03773 29.5889 15.0178 16.7066V16.7138Z" fill="#202020"/>
<path d="M36.0156 0.00878906C36.0661 0.00878906 36.1238 0.016002 36.1743 0.0304278C36.1166 0.0232149 36.0733 0.016002 36.0156 0.00878906Z" fill="white"/>
<path d="M36.9633 0.924677C36.9778 1.40073 37.1004 1.87678 37.2735 2.3312C39.8413 3.02364 45.2654 4.24262 51.6056 4.24262C55.5078 4.24262 59.7562 3.781 63.8892 2.4466C64.1056 1.94891 64.2426 1.43679 64.257 0.924677C64.2715 0.614521 64.4301 0.326003 64.6898 0.152893C64.7908 0.0879769 64.9062 0.0591252 65.0216 0.0302734C64.9711 0.0374864 64.9206 0.0302734 64.8701 0.0591252C51.8652 5.05047 36.4512 0.0951898 36.2925 0.0446993C36.2493 0.0302734 36.2132 0.0446993 36.1699 0.0302734C36.2925 0.0519122 36.4079 0.0807639 36.5161 0.152893C36.7758 0.326003 36.9417 0.614521 36.9489 0.924677H36.9633Z" fill="#202020"/>
<path d="M65.1758 0.00961573C65.284 0.00961573 65.3922 0.0240416 65.5003 0.0528933C65.3922 0.0168287 65.284 0.0024028 65.1758 0.00961573Z" fill="white"/>
<path d="M35.7422 0.0525512C35.836 0.0236995 35.9297 0.00927361 36.0235 0.0164865C35.9297 0.0164865 35.836 0.0309124 35.7422 0.0525512Z" fill="white"/>
<path d="M35.0816 0.657576C34.9157 1.16248 35.1898 1.71066 35.6947 1.87656C35.8101 1.91263 36.3655 2.09295 37.2671 2.33819C37.094 1.87656 36.9786 1.40772 36.957 0.931667C36.9426 0.621511 36.7839 0.332994 36.5242 0.159884C36.416 0.0877543 36.3006 0.0589026 36.178 0.0372638C36.1275 0.0300509 36.0698 0.0228379 36.0193 0.015625C35.9255 0.015625 35.8318 0.0300509 35.738 0.0516896C35.4423 0.138245 35.1826 0.34742 35.0816 0.657576Z" fill="#202020"/>
<path d="M64.2546 0.925058C64.2329 1.44439 64.1031 1.94929 63.8867 2.44699C64.4493 2.26666 65.0119 2.07191 65.5673 1.85553C66.065 1.66799 66.3103 1.10538 66.1227 0.607689C66.0145 0.319172 65.7765 0.131636 65.5096 0.0450808C65.4014 0.00901616 65.2932 -0.0054097 65.185 0.00180323C65.1345 0.00180323 65.0841 0.0162291 65.0336 0.030655C64.9182 0.0522937 64.8028 0.0811455 64.7018 0.153275C64.4421 0.326385 64.2762 0.614902 64.269 0.925058H64.2546Z" fill="#202020"/>
<path d="M20.6169 28.6084C20.0832 28.6084 19.6504 29.0412 19.6504 29.5749V46.2945L19.8812 46.0276C20.1409 45.7175 20.5664 45.6093 20.9487 45.7463C21.331 45.8834 21.5834 46.244 21.5834 46.6479V29.5749C21.5834 29.0412 21.1507 28.6084 20.6169 28.6084Z" fill="#202020"/>
<path d="M20.9526 45.7459C20.5704 45.6089 20.1448 45.7171 19.8851 46.0272L19.6543 46.2941V46.6475C19.6543 47.1813 20.0871 47.6141 20.6208 47.6141C21.1546 47.6141 21.5874 47.1813 21.5874 46.6475C21.5874 46.2436 21.3349 45.883 20.9526 45.7459Z" fill="#202020"/>
<path d="M80.6521 28.6084C80.1183 28.6084 79.6855 29.0412 79.6855 29.5749V46.3378C79.7793 46.0709 79.9813 45.8473 80.2626 45.7463C80.6449 45.6093 81.0704 45.7175 81.3301 46.0276L81.6186 46.3666V29.5749C81.6186 29.0412 81.1858 28.6084 80.6521 28.6084Z" fill="#202020"/>
<path d="M80.2626 45.7459C79.9885 45.8469 79.7793 46.0705 79.6855 46.3374V46.6475C79.6855 47.1813 80.1183 47.6141 80.6521 47.6141C81.1858 47.6141 81.6186 47.1813 81.6186 46.6475V46.3662L81.3301 46.0272C81.0704 45.7171 80.6449 45.6089 80.2626 45.7459Z" fill="#202020"/>
</svg>
