<?xml version="1.0" encoding="UTF-8"?>
<svg id="Layer_1" xmlns="http://www.w3.org/2000/svg" version="1.1" viewBox="0 0 92 72">
  <!-- Generator: Adobe Illustrator 29.3.1, SVG Export Plug-In . SVG Version: 2.1.0 Build 151)  -->
  <defs>
    <style>
      .st0 {
        fill: #91919b;
      }

      .st1 {
        fill: #fff;
      }

      .st2 {
        fill: #202020;
      }
    </style>
  </defs>
  <path class="st2" d="M18.7,25.7c-.5,0-.9.4-.9.9v15l.2-.2c.2-.3.6-.4,1-.3.3.1.6.4.6.8v-15.4c0-.5-.4-.9-.9-.9Z"/>
  <path class="st2" d="M19,41.2c-.3-.1-.7,0-1,.3l-.2.2v.3c0,.5.4.9.9.9s.9-.4.9-.9-.2-.7-.6-.8Z"/>
  <path class="st1" d="M33.6,2.1c1.3,3.4,7,6.1,11.8,6.1s10.7-2.7,12.2-6c-3.7,1.2-7.5,1.6-11.1,1.6-5.7,0-10.6-1.1-12.9-1.7h0Z"/>
  <path class="st1" d="M17.8,41.7v-15c0-.5.4-.9.9-.9s.9.4.9.9v43.6s52.2,0,52.2,0v-28.3c0,0,0-.2,0-.3v-15.1c0-.5.4-.9.9-.9s.9.4.9.9v15.1l.7.8c9.9-7.2,13.5-9.8,14.9-10.8-.8-1.3-3.4-5.2-11.5-16.8-3.6-5.2-8.7-9.2-14.6-11.6l-3.6-1.4c-1.2,4.5-8.3,7.9-14.1,7.9s-12.5-3.4-13.6-7.9l-3.5,1.4c-5.9,2.3-11,6.3-14.6,11.6C5.5,26.6,2.9,30.5,2.1,31.8c1.4,1,5,3.6,14.9,10.8l.8-.9h0Z"/>
  <path class="st1" d="M58.6,0s0,0,.1,0c0,0,0,0-.1,0Z"/>
  <path class="st2" d="M.6,32.9c.8.5,10,7.2,16.1,11.6.4.3.8.2,1.1-.1v26.8c0,.5.4.9.9.9h54c.5,0,.9-.4.9-.9v-26.8c.3.3.8.4,1.1.1,6.1-4.4,15.3-11.1,16.1-11.6.2,0,.4-.3.4-.5.2-.6.3-.7-12.1-18.3-3.8-5.5-9.2-9.7-15.4-12.2L59.1,0s0,0,0,0c.2,0,.5.2.6.5.2.4,0,.9-.5,1.1-.5.2-1,.4-1.5.5-1.5,3.3-7.4,6-12.2,6s-10.5-2.7-11.8-6.1c-.8-.2-1.3-.4-1.4-.4-.5-.1-.7-.6-.6-1.1,0-.3.3-.5.6-.5,0,0,0,0,0,0l-4.6,1.8c-6.3,2.5-11.6,6.7-15.4,12.2C-.1,31.7,0,31.8.1,32.4c0,.2.2.4.4.5h0ZM13.6,15c3.6-5.2,8.7-9.2,14.6-11.6l3.5-1.4c1.2,4.5,7.9,7.9,13.6,7.9s12.8-3.4,14.1-7.9l3.6,1.4c5.9,2.3,11,6.3,14.6,11.6,8.1,11.6,10.7,15.5,11.5,16.8-1.4,1-5,3.6-14.9,10.8l-.7-.8v.3c0,.5-.4.9-.9.9s-.9-.4-.9-.9v-.3c0,0,0,.2,0,.3v28.3H19.5v-28.3c0,.5-.4.9-.9.9s-.9-.4-.9-.9v-.3l-.8.9c-9.9-7.2-13.5-9.8-14.9-10.8.8-1.3,3.4-5.2,11.5-16.8h0Z"/>
  <path class="st1" d="M32.5,0s0,0,.1,0c0,0,0,0-.1,0Z"/>
  <path class="st2" d="M33.4.8c0,.4.1.9.3,1.3,2.3.6,7.2,1.7,12.9,1.7s7.3-.4,11.1-1.6c.2-.4.3-.9.3-1.4,0-.3.2-.5.4-.7,0,0,.2,0,.3-.1,0,0,0,0-.1,0-11.7,4.5-25.6,0-25.7,0,0,0,0,0-.1,0,.1,0,.2,0,.3.1.2.2.4.4.4.7h0Z"/>
  <path class="st1" d="M58.8,0c0,0,.2,0,.3,0,0,0-.2,0-.3,0Z"/>
  <path class="st1" d="M32.3,0c0,0,.2,0,.3,0,0,0-.2,0-.3,0Z"/>
  <path class="st2" d="M31.7.6c-.1.5,0,.9.6,1.1.1,0,.6.2,1.4.4-.2-.4-.3-.8-.3-1.3,0-.3-.2-.5-.4-.7,0,0-.2,0-.3-.1,0,0,0,0-.1,0,0,0-.2,0-.3,0-.3,0-.5.3-.6.5Z"/>
  <path class="st2" d="M57.9.8c0,.5-.1.9-.3,1.4.5-.2,1-.3,1.5-.5.4-.2.7-.7.5-1.1,0-.3-.3-.4-.6-.5,0,0-.2,0-.3,0,0,0,0,0-.1,0-.1,0-.2,0-.3.1-.2.2-.4.4-.4.7h0Z"/>
  <path class="st2" d="M72.7,25.7c-.5,0-.9.4-.9.9v15.1c0-.2.3-.4.5-.5.3-.1.7,0,1,.3l.3.3v-15.1c0-.5-.4-.9-.9-.9Z"/>
  <path class="st2" d="M72.3,41.2c-.2,0-.4.3-.5.5v.3c0,.5.4.9.9.9s.9-.4.9-.9v-.3l-.3-.3c-.2-.3-.6-.4-1-.3Z"/>
  <path class="st2" d="M26.1,30h4.3c1.4,0,2.4.3,3.1.8.7.5,1.1,1.3,1.1,2.5s0,.9-.3,1.3c-.2.4-.5.7-.8.9-.4.2-.8.3-1.3.4h0c.9,0,1.6.3,2.1.8.5.5.7,1.2.7,2s-.4,1.9-1.1,2.5c-.7.5-1.8.8-3.1.8h-4.8v-12ZM30.4,35c.6,0,1.1-.1,1.4-.4.4-.3.5-.6.5-1.1s-.2-.9-.5-1.1c-.3-.2-.8-.4-1.4-.4h-1.9v2.9h1.9ZM28.5,39.9h2.4c.6,0,1-.1,1.4-.4.4-.3.5-.6.5-1.1s-.2-.9-.5-1.2c-.4-.3-.8-.4-1.4-.4h-2.4v3.1Z"/>
  <path class="st2" d="M40.3,42c-.9,0-1.7-.2-2.2-.7-.6-.5-.9-1.1-.9-1.9s.2-1.5.7-1.9c.5-.5,1.2-.8,2.2-1l2.9-.6c0-.6-.1-1.1-.4-1.4-.3-.3-.6-.5-1.1-.5s-.8.1-1.1.3c-.3.2-.4.6-.5,1h-2.5c.2-1.2.6-2,1.3-2.5.7-.5,1.6-.8,2.8-.8s2.3.3,3,1c.7.7,1,1.7,1,3v3.3c0,.3,0,.5.1.6,0,0,.2.1.4.1h.2v1.8c0,0-.2,0-.4,0-.2,0-.3,0-.5,0-.4,0-.7,0-1-.2-.3-.1-.6-.4-.7-.7-.2-.3-.3-.8-.3-1.4l.2.2c-.1.4-.3.8-.6,1.1s-.6.6-1.1.7-1,.3-1.5.3h0ZM40.8,40.2c.4,0,.8,0,1.1-.3.3-.2.6-.4.7-.8.2-.3.3-.7.3-1.2v-.5l-2,.5c-.4,0-.7.2-.9.4-.2.2-.3.4-.3.8s0,.6.3.7c.2.2.5.3.9.3h0Z"/>
  <path class="st2" d="M51.2,42c-1,0-1.9-.2-2.7-.6-.8-.4-1.4-1-1.8-1.7-.4-.7-.6-1.6-.6-2.6s.2-1.9.6-2.6c.4-.7,1-1.3,1.8-1.7.8-.4,1.7-.6,2.7-.6s1.7.1,2.4.4c.7.3,1.3.7,1.7,1.3.4.6.7,1.2.8,2h-2.9c0-.5-.3-.9-.7-1.2-.4-.3-.8-.5-1.3-.5s-1.2.3-1.6.8c-.4.5-.6,1.2-.6,2.2s.2,1.7.6,2.2c.4.5.9.8,1.6.8s1-.2,1.3-.5c.4-.3.6-.8.7-1.4h2.9c0,.9-.3,1.6-.8,2.1-.4.6-1,1-1.7,1.3s-1.5.5-2.4.5h0Z"/>
  <path class="st2" d="M57.1,42v-12h2.2v6.7l3-3.7h2.7l-3.1,3.7,3.2,5.3h-2.5l-2.2-3.9-1.1,1.3v2.5h-2.2Z"/>
  <path class="st0" d="M23,18h46v48H23V18Z"/>
  <path class="st1" d="M33.5,2l1,.5,2.5,1,3.5,1,7,.5,5-1.5,4.5-1,2.5-1v1l-.5,2.5-1.5,2.5-2,2.5-5,2h-6.5l-13.5-7.5,1-2.5h2Z"/>
  <path class="st1" d="M28.5,48v-11.4h3.9c1.3,0,2.4.2,3,.7.7.5,1,1.3,1,2.3s-.1.9-.3,1.3c-.2.4-.5.7-.9.9-.4.2-.9.3-1.4.3h0c1,0,1.7.2,2.3.7.6.5.8,1.2.8,2s-.3,1.8-1,2.3c-.7.5-1.6.8-2.9.8h-4.5ZM29.8,46.7h3.2c.8,0,1.4-.2,1.8-.5.4-.3.6-.8.6-1.4s-.2-1.1-.6-1.4c-.4-.3-1-.5-1.8-.5h-3.2v3.8ZM29.8,41.6h2.5c.8,0,1.5-.2,1.9-.5.4-.3.7-.8.7-1.3s-.2-1-.7-1.3c-.4-.3-1.1-.4-1.9-.4h-2.5v3.6Z"/>
  <path class="st1" d="M41.3,48.2c-.9,0-1.6-.2-2.1-.6-.5-.4-.8-1-.8-1.7s.2-1.3.6-1.7c.4-.4,1.1-.7,2-.9l3-.6c0-.7-.2-1.2-.5-1.6-.3-.4-.8-.5-1.5-.5s-1.1.1-1.4.4c-.3.3-.6.6-.7,1.1h-1.4c.2-.9.5-1.6,1.2-2,.6-.5,1.4-.8,2.4-.8s1.9.3,2.5.9c.6.6.9,1.5.9,2.5v3.5c0,.2,0,.3,0,.4,0,0,.2.1.4.1h.3v1.2s-.1,0-.2,0c0,0-.2,0-.3,0-.4,0-.7,0-.9-.2-.2-.1-.4-.3-.5-.6-.1-.3-.2-.6-.2-1h.2c0,.4-.3.7-.5,1-.3.3-.6.5-1.1.7-.4.2-.9.2-1.4.2ZM41.4,47c.6,0,1-.1,1.4-.3.4-.2.7-.5.9-.9.2-.4.3-.8.3-1.3v-.6l-2.8.5c-.6.1-1,.3-1.2.5-.2.2-.3.5-.3.8s.1.7.4.9c.3.2.7.3,1.2.3Z"/>
  <path class="st1" d="M51.1,48.2c-.8,0-1.5-.2-2.1-.5-.6-.4-1-.9-1.3-1.5-.3-.7-.5-1.5-.5-2.4s.2-1.7.5-2.3.8-1.2,1.3-1.5c.6-.4,1.3-.6,2.1-.6s1.2.1,1.7.4c.5.2.9.6,1.2,1,.3.4.5,1,.6,1.6h-1.4c0-.5-.3-.9-.7-1.2-.4-.3-.9-.5-1.5-.5s-1.4.3-1.8.8c-.4.6-.7,1.3-.7,2.3s.2,1.8.7,2.3c.4.6,1,.8,1.8.8s1.1-.2,1.5-.5c.4-.3.6-.8.7-1.4h1.4c0,.7-.3,1.3-.6,1.7-.3.5-.7.8-1.2,1.1-.5.3-1.1.4-1.7.4Z"/>
  <path class="st1" d="M56.3,48v-11.4h1.3v7.4l4.1-4.6h1.8l-3.3,3.6,3.5,4.9h-1.6l-2.8-4-1.7,1.8v2.2h-1.3Z"/>
</svg>