<?xml version="1.0" encoding="UTF-8"?>
<svg id="Layer_1" xmlns="http://www.w3.org/2000/svg" version="1.1" viewBox="0 0 608 480">
  <!-- Generator: Adobe Illustrator 29.4.0, SVG Export Plug-In . SVG Version: 2.1.0 Build 152)  -->
  <defs>
    <style>
      .st0 {
        fill: #fff;
      }

      .st1 {
        fill: #202020;
      }
    </style>
  </defs>
  <path class="st0" d="M117.96,277.77v-100.32c0-3.2,2.6-5.8,5.8-5.8s5.8,2.6,5.8,5.8v290.91h348.26v-188.43c0-.65.13-1.3.35-1.9v-100.58c0-3.2,2.6-5.8,5.8-5.8s5.8,2.6,5.8,5.8v100.75l4.76,5.63c65.78-48,90.1-65.35,99.41-71.71-5.45-8.57-22.89-34.54-76.77-111.83-24.28-34.84-57.99-61.5-97.5-77.08l-23.72-9.35c-8.14,29.73-55.05,52.54-93.7,52.54s-83.09-22.42-90.84-52.5l-23.59,9.3c-39.56,15.62-73.31,42.28-97.63,77.16C36.29,177.62,18.85,203.59,13.4,212.16c9.35,6.36,33.63,23.76,99.41,71.71l5.15-6.06v-.04Z"/>
  <path class="st0" d="M390.13.22c.3-.04.61-.13.91-.17-.3,0-.61.09-.91.17Z"/>
  <path class="st0" d="M216.09.05c.3,0,.65.04.95.13-.35-.04-.61-.09-.95-.13Z"/>
  <path class="st0" d="M391.05.05c.65,0,1.3.09,1.95.26-.65-.22-1.3-.3-1.95-.26Z"/>
  <path class="st0" d="M214.45.32c.56-.17,1.12-.26,1.69-.22-.56,0-1.12.09-1.69.22Z"/>
  <path class="st1" d="M390.13.18c-.3.04-.61,0-.91.17-78.03,29.95-170.51.22-171.47-.09-.19-.06-.36-.03-.55-.05.67.13,1.3.3,1.89.7.21.14.4.29.59.45-.17-.15-.35-.28-.54-.41-.65-.43-1.34-.61-2.08-.74-.3-.04-.65-.09-.95-.13-.56,0-1.12.09-1.69.22-.35.1-.68.24-1,.39l-29.89,11.81c-41.68,16.45-77.25,44.58-102.87,81.32C-1.38,211.51-1.17,212.11.35,216.05c.52,1.43,1.6,2.55,2.94,3.2l-.04-.13c5.28,3.2,66.73,47.78,107.07,77.21,2.34,1.73,5.63,1.39,7.62-.69v178.56c0,3.2,2.6,5.8,5.8,5.8h359.85c3.2,0,5.8-2.6,5.8-5.8v-178.52c1.99,2.08,5.24,2.38,7.57.69,40.33-29.43,101.79-74.05,107.07-77.21,1.34-.65,2.42-1.78,2.94-3.2,1.47-3.94,1.73-4.54-80.37-122.26-25.58-36.7-61.11-64.79-102.74-81.23l-30.08-11.91c-.24-.11-.48-.21-.73-.29-.65-.22-1.3-.3-1.95-.26-.3,0-.61.09-.91.17M223.64,13.99c15.41,4.15,47.95,11.47,85.99,11.47,23.41,0,48.9-2.77,73.7-10.78,0,0,0,0,0,0M221.74,5.55,383.31,14.81c-9.69,22.07-49.47,40.08-81.15,40.08s-69.89-18.05-78.55-40.72c-5.41-1.47-8.78-2.55-9.43-2.77-2.29-.75-4.25-2.8-3.95-5.07-.29,2.21,1.62,4.35,3.86,5.09.69.22,4.1,1.29,9.51,2.76M478.27,277.64c.58-1.35,1.64-2.48,3.07-3.07-1.4.59-2.49,1.71-3.07,3.07ZM494.45,283.74l-4.74-5.6v-100.69c0-3.2-2.6-5.8-5.8-5.8s-5.8,2.6-5.8,5.8v100.57h0v1.86c0,.58.09,1.13.24,1.66-.17-.55-.27-1.14-.27-1.75v-1.86c-.22.61-.35,1.21-.35,1.9v188.43H129.49v-187.75c.02-.21.04-.42.04-.64,0-.1-.02-.2-.02-.3v-102.14c0-3.2-2.6-5.8-5.8-5.8s-5.8,2.6-5.8,5.8v100.32l-5.16,5.97C46.96,235.74,22.64,218.39,13.33,212.02c5.45-8.57,22.89-34.49,76.77-111.79v.04c24.32-34.88,58.08-61.54,97.63-77.16l23.59-9.3c7.75,30.12,52.54,52.5,90.84,52.5s85.56-22.81,93.7-52.54l23.72,9.35c39.51,15.62,73.22,42.28,97.5,77.08,53.88,77.29,71.32,103.26,76.77,111.83-9.35,6.36-33.63,23.72-99.41,71.71Z"/>
</svg>