<svg width="92" height="72" viewBox="0 0 92 72" fill="none" xmlns="http://www.w3.org/2000/svg">
<path d="M18.6567 25.7472C18.1763 25.7472 17.7868 26.1367 17.7868 26.6171V41.6646L17.9945 41.4245C18.2282 41.1453 18.6113 41.0479 18.9553 41.1713C19.2994 41.2946 19.5266 41.6192 19.5266 41.9827V26.6171C19.5266 26.1367 19.1371 25.7472 18.6567 25.7472Z" fill="#202020"/>
<path d="M18.9553 41.1713C18.6113 41.0479 18.2282 41.1453 17.9945 41.4245L17.7868 41.6646V41.9829C17.7868 42.4633 18.1763 42.8527 18.6567 42.8527C19.1371 42.8527 19.5266 42.4631 19.5266 41.9827C19.5266 41.6192 19.2994 41.2946 18.9553 41.1713Z" fill="#202020"/>
<path d="M33.6398 2.10488C34.9381 5.50648 40.6897 8.21348 45.422 8.21348C50.1544 8.21348 56.1397 5.51946 57.5938 2.20225C53.8676 3.39671 50.0506 3.81866 46.5386 3.81866C40.8325 3.81866 35.9573 2.72158 33.6398 2.09839V2.10488Z" fill="white"/>
<path d="M17.7868 41.6646V26.6171C17.7868 26.1367 18.1763 25.7472 18.6567 25.7472C19.1371 25.7472 19.5266 26.1367 19.5266 26.6171L19.5256 70.2537H71.7635V41.9893C71.7635 41.8919 71.783 41.7945 71.8154 41.7037V26.6172C71.8154 26.1368 72.2049 25.7473 72.6853 25.7473C73.1657 25.7473 73.5552 26.1368 73.5552 26.6172V41.7296L74.2693 42.5735C84.1365 35.3744 87.7848 32.7712 89.1805 31.817C88.3625 30.5316 85.7464 26.6367 77.6644 15.0427C74.0226 9.81692 68.9656 5.81809 63.0388 3.48111L59.4814 2.07893C58.261 6.53866 51.2241 9.95973 45.4271 9.95973C39.6301 9.95973 32.9632 6.59708 31.8012 2.08542L28.2633 3.48111C22.3299 5.82458 17.2665 9.82341 13.6182 15.0556C5.53617 26.6431 2.92006 30.5381 2.10212 31.8234C3.50431 32.7777 7.1461 35.3873 17.0133 42.58L17.7858 41.6712L17.7868 41.6646Z" fill="white"/>
<path d="M58.6183 0.0341277C58.6637 0.0276361 58.7092 0.0146529 58.7546 0.00816127C58.7092 0.00816127 58.6637 0.0211445 58.6183 0.0341277Z" fill="white"/>
<path d="M0.583046 32.8687C1.37502 33.349 10.5931 40.0354 16.6433 44.4497C16.9938 44.7093 17.4872 44.6574 17.7858 44.3458V71.1302C17.7858 71.6105 18.1753 72 18.6557 72H72.6333C73.1137 72 73.5032 71.6105 73.5032 71.1302V44.3523C73.8018 44.6639 74.2887 44.7093 74.6392 44.4562C80.6894 40.0419 89.9075 33.349 90.6995 32.8752C90.9007 32.7778 91.063 32.609 91.1409 32.3948C91.3616 31.804 91.4006 31.7132 79.086 14.056C75.2495 8.55113 69.9199 4.33808 63.6749 1.87127L59.1178 0.0666025C59.1178 0.0666025 59.0724 0.0666025 59.0529 0.0601109C59.2996 0.13801 59.5073 0.306792 59.6047 0.566456C59.7735 1.01438 59.5528 1.51423 59.1048 1.6895C58.605 1.88425 58.0986 2.05952 57.5923 2.22181C56.1382 5.53253 50.1724 8.23304 45.4205 8.23304C40.6687 8.23304 34.9366 5.52604 33.6383 2.12444C32.8268 1.90373 32.3205 1.74144 32.2231 1.70898C31.7687 1.55967 31.522 1.0728 31.6713 0.611897C31.7622 0.326267 31.9959 0.13801 32.2621 0.0666025C32.2361 0.0730941 32.2036 0.0666025 32.1777 0.0795857L27.6271 1.87776C21.3757 4.34457 16.0395 8.56411 12.1965 14.0755C-0.111555 31.7261 -0.0790957 31.817 0.14811 32.4078C0.22601 32.622 0.388305 32.7908 0.589544 32.8881L0.583046 32.8687ZM13.6182 15.0427C17.2665 9.8105 22.3299 5.81167 28.2632 3.4682L31.8012 2.07251C32.9632 6.59066 39.682 9.94682 45.427 9.94682C51.1721 9.94682 58.2609 6.52575 59.4813 2.06602L63.0388 3.4682C68.9656 5.81167 74.0225 9.8105 77.6643 15.0297C85.7464 26.6237 88.3625 30.5187 89.1804 31.804C87.7782 32.7583 84.1365 35.3614 74.2692 42.5606L73.5552 41.7167V41.9699C73.5552 42.4503 73.1656 42.8398 72.6853 42.8398C72.2049 42.8398 71.8154 42.4503 71.8154 41.9699V41.6908C71.7829 41.7816 71.7635 41.8725 71.7635 41.9764V70.2408H19.5255V41.9699C19.5255 42.4503 19.1361 42.8398 18.6557 42.8398C18.1753 42.8398 17.7858 42.4503 17.7858 41.9699V41.6518L17.0133 42.5606C7.14606 35.3614 3.49778 32.7583 2.10209 31.804C2.92003 30.5187 5.53614 26.6302 13.6182 15.0362V15.0427Z" fill="#202020"/>
<path d="M32.5148 0.00816127C32.5602 0.00816127 32.6122 0.0146529 32.6576 0.0276361C32.6057 0.0211445 32.5667 0.0146529 32.5148 0.00816127Z" fill="white"/>
<path d="M33.3594 0.832581C33.3724 1.26103 33.4828 1.68947 33.6386 2.09844C35.9496 2.72164 40.8313 3.81872 46.5374 3.81872C50.0493 3.81872 53.8729 3.40326 57.5926 2.20231C57.7873 1.75439 57.9107 1.29349 57.9237 0.832581C57.9367 0.553443 58.0795 0.293778 58.3132 0.13798C58.404 0.0795556 58.5079 0.0535892 58.6118 0.0276228C58.5663 0.0341144 58.5209 0.0276228 58.4755 0.0535892C46.7711 4.54578 32.8985 0.0860472 32.7557 0.040606C32.7168 0.0276228 32.6843 0.040606 32.6454 0.0276228C32.7557 0.0470976 32.8596 0.073064 32.957 0.13798C33.1907 0.293778 33.34 0.553443 33.3465 0.832581H33.3594Z" fill="#202020"/>
<path d="M58.7546 0.00816127C58.852 0.00816127 58.9487 0.021041 59.046 0.0470074C58.9487 0.0145494 58.852 0.00166967 58.7546 0.00816127Z" fill="white"/>
<path d="M32.2612 0.0471389C32.3456 0.0211725 32.43 0.00818933 32.5143 0.0146809C32.43 0.0146809 32.3456 0.0276641 32.2612 0.0471389Z" fill="white"/>
<path d="M31.6719 0.592349C31.5226 1.04676 31.7693 1.54012 32.2237 1.68943C32.3276 1.72189 32.8283 1.88417 33.6398 2.10488C33.484 1.68942 33.3792 1.26748 33.3597 0.83903C33.3468 0.559891 33.2039 0.300227 32.9702 0.144428C32.8729 0.0795121 32.769 0.0535457 32.6587 0.0340709C32.6132 0.0275793 32.5613 0.0210877 32.5158 0.0145961C32.4315 0.0145961 32.3471 0.0275793 32.2627 0.0470541C31.9965 0.124953 31.7628 0.31321 31.6719 0.592349Z" fill="#202020"/>
<path d="M57.9248 0.832548C57.9054 1.29994 57.7885 1.75433 57.5938 2.20225C58.1001 2.03996 58.6065 1.86471 59.1063 1.66996C59.5542 1.50118 59.7749 0.994838 59.6062 0.546917C59.5088 0.287253 59.2945 0.118472 59.0544 0.0405725C58.957 0.0081145 58.8596 -0.0048687 58.7622 0.0016229C58.7168 0.0016229 58.6714 0.0146061 58.6259 0.0275893C58.5221 0.0470641 58.4182 0.0730305 58.3273 0.137947C58.0936 0.293745 57.9443 0.553409 57.9378 0.832548H57.9248Z" fill="#202020"/>
<path d="M72.6793 25.7472C72.1989 25.7472 71.8094 26.1367 71.8094 26.6171V41.7036C71.8938 41.4634 72.0756 41.2622 72.3288 41.1713C72.6728 41.048 73.0558 41.1453 73.2895 41.4245L73.5492 41.7296V26.6171C73.5492 26.1367 73.1597 25.7472 72.6793 25.7472Z" fill="#202020"/>
<path d="M72.3288 41.1713C72.0821 41.2622 71.8938 41.4634 71.8094 41.7036V41.9829C71.8094 42.4633 72.1989 42.8527 72.6793 42.8527C73.1597 42.8527 73.5492 42.4633 73.5492 41.9829V41.7296L73.2895 41.4245C73.0558 41.1453 72.6728 41.048 72.3288 41.1713Z" fill="#202020"/>
<path d="M26.1406 30.001H30.4393C31.816 30.001 32.8549 30.268 33.5822 30.7879C34.3095 31.3078 34.6731 32.1368 34.6731 33.2609C34.6731 33.7527 34.5822 34.1883 34.3874 34.5537C34.2056 34.919 33.9328 35.2141 33.5692 35.4249C33.2056 35.6356 32.777 35.7621 32.2705 35.8183V35.7902C33.1926 35.8605 33.9069 36.1415 34.4004 36.6614C34.8939 37.1813 35.1406 37.8558 35.1406 38.6989C35.1406 39.8089 34.777 40.638 34.0627 41.186C33.3354 41.734 32.3095 42.001 30.9718 42.001H26.1406V30.001ZM30.3874 34.9612C30.9718 34.9612 31.4393 34.8347 31.777 34.5958C32.1276 34.3429 32.2965 33.9916 32.2965 33.5279C32.2965 33.0361 32.1277 32.6708 31.79 32.4459C31.4523 32.2211 30.9848 32.0947 30.3744 32.0947H28.5043V34.9612H30.3874ZM28.5172 39.8792H30.8679C31.4394 39.8792 31.8939 39.7527 32.2445 39.4998C32.5952 39.2469 32.764 38.8675 32.764 38.3616C32.764 37.8558 32.5952 37.4764 32.2445 37.2094C31.8939 36.9424 31.4394 36.816 30.8679 36.816H28.5172V39.8792Z" fill="#202020"/>
<path d="M40.2507 42.001C39.3425 42.001 38.5856 41.7778 38.0076 41.3165C37.4296 40.8551 37.1406 40.2153 37.1406 39.3968C37.1406 38.5784 37.3883 37.8938 37.87 37.4474C38.3654 36.9861 39.081 36.6587 40.0443 36.4355L42.9067 35.8254C42.9067 35.2004 42.7828 34.7391 42.5214 34.4266C42.2599 34.1141 41.8883 33.9504 41.4067 33.9504C40.925 33.9504 40.5672 34.0694 40.3057 34.2926C40.0443 34.5307 39.8654 34.873 39.7966 35.3194L37.3058 35.2004C37.4709 34.1587 37.9113 33.3551 38.6131 32.8194C39.3287 32.2837 40.2507 32.001 41.4067 32.001C42.7278 32.001 43.7186 32.3432 44.3929 33.0129C45.0534 33.6974 45.3975 34.6796 45.3975 35.9891V39.2629C45.3975 39.5307 45.4388 39.7242 45.5213 39.8135C45.6039 39.9028 45.7277 39.9474 45.8929 39.9474H46.1406V41.7926C46.0581 41.8224 45.9342 41.8373 45.769 41.867C45.6039 41.8968 45.425 41.8968 45.2599 41.8968C44.9021 41.8968 44.5856 41.8373 44.2828 41.7034C43.9801 41.5694 43.7324 41.3462 43.5535 41.0337C43.3746 40.7212 43.2782 40.2748 43.2782 39.6796L43.4984 39.8581C43.3883 40.2897 43.1957 40.6617 42.9067 40.9891C42.6177 41.3165 42.2599 41.5545 41.8195 41.7331C41.3791 41.9117 40.8562 42.001 40.2782 42.001H40.2507ZM40.8425 40.1557C41.2553 40.1557 41.6131 40.0665 41.9159 39.9028C42.2186 39.7242 42.4663 39.4712 42.6452 39.1438C42.8241 38.8165 42.9067 38.4147 42.9067 37.9682V37.5069L40.8975 37.9682C40.4984 38.0575 40.1956 38.1915 40.003 38.3849C39.7966 38.5784 39.7002 38.8313 39.7002 39.1438C39.7002 39.4563 39.7966 39.7093 40.003 39.8879C40.1956 40.0665 40.4846 40.1557 40.8562 40.1557H40.8425Z" fill="#202020"/>
<path d="M51.2341 42.001C50.206 42.001 49.3182 41.7926 48.5549 41.3909C47.7917 40.9742 47.1998 40.3938 46.7792 39.6498C46.3587 38.9057 46.1406 38.0129 46.1406 37.001C46.1406 35.9891 46.3587 35.1111 46.7792 34.3671C47.1998 33.623 47.7917 33.0426 48.5549 32.626C49.3182 32.2093 50.206 32.001 51.2341 32.001C52.1219 32.001 52.9163 32.1498 53.6173 32.4474C54.3182 32.745 54.8945 33.1766 55.3307 33.7272C55.7668 34.2778 56.0316 34.9623 56.1406 35.751L53.2434 35.87C53.15 35.2748 52.9319 34.8284 52.5736 34.5159C52.2154 34.2182 51.7793 34.0545 51.2341 34.0545C50.5331 34.0545 49.988 34.3075 49.6141 34.8284C49.2403 35.3492 49.0378 36.0635 49.0378 36.9861C49.0378 37.9087 49.2247 38.6379 49.6141 39.1587C50.0035 39.6795 50.5487 39.9325 51.2341 39.9325C51.7637 39.9325 52.2154 39.7688 52.5736 39.4563C52.9319 39.1438 53.15 38.6676 53.2279 38.0129L56.125 38.117C56.0316 38.9057 55.7824 39.5903 55.3462 40.1557C54.9101 40.7361 54.3493 41.1825 53.6484 41.495C52.9475 41.8075 52.1375 41.9712 51.2341 41.9712V42.001Z" fill="#202020"/>
<path d="M57.1406 42.001V30.001H59.3836V36.6629L62.3618 32.9446H65.0534L61.9381 36.677L65.1406 42.001H62.6858L60.4926 38.1137L59.3836 39.4517V42.001H57.1406Z" fill="#202020"/>
<path d="M23 18H69V66H23V18Z" fill="#91919B"/>
<path d="M33.5 2L34.5 2.5L37 3.5L40.5 4.5L47.5 5L52.5 3.5L57 2.5L59.5 1.5V2.5L59 5L57.5 7.5L55.5 10L50.5 12H44L30.5 4.5L31.5 2H33.5Z" fill="white"/>
<path d="M28.472 48V36.64H32.376C33.72 36.64 34.728 36.8853 35.4 37.376C36.072 37.8667 36.408 38.64 36.408 39.696C36.408 40.1867 36.3013 40.6187 36.088 40.992C35.8747 41.3653 35.5707 41.6587 35.176 41.872C34.7813 42.0747 34.312 42.176 33.768 42.176L33.752 42.08C34.7227 42.08 35.4853 42.3413 36.04 42.864C36.6053 43.376 36.888 44.048 36.888 44.88C36.888 45.9147 36.552 46.6933 35.88 47.216C35.208 47.7387 34.2533 48 33.016 48H28.472ZM29.848 46.656H33.016C33.7947 46.656 34.392 46.496 34.808 46.176C35.2347 45.856 35.448 45.3973 35.448 44.8C35.448 44.2027 35.2347 43.7387 34.808 43.408C34.392 43.0667 33.7947 42.896 33.016 42.896H29.848V46.656ZM29.848 41.552H32.376C33.208 41.552 33.848 41.3973 34.296 41.088C34.744 40.768 34.968 40.3253 34.968 39.76C34.968 39.1627 34.7493 38.72 34.312 38.432C33.8853 38.1333 33.24 37.984 32.376 37.984H29.848V41.552Z" fill="white"/>
<path d="M41.318 48.192C40.4433 48.192 39.7447 47.9893 39.222 47.584C38.71 47.1787 38.454 46.6133 38.454 45.888C38.454 45.1627 38.6673 44.592 39.094 44.176C39.5207 43.76 40.198 43.4667 41.126 43.296L44.134 42.736C44.134 42.0213 43.9633 41.488 43.622 41.136C43.2913 40.784 42.79 40.608 42.118 40.608C41.5313 40.608 41.0673 40.7413 40.726 41.008C40.3847 41.264 40.15 41.6373 40.022 42.128L38.598 42.016C38.758 41.216 39.142 40.5707 39.75 40.08C40.3687 39.5787 41.158 39.328 42.118 39.328C43.206 39.328 44.038 39.6373 44.614 40.256C45.19 40.864 45.478 41.7067 45.478 42.784V46.288C45.478 46.48 45.51 46.6187 45.574 46.704C45.6487 46.7787 45.766 46.816 45.926 46.816H46.262V48C46.2193 48.0107 46.15 48.016 46.054 48.016C45.958 48.0267 45.8567 48.032 45.75 48.032C45.366 48.032 45.0513 47.9733 44.806 47.856C44.5713 47.728 44.4007 47.536 44.294 47.28C44.1873 47.0133 44.134 46.6667 44.134 46.24L44.294 46.272C44.2193 46.6347 44.038 46.9653 43.75 47.264C43.462 47.552 43.1047 47.7813 42.678 47.952C42.2513 48.112 41.798 48.192 41.318 48.192ZM41.446 47.008C42.0113 47.008 42.4913 46.9013 42.886 46.688C43.2913 46.464 43.6007 46.1653 43.814 45.792C44.0273 45.408 44.134 44.9813 44.134 44.512V43.904L41.382 44.416C40.806 44.5227 40.406 44.688 40.182 44.912C39.9687 45.1253 39.862 45.408 39.862 45.76C39.862 46.1547 40.0007 46.464 40.278 46.688C40.566 46.9013 40.9553 47.008 41.446 47.008Z" fill="white"/>
<path d="M51.0607 48.192C50.2714 48.192 49.5834 48.0107 48.9967 47.648C48.4207 47.2853 47.9728 46.7733 47.6528 46.112C47.3328 45.44 47.1727 44.656 47.1727 43.76C47.1727 42.864 47.3328 42.0853 47.6528 41.424C47.9728 40.7627 48.4207 40.2507 48.9967 39.888C49.5834 39.5147 50.2714 39.328 51.0607 39.328C51.7114 39.328 52.2874 39.4453 52.7887 39.68C53.3007 39.904 53.7168 40.2347 54.0368 40.672C54.3568 41.1093 54.5648 41.6427 54.6608 42.272L53.2528 42.368C53.1568 41.8027 52.9114 41.3707 52.5168 41.072C52.1221 40.7627 51.6367 40.608 51.0607 40.608C50.2821 40.608 49.6741 40.8907 49.2368 41.456C48.7994 42.0107 48.5807 42.7787 48.5807 43.76C48.5807 44.7413 48.7994 45.5147 49.2368 46.08C49.6741 46.6347 50.2821 46.912 51.0607 46.912C51.6367 46.912 52.1221 46.752 52.5168 46.432C52.9114 46.112 53.1568 45.632 53.2528 44.992L54.6608 45.088C54.5648 45.7173 54.3568 46.2667 54.0368 46.736C53.7168 47.1947 53.3007 47.552 52.7887 47.808C52.2874 48.064 51.7114 48.192 51.0607 48.192Z" fill="white"/>
<path d="M56.3269 48V36.64H57.6709V44.08L61.7989 39.52H63.5909L60.2469 43.12L63.7349 48H62.1029L59.3349 44.032L57.6709 45.792V48H56.3269Z" fill="white"/>
</svg>
