<svg width="92" height="72" viewBox="0 0 92 72" fill="none" xmlns="http://www.w3.org/2000/svg">
<path d="M33.5435 2.10488C34.8418 5.50648 40.5933 8.21347 45.3257 8.21347C50.0581 8.21347 56.0433 5.51946 57.4975 2.20225C53.7713 3.39671 49.9542 3.81866 46.4423 3.81866C40.7361 3.81866 35.861 2.72158 33.5435 2.09839V2.10488Z" fill="white"/>
<path d="M17.6898 41.6647V26.6171C17.6898 26.1368 18.0793 25.7473 18.5597 25.7473C19.0401 25.7473 19.4296 26.1368 19.4296 26.6171V70.2537H71.6675V41.9892C71.6675 41.8919 71.687 41.7945 71.7194 41.7036V26.6171C71.7194 26.1368 72.1089 25.7473 72.5893 25.7473C73.0697 25.7473 73.4592 26.1368 73.4592 26.6171V41.7296L74.1733 42.5735C84.0405 35.3743 87.6888 32.7712 89.0845 31.8169C88.2665 30.5316 85.6504 26.6366 77.5684 15.0426C73.9266 9.81687 68.8696 5.81805 62.9428 3.48107L59.3854 2.07889C58.165 6.53862 51.1281 9.95969 45.3311 9.95969C39.5341 9.95969 32.8672 6.59704 31.7052 2.08538L28.1673 3.48107C22.2339 5.82454 17.1705 9.82336 13.5222 15.0556C5.44017 26.6431 2.82405 30.5381 2.0061 31.8234C3.40829 32.7777 7.05008 35.3873 16.9173 42.58L17.6898 41.6711V41.6647Z" fill="white"/>
<path d="M58.522 0.0340688C58.5674 0.0275772 58.6128 0.014594 58.6583 0.00810241C58.6128 0.00810241 58.5674 0.0210856 58.522 0.0340688Z" fill="white"/>
<path d="M0.487343 32.8687C1.27932 33.3491 10.4974 40.0354 16.5476 44.4497C16.8981 44.7094 17.3915 44.6574 17.6901 44.3458V71.1302C17.6901 71.6105 18.0796 72 18.56 72H72.5376C73.018 72 73.4075 71.6105 73.4075 71.1302V44.3523C73.7061 44.6639 74.193 44.7094 74.5435 44.4562C80.5937 40.0419 89.8118 33.3491 90.6038 32.8752C90.805 32.7778 90.9673 32.609 91.0452 32.3948C91.2659 31.8041 91.3048 31.7132 78.9903 14.056C75.1537 8.55116 69.8241 4.33811 63.5792 1.87131L59.0221 0.0666417C59.0221 0.0666417 58.9767 0.0666417 58.9572 0.0601501C59.2039 0.138049 59.4116 0.306831 59.509 0.566495C59.6778 1.01442 59.4571 1.51427 59.0091 1.68954C58.5093 1.88429 58.0029 2.05956 57.4966 2.22185C56.0425 5.53257 50.0767 8.23307 45.3248 8.23307C40.573 8.23307 34.8409 5.52608 33.5426 2.12448C32.7311 1.90376 32.2248 1.74147 32.1274 1.70902C31.673 1.55971 31.4263 1.07284 31.5756 0.611936C31.6665 0.326306 31.9002 0.138049 32.1664 0.0666417C32.1404 0.0731333 32.1079 0.0666417 32.082 0.0796249L27.5314 1.8778C21.2799 4.34461 15.9438 8.56414 12.1008 14.0755C-0.207258 31.7262 -0.174799 31.817 0.0524072 32.4078C0.130306 32.622 0.292597 32.7908 0.493836 32.8882L0.487343 32.8687ZM13.516 15.0428C17.1643 9.81053 22.2277 5.81171 28.161 3.46824L31.699 2.07255C32.861 6.5907 39.5798 9.94685 45.3248 9.94685C51.0699 9.94685 58.1587 6.52578 59.3792 2.06605L62.9366 3.46824C68.8634 5.81171 73.9203 9.81053 77.5621 15.0298C85.6442 26.6238 88.2603 30.5187 89.0782 31.8041C87.676 32.7583 84.0342 35.3615 74.167 42.5606L73.4529 41.7167V41.9699C73.4529 42.4503 73.0635 42.8398 72.5831 42.8398C72.1027 42.8398 71.7132 42.4503 71.7132 41.9699V41.6908C71.6807 41.7817 71.6613 41.8725 71.6613 41.9764V70.2408H19.4233V41.9699C19.4233 42.4503 19.0338 42.8398 18.5535 42.8398C18.0731 42.8398 17.6836 42.4503 17.6836 41.9699V41.6518L16.9111 42.5606C7.04386 35.3615 3.39558 32.7583 1.99989 31.8041C2.81783 30.5187 5.43394 26.6303 13.516 15.0363V15.0428Z" fill="#202020"/>
<path d="M32.4141 0.00810241C32.4595 0.00810241 32.5114 0.014594 32.5569 0.0275772C32.5049 0.0210856 32.466 0.014594 32.4141 0.00810241Z" fill="white"/>
<path d="M33.2644 0.832561C33.2774 1.26101 33.3877 1.68942 33.5435 2.09839C35.8545 2.72158 40.7361 3.81866 46.4423 3.81866C49.9542 3.81866 53.7778 3.4032 57.4975 2.20225C57.6922 1.75433 57.8156 1.29347 57.8286 0.832561C57.8416 0.553423 57.9844 0.293759 58.2181 0.13796C58.309 0.0795359 58.4128 0.0535695 58.5167 0.0276031C58.4713 0.0340947 58.4258 0.0276031 58.3804 0.0535695C46.676 4.54576 32.8035 0.0860275 32.6607 0.0405863C32.6217 0.0276031 32.5892 0.0405863 32.5503 0.0276031C32.6607 0.0470779 32.7645 0.0730443 32.8619 0.13796C33.0956 0.293759 33.2449 0.553423 33.2514 0.832561H33.2644Z" fill="#202020"/>
<path d="M58.6583 0.00810241C58.7557 0.00810241 58.853 0.0211979 58.9503 0.0471643C58.853 0.0147063 58.7557 0.00161081 58.6583 0.00810241Z" fill="white"/>
<path d="M32.1658 0.0470212C32.2502 0.0210548 32.3346 0.00807161 32.4189 0.0145632C32.3346 0.0145632 32.2502 0.0275464 32.1658 0.0470212Z" fill="white"/>
<path d="M31.5677 0.592172C31.4184 1.04658 31.6651 1.53995 32.1195 1.68925C32.2234 1.72171 32.7233 1.884 33.5347 2.10471C33.3789 1.68925 33.275 1.2673 33.2556 0.838853C33.2426 0.559714 33.0998 0.30005 32.8661 0.144252C32.7687 0.0793355 32.6648 0.0533691 32.5545 0.0338943C32.509 0.0274027 32.4571 0.0209111 32.4117 0.0144195C32.3273 0.0144195 32.2429 0.0274027 32.1585 0.0468775C31.8923 0.124777 31.6586 0.313033 31.5677 0.592172Z" fill="#202020"/>
<path d="M57.8286 0.832561C57.8091 1.29996 57.6922 1.75433 57.4975 2.20225C58.0038 2.03996 58.5107 1.86471 59.0106 1.66996C59.4585 1.50118 59.6792 0.994838 59.5104 0.546917C59.4131 0.287253 59.1988 0.118472 58.9587 0.0405725C58.8613 0.0081145 58.7639 -0.0048687 58.6665 0.0016229C58.6211 0.0016229 58.5756 0.0146061 58.5302 0.0275893C58.4263 0.0470641 58.3225 0.0730305 58.2316 0.137946C57.9979 0.293745 57.8486 0.553409 57.8421 0.832548L57.8286 0.832561Z" fill="#202020"/>
<path d="M18.5535 25.7473C18.0731 25.7473 17.6836 26.1368 17.6836 26.6171V41.6647L17.8913 41.4245C18.125 41.1453 18.508 41.048 18.8521 41.1713C19.1961 41.2947 19.4233 41.6192 19.4233 41.9828V26.6171C19.4233 26.1368 19.0338 25.7473 18.5535 25.7473Z" fill="#202020"/>
<path d="M18.8587 41.1714C18.5146 41.048 18.1316 41.1454 17.8979 41.4245L17.6898 41.6647L17.6902 41.9828C17.6902 42.4632 18.0797 42.8527 18.5601 42.8527C19.0404 42.8527 19.4299 42.4632 19.4299 41.9828C19.4299 41.6193 19.2027 41.2947 18.8587 41.1714Z" fill="#202020"/>
<path d="M72.5842 25.7473C72.1039 25.7473 71.7144 26.1368 71.7144 26.6171V41.7036C71.7987 41.4634 71.9805 41.2622 72.2337 41.1713C72.5777 41.048 72.9607 41.1453 73.1944 41.4245L73.4541 41.7296V26.6171C73.4541 26.1368 73.0646 25.7473 72.5842 25.7473Z" fill="#202020"/>
<path d="M72.2337 41.1713C71.987 41.2622 71.7987 41.4634 71.7144 41.7036V41.9827C71.7144 42.4631 72.1039 42.8526 72.5842 42.8526C73.0646 42.8526 73.4541 42.4631 73.4541 41.9827V41.7296L73.1944 41.4245C72.9607 41.1453 72.5777 41.048 72.2337 41.1713Z" fill="#202020"/>
<path d="M24.543 41.9869V30.001H32.543V32.1674H25.6586L27.0328 30.7044V36.1909L25.6586 35.0795H32.2573V37.2038H25.6586L27.0328 36.0924V42.001H24.5566L24.543 41.9869Z" fill="#202020"/>
<path d="M33.5585 42.001V32.001H36.1941L36.2872 34.9092L36.0856 34.847C36.2406 33.8361 36.5352 33.1052 36.9383 32.6697C37.3414 32.2187 37.915 32.001 38.6282 32.001H39.543V34.3182H38.6282C38.1011 34.3182 37.6825 34.3804 37.3414 34.5204C37.0003 34.6604 36.7523 34.8781 36.5817 35.1736C36.4112 35.4691 36.3337 35.8735 36.3337 36.3867V42.001H33.543H33.5585Z" fill="#202020"/>
<path d="M44.543 42.001C43.5338 42.001 42.6622 41.7926 41.913 41.3909C41.1638 40.9742 40.5827 40.3938 40.1699 39.6498C39.757 38.9057 39.543 38.0129 39.543 37.001C39.543 35.9891 39.757 35.1111 40.1699 34.3671C40.5827 33.623 41.1638 33.0426 41.913 32.626C42.6622 32.2093 43.5338 32.001 44.543 32.001C45.5521 32.001 46.4237 32.2093 47.1729 32.626C47.9222 33.0426 48.5032 33.623 48.9161 34.3671C49.3289 35.1111 49.543 35.9891 49.543 37.001C49.543 38.0129 49.3289 38.8909 48.9161 39.6498C48.5032 40.3938 47.9222 40.9742 47.1729 41.3909C46.4237 41.8075 45.5521 42.001 44.543 42.001ZM44.543 39.9474C45.231 39.9474 45.7662 39.6944 46.1332 39.1736C46.5154 38.6528 46.6989 37.9385 46.6989 37.001C46.6989 36.0635 46.5154 35.3492 46.1332 34.8284C45.7509 34.3075 45.2158 34.0545 44.543 34.0545C43.8702 34.0545 43.3197 34.3075 42.9528 34.8284C42.5705 35.3492 42.387 36.0635 42.387 37.001C42.387 37.9385 42.5705 38.6528 42.9528 39.1736C43.335 39.6944 43.8702 39.9474 44.543 39.9474Z" fill="#202020"/>
<path d="M50.543 41.9858V32.2137H52.8008L52.8984 35.0709L52.5778 34.9797C52.6614 34.2502 52.8426 33.6727 53.1214 33.232C53.4001 32.7912 53.7346 32.4721 54.1527 32.2897C54.5708 32.1074 55.0168 32.001 55.5046 32.001C56.1458 32.001 56.7032 32.153 57.1492 32.4569C57.5952 32.7609 57.9437 33.1864 58.1806 33.7487C58.4175 34.311 58.543 34.9493 58.543 35.7092V42.001H56.0343V36.621C56.0343 36.1043 55.9925 35.6484 55.9228 35.2837C55.8391 34.9189 55.6998 34.6453 55.5046 34.4478C55.3095 34.2654 55.0308 34.159 54.6684 34.159C54.1388 34.159 53.7485 34.3718 53.4698 34.7821C53.191 35.2077 53.0517 35.8004 53.0517 36.5906V41.9706H50.543V41.9858Z" fill="#202020"/>
<path d="M60.543 34.9444V33.0903H66.543V34.9444H60.543ZM64.4722 41.9871C63.5961 41.9871 62.9456 41.7796 62.5341 41.3507C62.1226 40.9217 61.9102 40.2437 61.9102 39.3167V31.001H64.2996V39.0261C64.2996 39.4551 64.3925 39.7456 64.5651 39.9117C64.7377 40.0639 65.0031 40.1469 65.3483 40.1469H66.543V42.001H64.4722V41.9871Z" fill="#202020"/>
<path d="M23 18H69V66H23V18Z" fill="#91919B"/>
<path d="M28.472 48V36.64H35.608V37.984H29.16L29.848 37.28V42.496L29.16 41.792H35.32V43.104H29.16L29.848 42.4V48H28.472Z" fill="white"/>
<path d="M37.2331 48V39.52H38.4171L38.4811 41.664L38.3531 41.616C38.4598 40.8907 38.6891 40.3627 39.0411 40.032C39.4038 39.6907 39.8838 39.52 40.4811 39.52H41.3131V40.8H40.4971C40.0705 40.8 39.7131 40.88 39.4251 41.04C39.1478 41.1893 38.9345 41.4187 38.7851 41.728C38.6465 42.0267 38.5771 42.4107 38.5771 42.88V48H37.2331Z" fill="white"/>
<path d="M45.967 48.192C45.1883 48.192 44.5057 48.0107 43.919 47.648C43.3323 47.2853 42.879 46.7733 42.559 46.112C42.239 45.44 42.079 44.656 42.079 43.76C42.079 42.8533 42.239 42.0693 42.559 41.408C42.879 40.7467 43.3323 40.2347 43.919 39.872C44.5057 39.5093 45.1883 39.328 45.967 39.328C46.7457 39.328 47.423 39.5093 47.999 39.872C48.5857 40.2347 49.039 40.7467 49.359 41.408C49.679 42.0693 49.839 42.8533 49.839 43.76C49.839 44.656 49.679 45.44 49.359 46.112C49.039 46.7733 48.5857 47.2853 47.999 47.648C47.423 48.0107 46.7457 48.192 45.967 48.192ZM45.967 46.912C46.7457 46.912 47.3483 46.6347 47.775 46.08C48.2123 45.5147 48.431 44.7413 48.431 43.76C48.431 42.7787 48.2123 42.0107 47.775 41.456C47.3483 40.8907 46.7457 40.608 45.967 40.608C45.1883 40.608 44.5803 40.8907 44.143 41.456C43.7057 42.0107 43.487 42.7787 43.487 43.76C43.487 44.7413 43.7057 45.5147 44.143 46.08C44.5803 46.6347 45.1883 46.912 45.967 46.912Z" fill="white"/>
<path d="M51.6706 48V39.52H52.9026L52.9506 41.68L52.7906 41.536C52.8973 41.0347 53.084 40.624 53.3506 40.304C53.6173 39.9733 53.9373 39.728 54.3106 39.568C54.6946 39.408 55.1053 39.328 55.5426 39.328C56.1933 39.328 56.7266 39.472 57.1426 39.76C57.5693 40.048 57.884 40.4373 58.0866 40.928C58.3 41.408 58.4066 41.9467 58.4066 42.544V48H57.0626V42.928C57.0626 42.4053 56.9986 41.968 56.8706 41.616C56.7533 41.2533 56.5613 40.9813 56.2946 40.8C56.028 40.608 55.6813 40.512 55.2546 40.512C54.604 40.512 54.0653 40.72 53.6386 41.136C53.2226 41.5413 53.0146 42.1387 53.0146 42.928V48H51.6706Z" fill="white"/>
<path d="M63.4309 48C62.6629 48 62.0922 47.824 61.7189 47.472C61.3562 47.12 61.1749 46.5707 61.1749 45.824V37.536H62.5189V45.792C62.5189 46.176 62.6042 46.4427 62.7749 46.592C62.9455 46.7413 63.2069 46.816 63.5589 46.816H64.7749V48H63.4309ZM59.9269 40.704V39.52H64.7749V40.704H59.9269Z" fill="white"/>
</svg>
